<svg width="35" height="35" viewBox="0 0 35 35" fill="none" xmlns="http://www.w3.org/2000/svg">
<ellipse cx="17.3583" cy="17.5" rx="17.3583" ry="17.5" fill="#E36E2C"/>
<path d="M18.2024 8C23.173 8 27.2024 12.0294 27.2024 17C27.2024 21.9706 23.173 26 18.2024 26C13.2318 26 9.20239 21.9706 9.20239 17C9.20239 12.0294 13.2318 8 18.2024 8ZM18.2024 18.344C16.731 18.344 15.3521 18.9361 14.343 19.9665C14.0821 20.2329 14.0866 20.6603 14.353 20.9211C14.6193 21.1819 15.0467 21.1774 15.3075 20.9111C16.0652 20.1373 17.0977 19.694 18.2024 19.694C19.3046 19.694 20.3351 20.1354 21.0924 20.9061C21.3537 21.172 21.781 21.1758 22.047 20.9145C22.3129 20.6532 22.3166 20.2258 22.0553 19.9599C21.0467 18.9334 19.6705 18.344 18.2024 18.344ZM14.7991 12.1938L14.7166 12.1372C14.4323 11.9715 14.062 12.0345 13.8503 12.2992C13.6386 12.5638 13.6584 12.9389 13.8824 13.1799L13.9557 13.2479L15.0865 14.1515C14.6716 14.3169 14.3784 14.7223 14.3784 15.1962C14.3784 15.8172 14.8818 16.3206 15.5028 16.3206C16.1238 16.3206 16.6272 15.8172 16.6271 15.1959C16.8251 15.1958 17.0212 15.1091 17.1545 14.9425C17.3662 14.6779 17.3464 14.3028 17.1224 14.0618L17.0491 13.9938L14.7991 12.1938L14.7166 12.1372L14.7991 12.1938ZM22.5544 12.299C22.3426 12.0345 21.9723 11.9715 21.6881 12.1372L21.6056 12.1938L19.3566 13.9938L19.2833 14.0619C19.0593 14.3029 19.0397 14.678 19.2514 14.9426C19.3625 15.0814 19.5173 15.1648 19.6801 15.1878L19.7784 15.1944C19.7784 15.8172 20.2818 16.3206 20.9028 16.3206C21.5238 16.3206 22.0272 15.8172 22.0272 15.1962C22.0272 14.7619 21.7809 14.3851 21.4203 14.1978L21.3193 14.1515L22.4492 13.2478L22.5225 13.1798C22.7465 12.9388 22.7662 12.5636 22.5544 12.299Z" fill="white"/>
</svg>
