<svg width="35" height="35" viewBox="0 0 35 35" fill="none" xmlns="http://www.w3.org/2000/svg">
<ellipse cx="17.3583" cy="17.5" rx="17.3583" ry="17.5" fill="#00AA63"/>
<path d="M18.2024 8C13.2321 8 9.20239 12.0294 9.20239 17C9.20239 21.9703 13.2321 26 18.2024 26C23.173 26 27.2024 21.9703 27.2024 17C27.2024 12.0294 23.173 8 18.2024 8ZM11.9526 17.2249L15.1229 15.9121L15.48 16.7747L12.3098 18.0875L11.9526 17.2249ZM15.2427 22.9406C15.2427 21.5333 16.5538 20.3923 18.1713 20.3923C19.7888 20.3923 21.1 21.5333 21.1 22.9406H15.2427ZM24.4556 18.0875L21.2853 16.7747L21.6425 15.9121L24.8127 17.2249L24.4556 18.0875Z" fill="white"/>
</svg>
