<svg width="35" height="35" viewBox="0 0 35 35" fill="none" xmlns="http://www.w3.org/2000/svg">
<ellipse cx="17.3583" cy="17.5" rx="17.3583" ry="17.5" fill="#E36E2C"/>
<path d="M15.3 16.1C15.3 15.6038 14.8962 15.2 14.4 15.2C13.9038 15.2 13.5 15.6038 13.5 16.1C13.5 16.5962 13.9038 17 14.4 17C14.8962 17 15.3 16.5962 15.3 16.1Z" fill="white"/>
<path d="M15.4111 21.3092C16.315 21.0365 17.3971 20.9001 17.9998 20.9001C18.6031 20.9001 19.6861 21.0369 20.59 21.3102C19.8901 20.6649 18.979 20.3 17.9998 20.3C17.0215 20.3 16.1111 20.6643 15.4111 21.3092Z" fill="white"/>
<path d="M20.7 16.1C20.7 16.5962 21.1038 17 21.6 17C22.0961 17 22.5 16.5962 22.5 16.1C22.5 15.6038 22.0961 15.2 21.6 15.2C21.1038 15.2 20.7 15.6038 20.7 16.1Z" fill="white"/>
<path d="M18 8C13.0374 8 9 12.0374 9 17C9 21.9626 13.0374 26 18 26C22.9626 26 27 21.9626 27 17C27 12.0374 22.9626 8 18 8ZM22.2063 10.4363C22.3233 10.5536 22.3233 10.7435 22.2063 10.8605L21.5697 11.4971L22.2063 12.1334C22.3233 12.2507 22.3233 12.4406 22.2063 12.5576C22.1475 12.6164 22.0707 12.6455 21.9939 12.6455C21.9174 12.6455 21.8406 12.6164 21.7818 12.5576L20.9334 11.7092C20.8164 11.5922 20.8164 11.4023 20.9334 11.285L21.7818 10.4363C21.8988 10.319 22.089 10.319 22.2063 10.4363ZM21.3576 13.4063C21.2991 13.4648 21.2223 13.4939 21.1455 13.4939C21.0687 13.4939 20.9922 13.4648 20.9334 13.4063L20.2971 12.7697L19.6608 13.4063C19.5435 13.5233 19.3536 13.5233 19.2366 13.4063C19.1193 13.289 19.1193 13.0991 19.2366 12.9818L20.085 12.1334C20.202 12.0164 20.3919 12.0164 20.5092 12.1334L21.3576 12.9818C21.4749 13.0991 21.4749 13.289 21.3576 13.4063ZM19.2366 9.5879C19.3536 9.47059 19.5435 9.47059 19.6608 9.5879L20.2971 10.2242L20.9334 9.5879C21.0507 9.47059 21.2406 9.47059 21.3576 9.5879C21.4749 9.70522 21.4749 9.89482 21.3576 10.0121L20.5092 10.8605C20.4504 10.919 20.3739 10.9484 20.2971 10.9484C20.2203 10.9484 20.1435 10.919 20.085 10.8605L19.2366 10.0121C19.1193 9.89482 19.1193 9.70518 19.2366 9.5879ZM18.3879 10.8605C18.2706 10.7435 18.2706 10.5536 18.3879 10.4363C18.5052 10.319 18.6948 10.319 18.8121 10.4363L19.6608 11.285C19.7169 11.3414 19.7487 11.4179 19.7487 11.4971C19.7487 11.5769 19.7169 11.6531 19.6608 11.7092L18.8121 12.5576C18.7536 12.6164 18.6768 12.6455 18.6 12.6455C18.5232 12.6455 18.4464 12.6164 18.3879 12.5576C18.2706 12.4406 18.2706 12.2507 18.3879 12.1334L19.0245 11.4971L18.3879 10.8605ZM12.9 16.1C12.9 15.2729 13.5729 14.6 14.4 14.6C14.5017 14.6 14.601 14.6105 14.6973 14.63C14.316 14.2418 13.7859 14 13.2 14C13.0344 14 12.9 13.8659 12.9 13.7C12.9 13.5341 13.0344 13.4 13.2 13.4C14.6886 13.4 15.9 14.6111 15.9 16.1C15.9 16.9271 15.2271 17.6 14.4 17.6C13.5729 17.6 12.9 16.9271 12.9 16.1ZM21.8598 22.2497C21.8064 22.343 21.7071 22.4 21.6 22.4C21.5319 22.4 21.4641 22.3769 21.411 22.334C20.7846 21.8327 18.9432 21.5 18 21.5C17.0643 21.5 15.2454 21.827 14.6031 22.3208C14.4573 22.4546 14.1834 22.3916 14.1162 22.1993C14.0835 22.106 14.0988 22.0043 14.154 21.9263C14.9724 20.5316 16.4082 19.7 18 19.7C19.6008 19.7 21.0435 20.5412 21.8595 21.9497C21.9132 22.0424 21.9135 22.1567 21.8598 22.2497ZM21.6 14.6C22.4271 14.6 23.1 15.2729 23.1 16.1C23.1 16.9271 22.4271 17.6 21.6 17.6C20.7729 17.6 20.1 16.9271 20.1 16.1C20.1 14.6111 21.3114 13.4 22.8 13.4C22.9656 13.4 23.1 13.5341 23.1 13.7C23.1 13.8659 22.9656 14 22.8 14C22.2141 14 21.684 14.2418 21.3027 14.63C21.399 14.6105 21.4983 14.6 21.6 14.6Z" fill="white"/>
</svg>
