<svg width="35" height="35" viewBox="0 0 35 35" fill="none" xmlns="http://www.w3.org/2000/svg">
<circle cx="17.5" cy="17.5" r="17.5" fill="#00AA63"/>
<path d="M27.1585 25.5056L25.0781 23.8182C25.7565 23.0043 26.1635 22.0118 26.1635 20.94C26.1635 19.213 25.1232 17.6648 23.5631 16.8111C23.4952 17.0692 23.3369 17.3272 23.1109 17.5655C23.0656 17.6052 22.9752 17.7045 22.8395 17.8236C24.0155 18.4786 24.8068 19.63 24.8068 20.9401C24.8068 22.9649 22.93 24.6124 20.6234 24.6124C18.3169 24.6124 16.44 22.9649 16.44 20.9401C16.1234 20.9799 15.7843 20.9997 15.445 20.9997H15.0831C15.1058 23.6198 17.5933 25.7836 20.6233 25.7836C21.8444 25.7836 22.975 25.4264 23.9022 24.8308L25.8244 26.6571L25.8697 26.6968C26.2541 27.0144 26.842 26.9945 27.2038 26.6571C27.5656 26.3394 27.5429 25.8034 27.1585 25.5057L27.1585 25.5056Z" fill="white"/>
<path d="M22.0704 16.7714C22.3191 16.5133 22.3191 16.1164 22.0704 15.8583C21.9573 15.7392 19.0854 12.841 15.4447 12.841C11.7815 12.841 8.93216 15.7392 8.8191 15.8583C8.54763 16.1362 8.54763 16.5133 8.81894 16.7714C8.93204 16.9103 11.804 19.7886 15.4446 19.7886C19.1079 19.7886 21.9572 16.9103 22.0702 16.7714H22.0704ZM12.6859 16.3148C12.6859 14.9848 13.9297 13.893 15.4447 13.893C16.9598 13.893 18.2035 14.9848 18.2035 16.3148C18.2035 17.6448 16.9598 18.7365 15.4447 18.7365C13.9295 18.7365 12.6859 17.6647 12.6859 16.3148Z" fill="white"/>
<path d="M15.4448 14.8658C15.2864 14.8658 15.1508 14.8856 14.9926 14.9254C15.0829 15.0445 15.1509 15.1835 15.1509 15.3423C15.1509 15.7393 14.7891 16.0569 14.3369 16.0569C14.1559 16.0569 13.9977 15.9974 13.8619 15.9179C13.8166 16.037 13.7941 16.176 13.7941 16.3149C13.7941 17.1088 14.5403 17.7639 15.4448 17.7639C16.3492 17.7639 17.0955 17.1088 17.0955 16.3149C17.0955 15.5209 16.3718 14.8658 15.4448 14.8658L15.4448 14.8658Z" fill="white"/>
<path d="M15.4447 11.4317C15.8969 11.4317 16.2362 11.1141 16.2362 10.7369L16.236 8.77176C16.236 8.39457 15.8742 8.07693 15.4445 8.07693C14.9923 8.07693 14.653 8.39456 14.653 8.77176V10.737C14.6531 11.114 15.015 11.4317 15.4446 11.4317L15.4447 11.4317Z" fill="white"/>
<path d="M18.9943 12.0471C19.0847 12.0868 19.1978 12.1066 19.3108 12.1066C19.6274 12.1066 19.9214 11.9478 20.0571 11.6699L20.9164 9.86348C21.0748 9.50624 20.8939 9.08931 20.4867 8.95029C20.0345 8.81141 19.5821 8.97023 19.4013 9.32762L18.542 11.134C18.3836 11.4913 18.5646 11.9081 18.9942 12.0471L18.9943 12.0471Z" fill="white"/>
<path d="M10.877 11.6699C11.0126 11.9478 11.3067 12.1066 11.6232 12.1066C11.7363 12.1066 11.8267 12.0868 11.9398 12.0471C12.3467 11.908 12.5504 11.4912 12.3695 11.1339L11.4876 9.3276C11.3292 8.97036 10.8544 8.7916 10.4473 8.95041C10.0403 9.08943 9.83668 9.50622 10.0176 9.86359L10.877 11.6699Z" fill="white"/>
<path d="M18.0677 21.1583C17.9321 21.1583 17.819 21.2576 17.819 21.3767V22.409C17.819 22.528 17.9321 22.6273 18.0677 22.6273H19.04C19.1757 22.6273 19.2888 22.528 19.2888 22.409V21.3767C19.2888 21.2576 19.1757 21.1583 19.04 21.1583H18.0677Z" fill="white"/>
<path d="M20.1483 20.1857C20.0126 20.1857 19.8995 20.285 19.8995 20.404V22.4288C19.8995 22.5479 20.0126 22.6472 20.1483 22.6472H21.1206C21.2562 22.6472 21.3693 22.5479 21.3693 22.4288L21.3695 20.404C21.3695 20.285 21.2564 20.1857 21.1207 20.1857H20.1483Z" fill="white"/>
<path d="M21.957 19.4314V22.4287C21.957 22.5478 22.0701 22.6471 22.2058 22.6471H23.1781C23.3137 22.6471 23.4268 22.5478 23.4268 22.4287L23.427 19.4314C23.427 19.3123 23.3139 19.213 23.1782 19.213H22.2059C22.0701 19.213 21.957 19.3123 21.957 19.4314Z" fill="white"/>
</svg>
