<svg width="35" height="35" viewBox="0 0 35 35" fill="none" xmlns="http://www.w3.org/2000/svg">
<ellipse cx="17.5607" cy="17.5" rx="17.3583" ry="17.5" fill="#FCB632"/>
<path d="M18.8447 6.41058C17.6459 6.41058 16.5102 6.6798 15.4964 7.15933C12.8169 8.40443 10.9619 11.1134 10.9619 14.2598V15.3072V15.5596L9.36342 18.6093C8.9596 19.379 9.34239 20.01 10.2089 20.01H10.9619V20.0268V21.3561V22.9082C10.9619 23.8126 11.7022 24.5572 12.6108 24.5572L14.8738 24.2206L14.8781 26.4837V26.5005C14.8907 26.7908 15.1346 26.9843 15.4375 26.9296L23.5896 25.4868C23.8967 25.4321 24.149 25.1334 24.149 24.8222V24.4646V24.1786V20.031C25.7096 18.5966 26.6897 16.5397 26.6897 14.2514C26.6855 9.91875 23.1732 6.41058 18.8447 6.41058ZM20.5567 13.5741C19.7659 14.9454 18.9751 16.3167 18.1801 17.688C18.1759 17.6922 18.1717 17.6965 18.1717 17.7049C18.117 17.8058 18.0539 17.9026 17.9193 17.8521C17.7805 17.8016 17.8141 17.6796 17.831 17.5745C17.8941 17.2295 17.9572 16.8846 18.0245 16.5397C18.138 15.934 18.2558 15.3282 18.3694 14.7225C18.3778 14.672 18.382 14.6173 18.3904 14.5458C18.3147 14.5416 18.2516 14.5374 18.1885 14.5374C17.7426 14.5374 17.2926 14.5416 16.8467 14.5416C16.5817 14.5416 16.5228 14.4323 16.6532 14.2009C17.444 12.8296 18.2348 11.4583 19.0298 10.087C19.034 10.0828 19.0382 10.0786 19.0382 10.0702C19.0929 9.96923 19.156 9.87248 19.2906 9.92296C19.4294 9.97344 19.3958 10.0954 19.3789 10.2006C19.3158 10.5455 19.2528 10.8904 19.1854 11.2354C19.0719 11.8411 18.9541 12.4468 18.8405 13.0525C18.8321 13.103 18.8279 13.1577 18.8195 13.2292C18.8952 13.2334 18.9583 13.2376 19.0214 13.2376C19.4673 13.2376 19.9174 13.2334 20.3632 13.2334C20.6283 13.2334 20.6914 13.3428 20.5567 13.5741Z" fill="white"/>
<rect x="13.8405" y="9.69513" width="8.62187" height="9.03243" fill="white"/>
<g clip-path="url(#clip0_737_1773)">
<path d="M18.401 14.7418C18.6552 14.2624 18.0648 13.7572 17.5892 13.717C16.8562 13.6722 16.402 14.3794 16.5352 15.1079C16.7627 16.5956 18.5771 16.9651 19.5172 16.1509C20.5014 15.2323 20.2114 13.5856 19.132 12.7033C17.8446 11.6383 16.0906 11.9854 15.3042 13.2337C14.562 14.3777 14.8519 16.0244 15.8431 17.1155C16.9747 18.3039 18.6825 18.6189 19.9814 17.9375C21.2413 17.2869 21.9313 15.8368 21.7039 14.3491C21.6045 13.6634 21.3596 12.954 20.886 12.3563C20.7169 12.1428 20.7426 11.775 21.0101 11.6325C21.3218 11.3856 21.6703 11.6655 21.8343 11.9525C23.2682 14.0829 22.9902 17.0134 21.1202 18.4947C18.8218 20.3154 14.9326 19.0877 14.0124 15.925C13.1597 12.8477 15.8263 9.97093 18.7877 11.3082C20.2177 11.9128 21.2171 13.4144 21.1093 14.9592C21.0066 16.4304 19.8564 17.6195 18.3464 17.6343C16.9481 17.63 15.5592 16.437 15.4825 14.8994C15.3668 13.3927 16.8133 12.1773 18.2771 12.8246C19.3483 13.2964 20.036 15.045 18.9606 15.6884C18.3373 16.1821 17.2169 15.8883 17.0601 14.9701C16.9894 14.4006 17.5973 14.1275 17.9899 14.303C18.3384 14.5828 18.401 14.7418 18.401 14.7418Z" fill="#FCB632"/>
</g>
<defs>
<clipPath id="clip0_737_1773">
<rect width="11.9278" height="13.0736" fill="white" transform="translate(9.73474 13.4065) rotate(-38.385)"/>
</clipPath>
</defs>
</svg>
