<svg width="55" height="55" viewBox="0 0 55 55" fill="none" xmlns="http://www.w3.org/2000/svg">
<circle cx="27.5" cy="27.5" r="27.5" fill="#615AE4"/>
<path d="M32.3788 38.9423C32.3929 38.9082 32.3996 38.8715 32.3983 38.8346C32.397 38.7977 32.3878 38.7615 32.3713 38.7284L30.8244 35.6347C30.7997 35.5854 30.7599 35.5452 30.7108 35.5202C30.6616 35.4952 30.6058 35.4866 30.5514 35.4957C28.5311 35.8331 26.4689 35.8331 24.4487 35.4957C24.3943 35.4866 24.3384 35.4952 24.2893 35.5202C24.2402 35.5452 24.2003 35.5854 24.1757 35.6347L22.6288 38.7284C22.6123 38.7615 22.603 38.7977 22.6017 38.8346C22.6004 38.8715 22.6071 38.9083 22.6212 38.9424C22.6353 38.9765 22.6566 39.0072 22.6837 39.0324C22.7107 39.0576 22.7428 39.0766 22.7779 39.0883L24.4041 39.6304C26.4137 40.3003 28.5863 40.3003 30.5959 39.6304L32.2222 39.0883C32.2572 39.0766 32.2893 39.0575 32.3164 39.0324C32.3434 39.0072 32.3647 38.9765 32.3788 38.9423ZM30.4323 39.1412C28.5286 39.7758 26.4704 39.7758 24.5666 39.1412L23.2224 38.6932L24.5516 36.0347C26.505 36.3409 28.4941 36.3409 30.4474 36.0347L31.7766 38.6932L30.4323 39.1412Z" fill="white"/>
<path d="M22.0859 32.9141H23.1172C23.1856 32.9141 23.2511 32.8869 23.2995 32.8386C23.3478 32.7902 23.375 32.7246 23.375 32.6563V30.5053C23.3764 30.0088 23.2792 29.5171 23.0893 29.0585C22.8993 28.5998 22.6203 28.1834 22.2683 27.8334C22.2322 27.7973 22.1863 27.7727 22.1363 27.7628C22.0863 27.7528 22.0344 27.7579 21.9873 27.7774C21.9402 27.7969 21.8999 27.83 21.8716 27.8724C21.8432 27.9148 21.8281 27.9646 21.8281 28.0156V32.6563C21.8281 32.7246 21.8553 32.7902 21.9036 32.8386C21.952 32.8869 22.0176 32.9141 22.0859 32.9141ZM22.3438 28.7428C22.682 29.2683 22.861 29.8803 22.8594 30.5053V32.3984H22.3438V28.7428Z" fill="white"/>
<path d="M23.375 34.8072V33.6875C23.375 33.6191 23.3478 33.5535 23.2995 33.5052C23.2511 33.4568 23.1856 33.4297 23.1172 33.4297H22.0859C22.0176 33.4297 21.952 33.4568 21.9036 33.5052C21.8553 33.5535 21.8281 33.6191 21.8281 33.6875V37.2969C21.8281 37.3479 21.8432 37.3977 21.8716 37.4401C21.8999 37.4825 21.9402 37.5156 21.9873 37.5351C22.0344 37.5546 22.0863 37.5597 22.1363 37.5497C22.1863 37.5398 22.2322 37.5152 22.2683 37.4791C22.6203 37.1291 22.8993 36.7127 23.0893 36.2541C23.2792 35.7954 23.3764 35.3037 23.375 34.8072ZM22.3438 33.9453H22.8594V34.8072C22.861 35.4322 22.682 36.0442 22.3438 36.5697V33.9453Z" fill="white"/>
<path d="M33.0128 27.7775C32.9656 27.7579 32.9138 27.7528 32.8638 27.7628C32.8137 27.7727 32.7678 27.7973 32.7317 27.8333C32.3798 28.1834 32.1007 28.5998 31.9107 29.0584C31.7208 29.5171 31.6237 30.0088 31.625 30.5052V32.6562C31.625 32.7246 31.6522 32.7902 31.7005 32.8385C31.7489 32.8869 31.8145 32.914 31.8828 32.914H32.9141C32.9825 32.914 33.048 32.8869 33.0964 32.8385C33.1447 32.7902 33.1719 32.7246 33.1719 32.6562V28.0156C33.1719 27.9646 33.1568 27.9148 33.1284 27.8724C33.1001 27.83 33.0599 27.797 33.0128 27.7775ZM32.6563 32.3984H32.1406V30.5052C32.139 29.8803 32.318 29.2683 32.6563 28.7428V32.3984Z" fill="white"/>
<path d="M32.9141 33.4297H31.8828C31.8145 33.4297 31.7489 33.4568 31.7005 33.5052C31.6522 33.5535 31.625 33.6191 31.625 33.6875V34.8072C31.6237 35.3037 31.7208 35.7954 31.9107 36.2541C32.1007 36.7127 32.3798 37.1291 32.7317 37.4791C32.7678 37.5152 32.8137 37.5398 32.8637 37.5497C32.9138 37.5597 32.9656 37.5546 33.0127 37.5351C33.0598 37.5156 33.1001 37.4825 33.1284 37.4401C33.1568 37.3977 33.1719 37.3479 33.1719 37.2969V33.6875C33.1719 33.6191 33.1447 33.5535 33.0964 33.5052C33.048 33.4568 32.9825 33.4297 32.9141 33.4297ZM32.6563 36.5697C32.318 36.0442 32.139 35.4322 32.1406 34.8072V33.9453H32.6563V36.5697Z" fill="white"/>
<path d="M31.073 28.7865C31.1265 28.7941 31.1812 28.7847 31.2291 28.7596C31.277 28.7345 31.3158 28.6949 31.34 28.6466L32.8869 25.5528C32.902 25.5225 32.9111 25.4895 32.9135 25.4558C32.9159 25.422 32.9116 25.3881 32.9009 25.356C32.8902 25.3238 32.8733 25.2941 32.8511 25.2686C32.8289 25.243 32.8019 25.222 32.7716 25.2069L31.5226 24.5823C30.2736 23.9579 28.8964 23.6328 27.5 23.6328C26.1036 23.6328 24.7264 23.9579 23.4774 24.5823L22.2285 25.2069C22.1982 25.222 22.1712 25.243 22.149 25.2686C22.1268 25.2941 22.1099 25.3238 22.0992 25.356C22.0885 25.3881 22.0842 25.422 22.0866 25.4558C22.089 25.4895 22.098 25.5225 22.1132 25.5528L23.66 28.6466C23.6842 28.6949 23.723 28.7345 23.771 28.7596C23.8189 28.7847 23.8735 28.7941 23.9271 28.7865L24.0264 28.7723C26.3305 28.443 28.6697 28.443 30.9737 28.7723L31.073 28.7865ZM27.5 28.0097C26.3419 28.0097 25.1852 28.09 24.0382 28.2499L22.6897 25.5528L23.7081 25.0436C24.8854 24.4549 26.1837 24.1484 27.5 24.1484C28.8164 24.1484 30.1146 24.4549 31.292 25.0436L32.3104 25.5528L30.9618 28.2499C29.8148 28.09 28.6581 28.0097 27.5 28.0097Z" fill="white"/>
<path d="M36.5234 28.2734C36.5918 28.2734 36.6574 28.2463 36.7057 28.1979C36.7541 28.1496 36.7812 28.084 36.7812 28.0156C36.7807 27.5372 36.5904 27.0784 36.2521 26.7401C35.9137 26.4018 35.455 26.2115 34.9766 26.2109H34.2031V19.8945C34.2021 18.9718 33.8351 18.0871 33.1826 17.4346C32.5301 16.7821 31.6454 16.4151 30.7227 16.4141H24.2773C23.3546 16.4151 22.4699 16.7821 21.8174 17.4346C21.1649 18.0871 20.7979 18.9718 20.7969 19.8945V26.2109H20.0234C19.545 26.2115 19.0863 26.4018 18.7479 26.7401C18.4096 27.0784 18.2193 27.5372 18.2188 28.0156C18.2188 28.084 18.2459 28.1496 18.2943 28.1979C18.3426 28.2463 18.4082 28.2734 18.4766 28.2734H20.7969V39.875C20.7977 40.6269 21.0968 41.3477 21.6284 41.8794C22.1601 42.411 22.8809 42.7101 23.6328 42.7109H31.3672C32.1191 42.7101 32.8399 42.411 33.3716 41.8794C33.9032 41.3477 34.2023 40.6269 34.2031 39.875V28.2734H36.5234ZM34.9766 26.7266C35.2736 26.7269 35.5615 26.8297 35.7916 27.0175C36.0217 27.2054 36.18 27.4668 36.2398 27.7578H34.2031V26.7266H34.9766ZM18.7602 27.7578C18.82 27.4668 18.9783 27.2054 19.2084 27.0175C19.4385 26.8297 19.7264 26.7269 20.0234 26.7266H20.7969V27.7578H18.7602ZM33.6875 39.875C33.6868 40.4902 33.4421 41.08 33.0071 41.515C32.5721 41.95 31.9824 42.1946 31.3672 42.1953H23.6328C23.0176 42.1946 22.4279 41.95 21.9929 41.515C21.5579 41.08 21.3132 40.4902 21.3125 39.875V19.8945C21.3134 19.1085 21.6261 18.3549 22.1819 17.7991C22.7377 17.2432 23.4913 16.9306 24.2773 16.9297H30.7227C31.5087 16.9306 32.2623 17.2432 32.8181 17.7991C33.3739 18.3549 33.6866 19.1085 33.6875 19.8945V39.875Z" fill="white"/>
<path d="M24.4062 29.8203C24.3379 29.8203 24.2723 29.8475 24.2239 29.8958C24.1756 29.9442 24.1484 30.0097 24.1484 30.0781V33.1719C24.1484 33.2403 24.1756 33.3058 24.2239 33.3542C24.2723 33.4025 24.3379 33.4297 24.4062 33.4297H30.5938C30.6621 33.4297 30.7277 33.4025 30.7761 33.3542C30.8244 33.3058 30.8516 33.2403 30.8516 33.1719V30.0781C30.8516 30.0097 30.8244 29.9442 30.7761 29.8958C30.7277 29.8475 30.6621 29.8203 30.5938 29.8203H24.4062ZM30.3359 32.9141H24.6641V30.3359H30.3359V32.9141Z" fill="white"/>
<path d="M22.3438 24.1484C22.4121 24.1484 22.4777 24.1213 22.5261 24.0729C22.5744 24.0246 22.6016 23.959 22.6016 23.8906V20.668C22.6021 20.2237 22.7788 19.7977 23.0929 19.4836C23.4071 19.1694 23.8331 18.9927 24.2773 18.9922H30.7227C31.1669 18.9927 31.5929 19.1694 31.9071 19.4836C32.2212 19.7977 32.3979 20.2237 32.3984 20.668V23.8906C32.3984 23.959 32.4256 24.0246 32.4739 24.0729C32.5223 24.1213 32.5879 24.1484 32.6562 24.1484C32.7246 24.1484 32.7902 24.1213 32.8386 24.0729C32.8869 24.0246 32.9141 23.959 32.9141 23.8906V20.668C32.9134 20.087 32.6823 19.53 32.2715 19.1191C31.8607 18.7083 31.3037 18.4772 30.7227 18.4766H24.2773C23.6963 18.4772 23.1393 18.7083 22.7285 19.1191C22.3177 19.53 22.0866 20.087 22.0859 20.668V23.8906C22.0859 23.959 22.1131 24.0246 22.1614 24.0729C22.2098 24.1213 22.2754 24.1484 22.3438 24.1484Z" fill="white"/>
<path d="M30.5938 17.9609H30.9876C31.2864 17.9599 31.5795 18.0426 31.8337 18.1997C32.0879 18.3568 32.2929 18.582 32.4256 18.8497C32.4562 18.9109 32.5098 18.9574 32.5747 18.979C32.6396 19.0006 32.7104 18.9956 32.7716 18.965C32.8327 18.9344 32.8792 18.8808 32.9009 18.8159C32.9225 18.751 32.9174 18.6802 32.8869 18.6191C32.7116 18.2655 32.4407 17.9682 32.105 17.7607C31.7693 17.5533 31.3822 17.444 30.9876 17.4453H30.5938C30.5254 17.4453 30.4598 17.4725 30.4114 17.5208C30.3631 17.5692 30.3359 17.6348 30.3359 17.7031C30.3359 17.7715 30.3631 17.8371 30.4114 17.8854C30.4598 17.9338 30.5254 17.9609 30.5938 17.9609Z" fill="white"/>
<path d="M22.2285 18.965C22.2588 18.9801 22.2917 18.9892 22.3255 18.9916C22.3593 18.994 22.3932 18.9897 22.4253 18.979C22.4574 18.9683 22.4871 18.9514 22.5127 18.9292C22.5383 18.907 22.5593 18.88 22.5744 18.8497C22.7071 18.582 22.9122 18.3568 23.1663 18.1997C23.4205 18.0426 23.7136 17.9599 24.0124 17.9609H24.4063C24.4747 17.9609 24.5402 17.9338 24.5886 17.8854C24.6369 17.8371 24.6641 17.7715 24.6641 17.7031C24.6641 17.6348 24.6369 17.5692 24.5886 17.5208C24.5402 17.4725 24.4747 17.4453 24.4063 17.4453H24.0124C23.6178 17.444 23.2307 17.5533 22.895 17.7607C22.5593 17.9682 22.2885 18.2655 22.1132 18.6191C22.098 18.6494 22.089 18.6823 22.0866 18.7161C22.0842 18.7499 22.0885 18.7838 22.0992 18.8159C22.1099 18.848 22.1268 18.8777 22.149 18.9033C22.1712 18.9289 22.1982 18.9499 22.2285 18.965Z" fill="white"/>
<path d="M32.6562 39.6172C32.5879 39.6172 32.5223 39.6443 32.4739 39.6927C32.4256 39.741 32.3984 39.8066 32.3984 39.875C32.398 40.2168 32.2621 40.5444 32.0204 40.7861C31.7788 41.0277 31.4511 41.1637 31.1094 41.1641C31.041 41.1641 30.9754 41.1912 30.9271 41.2396C30.8787 41.2879 30.8516 41.3535 30.8516 41.4219C30.8516 41.4903 30.8787 41.5558 30.9271 41.6042C30.9754 41.6525 31.041 41.6797 31.1094 41.6797C31.5878 41.6791 32.0466 41.4888 32.3849 41.1505C32.7232 40.8122 32.9135 40.3535 32.9141 39.875C32.9141 39.8066 32.8869 39.741 32.8386 39.6927C32.7902 39.6443 32.7246 39.6172 32.6562 39.6172Z" fill="white"/>
<path d="M23.8906 41.1641C23.5489 41.1637 23.2212 41.0277 22.9796 40.7861C22.7379 40.5444 22.602 40.2168 22.6016 39.875C22.6016 39.8066 22.5744 39.741 22.5261 39.6927C22.4777 39.6443 22.4121 39.6172 22.3438 39.6172C22.2754 39.6172 22.2098 39.6443 22.1614 39.6927C22.1131 39.741 22.0859 39.8066 22.0859 39.875C22.0865 40.3535 22.2768 40.8122 22.6151 41.1505C22.9534 41.4888 23.4122 41.6791 23.8906 41.6797C23.959 41.6797 24.0246 41.6525 24.0729 41.6042C24.1213 41.5558 24.1484 41.4903 24.1484 41.4219C24.1484 41.3535 24.1213 41.2879 24.0729 41.2396C24.0246 41.1912 23.959 41.1641 23.8906 41.1641Z" fill="white"/>
<path d="M27.4961 15.8984C27.6385 15.8984 27.7539 15.783 27.7539 15.6406C27.7539 15.4982 27.6385 15.3828 27.4961 15.3828C27.3537 15.3828 27.2383 15.4982 27.2383 15.6406C27.2383 15.783 27.3537 15.8984 27.4961 15.8984Z" fill="white"/>
<path d="M28.225 15.1693C28.276 15.1693 28.3259 15.1541 28.3683 15.1258C28.4107 15.0975 28.4437 15.0572 28.4632 15.0101C28.4827 14.963 28.4878 14.9111 28.4779 14.8611C28.4679 14.8111 28.4434 14.7652 28.4073 14.7291C28.1655 14.4874 27.8377 14.3516 27.4958 14.3516C27.1539 14.3516 26.826 14.4874 26.5843 14.7291C26.536 14.7775 26.5088 14.843 26.5088 14.9114C26.5088 14.9798 26.536 15.0454 26.5843 15.0937C26.6327 15.1421 26.6982 15.1692 26.7666 15.1692C26.835 15.1692 26.9006 15.1421 26.9489 15.0937C27.094 14.9487 27.2907 14.8672 27.4958 14.8672C27.7009 14.8672 27.8976 14.9487 28.0427 15.0937C28.0666 15.1177 28.095 15.1367 28.1263 15.1497C28.1576 15.1626 28.1912 15.1693 28.225 15.1693Z" fill="white"/>
<path d="M29.1372 14.3644C29.1856 14.3161 29.2127 14.2505 29.2127 14.1822C29.2127 14.1138 29.1856 14.0482 29.1372 13.9999C28.7021 13.5648 28.1119 13.3203 27.4966 13.3203C26.8812 13.3203 26.291 13.5648 25.8559 13.9999C25.8315 14.0237 25.8121 14.0522 25.7988 14.0836C25.7855 14.115 25.7785 14.1487 25.7783 14.1828C25.7781 14.2169 25.7847 14.2507 25.7977 14.2822C25.8106 14.3138 25.8297 14.3424 25.8538 14.3665C25.878 14.3906 25.9066 14.4097 25.9382 14.4227C25.9697 14.4356 26.0035 14.4422 26.0376 14.442C26.0717 14.4418 26.1054 14.4349 26.1368 14.4216C26.1682 14.4082 26.1966 14.3888 26.2205 14.3644C26.3881 14.1968 26.587 14.0639 26.806 13.9732C27.025 13.8825 27.2596 13.8358 27.4967 13.8358C27.7337 13.8358 27.9684 13.8825 28.1873 13.9732C28.4063 14.0639 28.6052 14.1968 28.7728 14.3644C28.8212 14.4127 28.8867 14.4399 28.955 14.4399C29.0234 14.4399 29.0889 14.4127 29.1372 14.3644Z" fill="white"/>
<path d="M25.491 13.6353C25.7543 13.3719 26.0669 13.163 26.411 13.0205C26.7551 12.878 27.1239 12.8046 27.4963 12.8046C27.8687 12.8046 28.2375 12.878 28.5816 13.0205C28.9256 13.163 29.2383 13.3719 29.5016 13.6353C29.5255 13.6597 29.5539 13.6791 29.5853 13.6924C29.6167 13.7057 29.6504 13.7126 29.6845 13.7128C29.7186 13.713 29.7524 13.7064 29.7839 13.6935C29.8155 13.6805 29.8441 13.6614 29.8682 13.6373C29.8924 13.6132 29.9114 13.5845 29.9244 13.553C29.9374 13.5215 29.9439 13.4877 29.9437 13.4536C29.9435 13.4195 29.9366 13.3857 29.9233 13.3543C29.91 13.323 29.8905 13.2945 29.8662 13.2707C29.2376 12.6422 28.3852 12.2891 27.4963 12.2891C26.6074 12.2891 25.7549 12.6422 25.1264 13.2707C25.102 13.2945 25.0826 13.323 25.0693 13.3543C25.056 13.3857 25.049 13.4195 25.0488 13.4536C25.0486 13.4877 25.0552 13.5215 25.0682 13.553C25.0811 13.5845 25.1002 13.6132 25.1243 13.6373C25.1484 13.6614 25.1771 13.6805 25.2086 13.6935C25.2402 13.7064 25.274 13.713 25.3081 13.7128C25.3422 13.7126 25.3759 13.7057 25.4073 13.6924C25.4387 13.6791 25.4671 13.6597 25.491 13.6353Z" fill="white"/>
<path d="M35.3367 34.461C35.3739 34.461 35.4107 34.4529 35.4446 34.4373C35.4784 34.4218 35.5085 34.399 35.5327 34.3707C37.1702 32.456 38.07 30.0194 38.07 27.5C38.07 24.9806 37.1702 22.544 35.5327 20.6293C35.4877 20.5791 35.4249 20.5484 35.3577 20.5439C35.2904 20.5394 35.2241 20.5614 35.1729 20.6053C35.1216 20.6491 35.0896 20.7112 35.0837 20.7784C35.0777 20.8455 35.0983 20.9123 35.141 20.9645C36.6986 22.7858 37.5546 25.1035 37.5546 27.5C37.5546 29.8966 36.6986 32.2143 35.141 34.0356C35.109 34.073 35.0883 34.1188 35.0816 34.1676C35.0748 34.2164 35.0821 34.2661 35.1027 34.3109C35.1233 34.3556 35.1563 34.3936 35.1977 34.4202C35.2392 34.4468 35.2874 34.4609 35.3367 34.461Z" fill="white"/>
<path d="M19.467 20.6293C17.8295 22.544 16.9297 24.9806 16.9297 27.5C16.9297 30.0194 17.8295 32.456 19.467 34.3707C19.5119 34.421 19.5747 34.4516 19.642 34.4561C19.7092 34.4606 19.7756 34.4386 19.8268 34.3948C19.878 34.351 19.91 34.2888 19.916 34.2217C19.9219 34.1545 19.9014 34.0877 19.8587 34.0356C18.301 32.2143 17.4451 29.8966 17.4451 27.5C17.4451 25.1035 18.301 22.7858 19.8587 20.9645C19.9014 20.9123 19.9219 20.8455 19.916 20.7784C19.91 20.7112 19.878 20.6491 19.8268 20.6053C19.7756 20.5614 19.7092 20.5394 19.642 20.5439C19.5747 20.5484 19.5119 20.5791 19.467 20.6293Z" fill="white"/>
<path d="M35.0294 37.9672C35.0704 38.0219 35.1315 38.058 35.1992 38.0677C35.2669 38.0774 35.3356 38.0598 35.3904 38.0187C36.9929 36.8122 38.3011 35.258 39.2165 33.473C40.1577 31.6227 40.6483 29.5761 40.6483 27.5001C40.6483 25.4242 40.1577 23.3776 39.2165 21.5273C38.3012 19.7422 36.993 18.1879 35.3904 16.9812C35.3356 16.9402 35.2669 16.9225 35.1991 16.9321C35.1314 16.9418 35.0703 16.9779 35.0292 17.0326C34.9881 17.0873 34.9705 17.1561 34.9801 17.2238C34.9897 17.2915 35.0259 17.3527 35.0806 17.3937C36.6492 18.5707 37.9223 20.0966 38.7991 21.8507C39.676 23.6048 40.1325 25.5389 40.1325 27.5C40.1325 29.461 39.676 31.3952 38.7991 33.1493C37.9223 34.9034 36.6492 36.4293 35.0806 37.6062C35.0259 37.6473 34.9899 37.7084 34.9803 37.7761C34.9707 37.8438 34.9883 37.9125 35.0294 37.9672Z" fill="white"/>
<path d="M19.9705 17.0328C19.9501 17.0057 19.9247 16.9829 19.8956 16.9657C19.8664 16.9484 19.8342 16.9371 19.8007 16.9323C19.7672 16.9275 19.733 16.9294 19.7002 16.9378C19.6674 16.9462 19.6366 16.9609 19.6095 16.9813C18.0069 18.1879 16.6988 19.7421 15.7834 21.5271C14.8422 23.3775 14.3516 25.424 14.3516 27.5C14.3516 29.576 14.8422 31.6225 15.7834 33.4729C16.6988 35.2579 18.0069 36.8121 19.6095 38.0188C19.6642 38.0598 19.733 38.0775 19.8007 38.0678C19.8684 38.0582 19.9296 38.022 19.9706 37.9673C20.0117 37.9126 20.0293 37.8439 20.0197 37.7762C20.0101 37.7084 19.9739 37.6473 19.9192 37.6062C18.3506 36.4293 17.0775 34.9034 16.2007 33.1493C15.3239 31.3952 14.8674 29.461 14.8674 27.5C14.8674 25.539 15.3239 23.6048 16.2007 21.8507C17.0775 20.0966 18.3506 18.5707 19.9192 17.3937C19.9739 17.3527 20.01 17.2916 20.0196 17.2239C20.0292 17.1562 20.0115 17.0875 19.9705 17.0328Z" fill="white"/>
<path d="M40.6915 19.675C39.4196 17.3803 37.5898 15.4433 35.3711 14.0431C35.3424 14.0246 35.3104 14.012 35.2768 14.006C35.2432 14 35.2087 14.0007 35.1754 14.0081C35.1421 14.0155 35.1106 14.0295 35.0827 14.0492C35.0548 14.0689 35.0312 14.0939 35.013 14.1228C34.9949 14.1517 34.9827 14.1839 34.9771 14.2176C34.9715 14.2513 34.9727 14.2857 34.9805 14.3189C34.9883 14.3521 35.0027 14.3835 35.0227 14.4111C35.0427 14.4387 35.068 14.4621 35.0972 14.4799C39.5417 17.2676 42.1951 22.1424 42.1951 27.5201C42.1951 32.8977 39.5417 37.7724 35.0972 40.5602C35.068 40.5779 35.0427 40.6013 35.0227 40.6289C35.0027 40.6566 34.9883 40.6879 34.9805 40.7211C34.9727 40.7543 34.9715 40.7888 34.9771 40.8224C34.9827 40.8561 34.9949 40.8883 35.013 40.9172C35.0312 40.9461 35.0548 40.9712 35.0827 40.9909C35.1106 41.0105 35.1421 41.0245 35.1754 41.0319C35.2087 41.0393 35.2432 41.0401 35.2768 41.0341C35.3104 41.0281 35.3424 41.0155 35.3711 40.997C37.5898 39.5967 39.4196 37.6598 40.6915 35.3651C42.016 32.9625 42.7107 30.2636 42.7107 27.52C42.7107 24.7765 42.016 22.0776 40.6915 19.675Z" fill="white"/>
<path d="M19.9026 40.5602C15.4581 37.7724 12.8047 32.8976 12.8047 27.5201C12.8047 22.1426 15.4581 17.2676 19.9026 14.4799C19.9317 14.4621 19.957 14.4387 19.9771 14.4111C19.9971 14.3835 20.0114 14.3521 20.0193 14.3189C20.0271 14.2857 20.0282 14.2513 20.0227 14.2176C20.0171 14.1839 20.0049 14.1517 19.9867 14.1228C19.9686 14.0939 19.9449 14.0689 19.917 14.0492C19.8892 14.0295 19.8577 14.0155 19.8244 14.0081C19.7911 14.0007 19.7566 14 19.723 14.006C19.6894 14.012 19.6573 14.0246 19.6287 14.0431C17.41 15.4433 15.5802 17.3803 14.3083 19.675C12.9837 22.0776 12.2891 24.7765 12.2891 27.52C12.2891 30.2636 12.9837 32.9625 14.3083 35.3651C15.5802 37.6598 17.41 39.5967 19.6287 40.997C19.6573 41.0155 19.6894 41.0281 19.723 41.0341C19.7566 41.0401 19.7911 41.0393 19.8244 41.0319C19.8577 41.0245 19.8892 41.0105 19.917 40.9909C19.9449 40.9712 19.9686 40.9461 19.9867 40.9172C20.0049 40.8883 20.0171 40.8561 20.0227 40.8224C20.0282 40.7888 20.0271 40.7543 20.0193 40.7211C20.0114 40.6879 19.9971 40.6566 19.9771 40.6289C19.957 40.6013 19.9317 40.5779 19.9026 40.5602Z" fill="white"/>
</svg>
