<svg width="55" height="55" viewBox="0 0 55 55" fill="none" xmlns="http://www.w3.org/2000/svg">
<circle cx="27.5" cy="27.5" r="27.5" fill="#615AE4"/>
<path d="M35.645 30.1666C35.3883 30.1666 35.12 30.085 34.8633 30.0266C34.344 29.9105 33.8333 29.7585 33.335 29.5716C32.7938 29.3747 32.1989 29.385 31.6647 29.6004C31.1306 29.8157 30.6949 30.2211 30.4417 30.7383L30.185 31.275C29.052 30.6324 28.0052 29.8483 27.07 28.9416C26.1633 28.0064 25.3793 26.9597 24.7367 25.8266L25.2734 25.5816C25.7906 25.3284 26.1959 24.8928 26.4113 24.3586C26.6267 23.8245 26.6369 23.2295 26.44 22.6883C26.2547 22.1855 26.1027 21.6711 25.985 21.1483C25.9267 20.8916 25.88 20.6233 25.845 20.3666C25.7033 19.5449 25.2729 18.8007 24.6312 18.2681C23.9896 17.7355 23.1788 17.4495 22.345 17.4616H18.8334C18.3401 17.461 17.8524 17.5646 17.402 17.7657C16.9516 17.9667 16.5488 18.2607 16.22 18.6283C15.8844 19.0059 15.6345 19.4517 15.4875 19.935C15.3405 20.4184 15.2998 20.9278 15.3684 21.4283C16.0025 26.2841 18.2211 30.7951 21.68 34.2616C25.1466 37.7206 29.6575 39.9391 34.5133 40.5733C34.6648 40.5849 34.8169 40.5849 34.9683 40.5733C35.8287 40.5746 36.6593 40.2589 37.3017 39.6866C37.6693 39.3578 37.9633 38.955 38.1643 38.5047C38.3654 38.0543 38.469 37.5665 38.4683 37.0733V33.5733C38.4621 32.7672 38.1777 31.9879 37.6633 31.3673C37.1489 30.7466 36.436 30.3225 35.645 30.1666ZM36.2167 37.1666C36.2163 37.3294 36.1818 37.4904 36.1155 37.6391C36.0492 37.7877 35.9525 37.9209 35.8317 38.03C35.7038 38.1465 35.5516 38.2331 35.3862 38.2835C35.2207 38.334 35.0461 38.347 34.875 38.3216C30.5213 37.753 26.4753 35.769 23.36 32.675C20.2421 29.557 18.2407 25.4969 17.6667 21.125C17.6413 20.9539 17.6544 20.7793 17.7048 20.6138C17.7552 20.4483 17.8419 20.2962 17.9584 20.1683C18.0687 20.046 18.2038 19.9484 18.3546 19.8821C18.5054 19.8157 18.6686 19.7821 18.8334 19.7833H22.3334C22.603 19.7767 22.8667 19.8638 23.0794 20.0297C23.2921 20.1956 23.4407 20.4301 23.5 20.6933C23.5 21.0083 23.605 21.335 23.675 21.65C23.8099 22.2612 23.9892 22.8616 24.2117 23.4466L22.5784 24.2166C22.2976 24.3455 22.0794 24.5805 21.9717 24.87C21.855 25.154 21.855 25.4726 21.9717 25.7566C23.6508 29.3532 26.5418 32.2442 30.1383 33.9233C30.4224 34.04 30.741 34.04 31.025 33.9233C31.3145 33.8156 31.5495 33.5974 31.6784 33.3166L32.4133 31.6833C33.0152 31.9028 33.631 32.0821 34.2567 32.22C34.56 32.29 34.8867 32.3483 35.2017 32.395C35.4649 32.4542 35.6994 32.6029 35.8653 32.8156C36.0312 33.0283 36.1183 33.292 36.1117 33.5616L36.2167 37.1666ZM29.3334 17.3333C29.065 17.3333 28.785 17.3333 28.5167 17.3333C28.2073 17.3596 27.921 17.5078 27.7208 17.7451C27.5206 17.9825 27.4229 18.2897 27.4492 18.5991C27.4755 18.9086 27.6236 19.1949 27.861 19.3951C28.0984 19.5953 28.4056 19.6929 28.715 19.6666H29.3334C31.1899 19.6666 32.9703 20.4041 34.2831 21.7169C35.5959 23.0297 36.3333 24.8101 36.3333 26.6666C36.3333 26.8766 36.3333 27.075 36.3333 27.285C36.3075 27.5928 36.4047 27.8982 36.6037 28.1344C36.8028 28.3706 37.0873 28.5183 37.395 28.545H37.4883C37.7804 28.5462 38.0623 28.4378 38.2783 28.2412C38.4943 28.0446 38.6287 27.7742 38.655 27.4833C38.655 27.215 38.655 26.935 38.655 26.6666C38.655 24.1933 37.6733 21.8211 35.9255 20.0711C34.1777 18.3211 31.8067 17.3364 29.3334 17.3333ZM31.6667 26.6666C31.6667 26.9761 31.7896 27.2728 32.0084 27.4916C32.2272 27.7104 32.5239 27.8333 32.8333 27.8333C33.1428 27.8333 33.4395 27.7104 33.6583 27.4916C33.8771 27.2728 34 26.9761 34 26.6666C34 25.429 33.5084 24.242 32.6332 23.3668C31.758 22.4916 30.571 22 29.3334 22C29.0239 22 28.7272 22.1229 28.5084 22.3417C28.2896 22.5605 28.1667 22.8572 28.1667 23.1666C28.1667 23.4761 28.2896 23.7728 28.5084 23.9916C28.7272 24.2104 29.0239 24.3333 29.3334 24.3333C29.9522 24.3333 30.5457 24.5791 30.9833 25.0167C31.4209 25.4543 31.6667 26.0478 31.6667 26.6666Z" fill="white"/>
</svg>
