<svg width="55" height="55" viewBox="0 0 55 55" fill="none" xmlns="http://www.w3.org/2000/svg">
<circle cx="27.5" cy="27.5" r="27.5" fill="#615AE4"/>
<g clip-path="url(#clip0_967_332)">
<path d="M38.6667 11C35.7259 11 33.3334 13.3926 33.3334 16.3333C33.3334 18.8842 37.1127 24.047 37.9982 25.2221C37.9979 25.6016 37.9982 25.9743 37.989 26.3164C37.9792 26.6842 38.2696 26.9909 38.6381 27.0006C38.6439 27.0006 38.6498 27.0006 38.6563 27.0006C39.0157 27.0006 39.3126 26.7135 39.3223 26.3516C39.3315 26.0006 39.3312 25.6174 39.3315 25.2271C40.2111 24.0601 44 18.8872 44 16.3333C44 13.3926 41.6074 11 38.6667 11ZM38.6667 23.8841C37.2012 21.8679 34.6667 18.0306 34.6667 16.3333C34.6667 14.1276 36.4609 12.3333 38.6667 12.3333C40.8724 12.3333 42.6667 14.1276 42.6667 16.3333C42.6667 18.0306 40.1322 21.8678 38.6667 23.8841Z" fill="white"/>
<path d="M38.6667 15C37.9317 15 37.3334 15.5983 37.3334 16.3333C37.3334 17.0683 37.9317 17.6666 38.6667 17.6666C39.4017 17.6666 40 17.0684 40 16.3333C40 15.5983 39.4017 15 38.6667 15Z" fill="white"/>
<path d="M20 25.6667C17.7943 25.6667 16 27.461 16 29.6667C16 31.8725 17.7943 33.6667 20 33.6667C22.2057 33.6667 24 31.8725 24 29.6667C24 27.461 22.2057 25.6667 20 25.6667ZM20 32.3334C18.5293 32.3334 17.3333 31.1374 17.3333 29.6667C17.3333 28.1959 18.5293 27.0001 20 27.0001C21.4707 27.0001 22.6667 28.196 22.6667 29.6667C22.6667 31.1375 21.4707 32.3334 20 32.3334Z" fill="white"/>
<path d="M30.0983 35.0274C29.7532 34.8933 29.3691 35.0645 29.2357 35.4083C28.9369 36.1804 28.5632 37.0808 28.0592 37.9056C27.8672 38.2201 27.9668 38.6303 28.2806 38.8223C28.3894 38.8888 28.5091 38.92 28.6276 38.92C28.8522 38.92 29.0716 38.8067 29.1973 38.601C29.7559 37.6856 30.1589 36.7169 30.4792 35.8901C30.612 35.5469 30.4414 35.1608 30.0983 35.0274Z" fill="white"/>
<path d="M26.3392 39.8926C25.6712 40.4219 24.9121 40.8204 24.0176 41.1114C23.6673 41.2253 23.4759 41.6016 23.5898 41.9519C23.6816 42.2331 23.9427 42.4122 24.2239 42.4122C24.2923 42.4122 24.3619 42.4017 24.4303 42.3796C25.4635 42.0437 26.3841 41.5587 27.1673 40.9382C27.4558 40.709 27.5046 40.2897 27.2761 40.0013C27.0456 39.7136 26.6269 39.6622 26.3392 39.8926Z" fill="white"/>
<path d="M32.4063 30.2142C31.306 30.8386 30.6947 31.9225 30.3301 32.6829C30.1706 33.015 30.3105 33.4134 30.6426 33.5723C30.7357 33.6172 30.834 33.638 30.9303 33.638C31.179 33.638 31.4173 33.4987 31.5319 33.2598C31.9948 32.2943 32.4674 31.7129 33.0651 31.373C33.3848 31.1914 33.4974 30.7844 33.3151 30.4641C33.1341 30.1439 32.7285 30.0313 32.4063 30.2142Z" fill="white"/>
<path d="M38.4193 28.5638C38.1165 28.3588 37.7005 28.4375 37.4934 28.7422C37.2741 29.0665 36.8248 29.5124 35.4661 29.6342C35.0995 29.6673 34.8287 29.9909 34.8619 30.3581C34.8931 30.7045 35.1841 30.9648 35.5253 30.9648C35.5455 30.9648 35.5657 30.9642 35.5859 30.9622C37.0293 30.8327 38.0143 30.3509 38.5976 29.4895C38.8041 29.1849 38.7239 28.7702 38.4193 28.5638Z" fill="white"/>
<path d="M21.5797 41.6754C23.6832 39.4321 28 34.2714 28 29.6667C28 25.1811 24.4857 21.6667 20 21.6667C15.5143 21.6667 12 25.1811 12 29.6667C12 35.6205 19.2344 42.5267 19.5423 42.8178C19.6706 42.9396 19.8353 43.0001 20 43.0001C20.4857 43.0001 20.9473 42.9832 21.3848 42.95C21.7519 42.922 22.0273 42.6023 21.9993 42.2351C21.9793 41.9723 21.8092 41.7674 21.5797 41.6754ZM20 41.3933C18.4251 39.7866 13.3333 34.2371 13.3333 29.6667C13.3333 25.9284 16.2618 23.0001 20 23.0001C23.7382 23.0001 26.6667 25.9284 26.6667 29.6667C26.6667 34.2371 21.5749 39.7865 20 41.3933Z" fill="white"/>
</g>
<defs>
<clipPath id="clip0_967_332">
<rect width="32" height="32" fill="white" transform="translate(12 11)"/>
</clipPath>
</defs>
</svg>
