<svg width="17" height="17" viewBox="0 0 17 17" fill="none" xmlns="http://www.w3.org/2000/svg">
<path d="M14.7032 11.5459C15.0395 10.9294 15.4921 10.2651 16.2753 10.2583C16.4861 9.11759 16.4433 7.94442 16.15 6.82205C15.8566 5.69968 15.3199 4.6556 14.5779 3.76388C13.8359 2.87216 12.9067 2.15464 11.8563 1.66222C10.806 1.1698 9.66011 0.914534 8.50004 0.914536C7.33997 0.914537 6.1941 1.1698 5.14373 1.66223C4.09336 2.15466 3.16421 2.87218 2.42218 3.7639C1.68016 4.65562 1.14344 5.6997 0.8501 6.82207C0.55676 7.94444 0.513982 9.11761 0.724802 10.2584C0.973869 10.2702 1.21626 10.3428 1.43078 10.4699C1.6453 10.597 1.82543 10.7747 1.95542 10.9875C2.17392 11.3354 3.2913 13.1458 3.53466 13.5342C3.97549 14.1236 4.25611 14.8172 4.34919 15.5473C5.59835 16.3148 7.03574 16.7211 8.50181 16.7211C9.96787 16.721 11.4053 16.3148 12.6544 15.5473C12.7573 14.8029 13.0473 14.0968 13.4974 13.4951L14.7032 11.5459ZM8.50002 3.12328C9.7864 3.12429 11.0346 3.56023 12.042 4.36028C13.0493 5.16033 13.7565 6.27747 14.0487 7.53022C13.8236 7.56538 13.5944 7.56538 13.3693 7.53022C13.0631 7.48096 12.7695 7.37221 12.505 7.2101C11.2786 6.63478 9.9402 6.33771 8.58556 6.34017C7.23093 6.34263 5.89359 6.64455 4.66929 7.22432C4.06804 7.54599 3.67515 7.61382 3.23233 7.42354C3.16946 7.38806 3.07652 7.33235 3.01506 7.30083C3.34625 6.10027 4.06212 5.04149 5.05289 4.28688C6.04366 3.53228 7.25461 3.12352 8.50002 3.12328ZM3.10799 10.656C3.08593 10.5815 3.08286 10.5027 3.09908 10.4267C3.1153 10.3508 3.15028 10.28 3.20084 10.2211C3.2514 10.1621 3.31592 10.1167 3.38852 10.089C3.46112 10.0614 3.53949 10.0523 3.61648 10.0627L4.29938 9.988C4.51279 9.96383 4.72882 9.99536 4.92641 10.0795C5.12401 10.1637 5.29644 10.2976 5.4269 10.4682L6.55088 11.93C6.84202 12.2466 6.90762 13.2316 7.00616 13.6302C7.01995 13.7079 7.01264 13.7879 6.98498 13.8618C6.95733 13.9357 6.91035 14.0008 6.84894 14.0503C6.78753 14.0999 6.71395 14.1321 6.63587 14.1435C6.55779 14.1549 6.47808 14.1451 6.40506 14.1152C5.63842 13.8107 4.94677 13.3439 4.37764 12.7468C3.80851 12.1496 3.37537 11.4364 3.10799 10.656ZM8.50002 11.055C8.06554 11.0516 7.65004 10.8765 7.34404 10.5681C7.03804 10.2596 6.86634 9.8427 6.86634 9.40821C6.86635 8.97371 7.03806 8.55683 7.34406 8.24837C7.65007 7.93991 8.06557 7.76488 8.50006 7.7614C8.93454 7.76489 9.35004 7.93993 9.65604 8.24839C9.96204 8.55686 10.1337 8.97375 10.1337 9.40824C10.1337 9.84274 9.96202 10.2596 9.65601 10.5681C9.35001 10.8765 8.9345 11.0516 8.50002 11.055ZM10.595 14.1152C10.522 14.1451 10.4423 14.1549 10.3642 14.1434C10.2861 14.132 10.2125 14.0999 10.1511 14.0503C10.0897 14.0008 10.0427 13.9356 10.0151 13.8617C9.98742 13.7878 9.98011 13.7079 9.9939 13.6302C10.0928 13.226 10.1608 12.2511 10.4456 11.93L11.5731 10.4681C11.7036 10.2975 11.876 10.1636 12.0736 10.0795C12.2712 9.99534 12.4873 9.96381 12.7007 9.98798C12.796 9.99867 13.4429 10.0687 13.5237 10.0786C13.589 10.086 13.6517 10.1079 13.7074 10.1426C13.7631 10.1774 13.8103 10.2241 13.8456 10.2795C13.8809 10.3348 13.9034 10.3973 13.9114 10.4625C13.9195 10.5276 13.9128 10.5938 13.8921 10.656C13.6247 11.4364 13.1915 12.1496 12.6224 12.7468C12.0533 13.3439 11.3616 13.8107 10.595 14.1152Z" fill="white"/>
</svg>
