<svg width="35" height="35" viewBox="0 0 35 35" fill="none" xmlns="http://www.w3.org/2000/svg">
<ellipse cx="17.5607" cy="17.5" rx="17.3583" ry="17.5" fill="#FCB632"/>
<path d="M17.2024 9C12.2396 9 8.20239 13.0372 8.20239 18C8.20239 22.9628 12.2396 27 17.2024 27C22.1644 27 26.2024 22.9628 26.2024 18C26.2024 13.0372 22.1644 9 17.2024 9ZM20.2024 13.5C21.0304 13.5 21.7024 14.1712 21.7024 15C21.7024 15.828 21.0304 16.5 20.2024 16.5C19.3736 16.5 18.7024 15.828 18.7024 15C18.7024 14.1712 19.3736 13.5 20.2024 13.5ZM14.2024 13.5C15.0304 13.5 15.7024 14.1712 15.7024 15C15.7024 15.828 15.0304 16.5 14.2024 16.5C13.3737 16.5 12.7024 15.828 12.7024 15C12.7024 14.1712 13.3736 13.5 14.2024 13.5ZM21.6882 22.449C21.3027 22.5975 20.8676 22.4032 20.7199 22.0162C20.1537 20.535 18.7069 19.5 17.2024 19.5C15.6964 19.5 14.2497 20.535 13.6834 22.0178C13.5694 22.317 13.2844 22.5008 12.9829 22.5008C12.8937 22.5008 12.8037 22.4843 12.7159 22.4505C12.3289 22.3035 12.1347 21.87 12.2824 21.483C13.0646 19.4325 15.0881 18 17.2024 18C19.3151 18 21.3379 19.4317 22.1209 21.4808C22.2687 21.8678 22.0752 22.3013 21.6882 22.449Z" fill="white"/>
</svg>
