<svg width="35" height="35" viewBox="0 0 35 35" fill="none" xmlns="http://www.w3.org/2000/svg">
<circle cx="17.5" cy="17.5" r="17.5" fill="#00AA63"/>
<g clip-path="url(#clip0_722_1071)">
<path d="M14.8172 15.0479C16.3788 15.0479 17.6447 13.8107 17.6447 12.2847C17.6447 10.7586 16.3788 9.52143 14.8172 9.52143C13.2557 9.52143 11.9897 10.7586 11.9897 12.2847C11.9897 13.8107 13.2557 15.0479 14.8172 15.0479Z" fill="white"/>
<path d="M22.6382 16.8588C20.0546 16.8588 17.9526 18.9129 17.9526 21.4378C17.9526 23.9627 20.0546 26.017 22.6382 26.017C25.2219 26.017 27.3239 23.9628 27.3239 21.4378C27.3239 18.9129 25.2219 16.8588 22.6382 16.8588ZM24.3857 23.6626L22.6382 22.8993L20.8908 23.6626L21.0936 21.8025L19.8108 20.4142L21.6836 20.0279L22.6382 18.4067L23.5929 20.0279L25.4657 20.4142L24.1829 21.8025L24.3857 23.6626Z" fill="white"/>
<path d="M14.8172 16.4295C11.9868 16.4295 9.69238 18.6718 9.69238 21.4378H16.5389C16.5389 19.9473 17.1016 18.5829 18.0303 17.5367C17.1513 16.8443 16.034 16.4295 14.8172 16.4295Z" fill="white"/>
</g>
<defs>
<clipPath id="clip0_722_1071">
<rect width="17.6315" height="17.2308" fill="white" transform="translate(9.69238 9.15383)"/>
</clipPath>
</defs>
</svg>
