<svg width="556" height="120" viewBox="0 0 556 120" fill="none" xmlns="http://www.w3.org/2000/svg">
<ellipse cx="64.1985" cy="59.1" rx="55.8015" ry="54.2999" fill="#FFFF01"/>
<ellipse cx="55.8015" cy="62.6998" rx="55.8015" ry="54.2999" fill="#FFFF01"/>
<ellipse cx="59.9983" cy="65.6998" rx="55.8015" ry="54.2999" fill="#FFFF01"/>
<path d="M113.4 57.2999C113.4 87.2889 88.4167 111.6 57.5984 111.6C26.7801 111.6 1.79688 87.2889 1.79688 57.2999C1.79688 27.3109 26.7801 3 57.5984 3C88.4167 3 113.4 27.3109 113.4 57.2999Z" fill="#FFFF01"/>
<path d="M4.0877 41.6665C23.6566 39.134 72.274 35.371 117.167 41.4489C119.239 45.501 119.757 52.7998 119.757 55.7998C79.6987 59.1764 72.2879 99.0924 73.439 118.508C62.3884 121.21 50.9924 119.634 46.6757 118.508C47.3664 70.5596 16.4311 56.6439 0.603315 55.7998C0.245931 51.0596 2.7149 44.6998 4.0877 41.6665Z" fill="black"/>
<path d="M110.104 28.1997L10.3418 28.3332C15.4408 19.19 32.4376 0.726702 59.6325 0.0188437C86.8274 -0.689014 104.722 18.4667 110.104 28.1997Z" fill="black"/>
<path d="M81.7489 115.799C79.7348 101.534 85.4387 72.3561 117.894 68.9995C118.181 79.0694 110.061 102.373 81.7489 115.799Z" fill="black"/>
<path d="M60.4888 81.0476C70.2858 81.0476 78.252 73.3228 78.252 63.7644C78.252 54.206 70.2858 46.4812 60.4888 46.4812C50.6918 46.4812 42.7256 54.206 42.7256 63.7644C42.7256 73.3228 50.6918 81.0476 60.4888 81.0476Z" fill="#FFFF01" stroke="#FFFF01"/>
<path d="M34.5984 114.114C36.6122 99.8483 32.5271 70.4777 0.0768738 67.1211C-0.210804 77.191 6.29076 100.687 34.5984 114.114Z" fill="black"/>
<path d="M81.6166 115.8C80.3153 101.107 86.2424 71.0567 119.154 68.3999C118.053 79.6712 108.763 104.931 81.6166 115.8Z" fill="black" stroke="black" stroke-width="0.1"/>
<path d="M150 98.3403V43.2597C156.345 38.6116 172.421 32.3831 185.957 44.6542V98.3403" stroke="#615AE4" stroke-width="9"/>
<path d="M368.511 37.4893V103" stroke="#615AE4" stroke-width="9"/>
<path d="M391 37L414.652 92L439 37" stroke="#615AE4" stroke-width="9"/>
<path d="M322.872 22.2766V39.0246M322.872 39.0246H347.054M322.872 39.0246V85.7794C322.872 90.1991 325.006 98.3404 333.541 98.3404C342.095 98.3404 346.343 98.3404 347.766 98.3404" stroke="#615AE4" stroke-width="9"/>
<circle cx="368.512" cy="26.2777" r="5.15" fill="#615AE4"/>
<path d="M550.572 37.3618V99.5959" stroke="#FFCF24" stroke-width="9"/>
<circle cx="550.573" cy="26.15" r="5.15" fill="#FFCF24"/>
<path d="M480.04 44.9679C486.263 39.6665 501.061 30.8615 515.997 43.5849C517.38 44.9679 520.838 49.1168 520.838 53.2657V66.404M520.838 66.404V93.3721C510.88 98.904 495.253 98.2126 489.029 95.4466C484.071 93.2432 476.15 88.9215 480.04 74.0104C484.189 58.1062 509.774 63.6381 520.838 66.404Z" stroke="#FFCF24" stroke-width="9"/>
<rect x="250.958" y="37.4893" width="45.6383" height="60.8511" rx="22.8191" stroke="#615AE4" stroke-width="9"/>
<path d="M185.266 44.4041C190.337 39.3332 204.075 32.0956 218.458 43.7127C220.071 45.0956 223.298 48.8297 223.298 52.702C223.298 56.5744 223.298 84.741 223.298 98.3403" stroke="#615AE4" stroke-width="9"/>
</svg>
