<svg width="35" height="35" viewBox="0 0 35 35" fill="none" xmlns="http://www.w3.org/2000/svg">
<g clip-path="url(#clip0_725_1493)">
<path d="M17.5 0C7.85021 0 0 7.85021 0 17.5C0 27.1498 7.85021 35 17.5 35C27.1498 35 35 27.1498 35 17.5C35 7.85021 27.1498 0 17.5 0ZM23.3333 24.7917H11.6667C10.8617 24.7917 10.2083 24.1383 10.2083 23.3333C10.2083 22.5283 10.8617 21.875 11.6667 21.875H23.3333C24.1383 21.875 24.7917 22.5283 24.7917 23.3333C24.7917 24.1383 24.1383 24.7917 23.3333 24.7917ZM23.3333 18.9583H11.6667C10.8617 18.9583 10.2083 18.305 10.2083 17.5C10.2083 16.695 10.8617 16.0417 11.6667 16.0417H23.3333C24.1383 16.0417 24.7917 16.695 24.7917 17.5C24.7917 18.305 24.1383 18.9583 23.3333 18.9583ZM23.3333 13.125H11.6667C10.8617 13.125 10.2083 12.4717 10.2083 11.6667C10.2083 10.8617 10.8617 10.2083 11.6667 10.2083H23.3333C24.1383 10.2083 24.7917 10.8617 24.7917 11.6667C24.7917 12.4717 24.1383 13.125 23.3333 13.125Z" fill="black"/>
</g>
<defs>
<clipPath id="clip0_725_1493">
<rect width="35" height="35" fill="white"/>
</clipPath>
</defs>
</svg>
