<svg width="55" height="55" viewBox="0 0 55 55" fill="none" xmlns="http://www.w3.org/2000/svg">
<circle cx="27.5" cy="27.5" r="27.5" fill="#615AE4"/>
<path d="M31.6988 21.2274H27.1994C26.935 21.2274 26.7207 21.4417 26.7207 21.7061V31.0847C26.7207 31.349 26.935 31.5633 27.1994 31.5633H31.6988C31.9631 31.5633 32.1774 31.349 32.1774 31.0847V21.7061C32.1774 21.4417 31.9632 21.2274 31.6988 21.2274ZM31.2201 30.606H27.678V22.1847H31.2201V30.606ZM38.1108 24.4324H33.6114C33.347 24.4324 33.1327 24.6467 33.1327 24.9111V31.0848C33.1327 31.3491 33.347 31.5634 33.6114 31.5634H38.1108C38.3752 31.5634 38.5895 31.3491 38.5895 31.0848V24.9111C38.5895 24.6467 38.3752 24.4324 38.1108 24.4324ZM37.6322 30.606H34.09V25.3897H37.6322V30.606ZM44.5209 20.7081H40.0214C39.757 20.7081 39.5427 20.9224 39.5427 21.1867V31.0847C39.5427 31.349 39.757 31.5633 40.0214 31.5633H44.5209C44.7852 31.5633 44.9995 31.349 44.9995 31.0847V21.1867C44.9996 20.9224 44.7853 20.7081 44.5209 20.7081ZM44.0423 30.606H40.5001V21.6654H44.0423V30.606ZM22.9208 24.1632C24.0524 24.1632 24.973 23.2417 24.973 22.109C24.973 21.7973 24.9028 21.5016 24.7778 21.2367L28.1909 18.5042C28.5387 18.7751 28.9752 18.937 29.4491 18.937C30.0728 18.937 30.632 18.6576 31.009 18.2178L33.8087 19.6498C33.7713 19.8048 33.7509 19.9663 33.7509 20.1326C33.7509 21.2641 34.6723 22.1847 35.805 22.1847C36.9365 22.1847 37.8571 21.2641 37.8571 20.1326C37.8571 19.9459 37.8316 19.7651 37.7848 19.5931L41.1605 17.7446C41.5362 18.159 42.0783 18.4196 42.6801 18.4196C43.8127 18.4196 44.7341 17.4982 44.7341 16.3656C44.7341 15.2341 43.8127 14.3135 42.6801 14.3135C41.5485 14.3135 40.6279 15.2341 40.6279 16.3656C40.6279 16.5522 40.6534 16.7331 40.7003 16.9051L37.3246 18.7537C36.9489 18.3392 36.4067 18.0786 35.805 18.0786C35.1815 18.0786 34.6225 18.3581 34.2455 18.7981L31.4456 17.366C31.4829 17.2116 31.5032 17.0507 31.5032 16.885C31.5032 15.7524 30.5818 14.831 29.4491 14.831C28.3176 14.831 27.3971 15.7524 27.3971 16.885C27.3971 17.1968 27.4673 17.4924 27.5922 17.7573L24.179 20.4897C23.8313 20.2189 23.3947 20.057 22.9208 20.057C21.7882 20.057 20.8667 20.9776 20.8667 22.109C20.8667 23.2417 21.7882 24.1632 22.9208 24.1632ZM42.68 15.2708C43.2848 15.2708 43.7768 15.7619 43.7768 16.3656C43.7768 16.9704 43.2848 17.4624 42.68 17.4624C42.0763 17.4624 41.5852 16.9704 41.5852 16.3656C41.5852 15.7619 42.0763 15.2708 42.68 15.2708ZM35.8049 19.0359C36.4086 19.0359 36.8998 19.5279 36.8998 20.1326C36.8998 20.7363 36.4086 21.2275 35.8049 21.2275C35.2001 21.2275 34.7082 20.7363 34.7082 20.1326C34.7082 19.5279 35.2001 19.0359 35.8049 19.0359ZM29.4491 15.7883C30.0538 15.7883 30.5458 16.2802 30.5458 16.885C30.5458 17.4886 30.0538 17.9798 29.4491 17.9798C28.8454 17.9798 28.3543 17.4886 28.3543 16.885C28.3544 16.2802 28.8454 15.7883 29.4491 15.7883ZM22.9208 21.0143C23.5245 21.0143 24.0157 21.5054 24.0157 22.1091C24.0157 22.714 23.5245 23.2059 22.9208 23.2059C22.316 23.2059 21.8241 22.714 21.8241 22.1091C21.8241 21.5054 22.3161 21.0143 22.9208 21.0143ZM24.3365 26.2855C21.9233 23.8744 17.9966 23.8744 15.5832 26.2856C13.5459 28.323 13.2286 31.439 14.6311 33.8124L10.4501 37.9935C10.1602 38.2836 10.0004 38.6704 10.0004 39.0829C10.0004 39.4939 10.1591 39.8795 10.4473 40.1692L10.5121 40.2362C10.812 40.5361 11.2065 40.6861 11.6014 40.6861C11.9961 40.6861 12.3913 40.5362 12.6928 40.2361L16.8894 36.0377C17.8144 36.5681 18.8651 36.852 19.9599 36.852C21.6132 36.852 23.1675 36.2082 24.3366 35.0391C25.5057 33.87 26.1496 32.3156 26.1496 30.6624C26.1496 29.0092 25.5057 27.4548 24.3366 26.2857L24.3365 26.2855ZM12.0166 39.5583C11.7884 39.7855 11.4188 39.7866 11.1912 39.5614L11.127 39.4952C11.0178 39.3859 10.9576 39.2396 10.9576 39.0828C10.9576 38.9261 11.0178 38.7796 11.1271 38.6704L15.1909 34.6066C15.3139 34.7552 15.4441 34.8998 15.5833 35.0389C15.7433 35.199 15.9112 35.3482 16.0849 35.4883L12.0166 39.5583ZM23.6598 34.3621C22.6715 35.3505 21.3575 35.8947 19.96 35.8947C18.5624 35.8947 17.2484 35.3505 16.2601 34.3621C14.22 32.3221 14.22 29.0027 16.2599 26.9627C17.2801 25.9435 18.62 25.4339 19.96 25.4339C21.2999 25.4339 22.6399 25.9435 23.66 26.9627C24.6481 27.951 25.1924 29.2649 25.1924 30.6624C25.1924 32.0599 24.6481 33.3738 23.6598 34.3621ZM17.3153 28.0201C15.8601 29.4775 15.8601 31.849 17.3155 33.3067C18.0444 34.0354 19.0017 34.3999 19.959 34.3999C20.9163 34.3999 21.8736 34.0354 22.6024 33.3067C23.3085 32.6006 23.6974 31.6618 23.6974 30.6633C23.6974 29.6647 23.3085 28.726 22.6024 28.0199C21.1449 26.5625 18.7733 26.5624 17.3153 28.0201ZM21.9255 32.6298C20.8413 33.7142 19.0768 33.7142 17.9928 32.6301C16.91 31.5456 16.9099 29.781 17.9925 28.6968C18.5347 28.1545 19.2468 27.8836 19.9591 27.8836C20.6712 27.8836 21.3835 28.1547 21.9256 28.6968C22.451 29.2222 22.7403 29.9205 22.7403 30.6633C22.7403 31.4062 22.4508 32.1045 21.9255 32.6298Z" fill="white"/>
</svg>
