<svg width="55" height="55" viewBox="0 0 55 55" fill="none" xmlns="http://www.w3.org/2000/svg">
<circle cx="27.5" cy="27.5" r="27.5" fill="#615AE4"/>
<path d="M28.0813 15C25.4076 15 22.8434 16.1029 20.9528 18.066C19.0621 20.0291 18 22.6917 18 25.468C18 32.5338 26.8842 40.5157 27.2622 40.8559C27.4905 41.0586 27.781 41.17 28.0813 41.17C28.3817 41.17 28.6722 41.0586 28.9004 40.8559C29.3415 40.5157 38.1627 32.5338 38.1627 25.468C38.1627 22.6917 37.1005 20.0291 35.2099 18.066C33.3193 16.1029 30.7551 15 28.0813 15ZM31.9443 33.7287C29.9834 36.3188 26.1825 36.3158 24.2208 33.7263C22.2528 31.1285 20.5203 28.0728 20.5203 25.468C20.5203 23.3858 21.3169 21.3888 22.7349 19.9165C24.1529 18.4441 26.076 17.617 28.0813 17.617C30.0866 17.617 32.0098 18.4441 33.4278 19.9165C34.8457 21.3888 35.6423 23.3858 35.6423 25.468C35.6423 28.0717 33.9114 31.1306 31.9443 33.7287ZM28.0813 20.234C27.0844 20.234 26.1098 20.541 25.2809 21.1161C24.452 21.6912 23.8059 22.5086 23.4244 23.465C23.0428 24.4214 22.943 25.4738 23.1375 26.4891C23.332 27.5044 23.8121 28.437 24.517 29.169C25.222 29.9009 26.1202 30.3994 27.098 30.6014C28.0757 30.8033 29.0893 30.6997 30.0103 30.3035C30.9314 29.9074 31.7186 29.2365 32.2725 28.3758C32.8264 27.5151 33.122 26.5031 33.122 25.468C33.122 24.0798 32.5909 22.7485 31.6456 21.767C30.7003 20.7854 29.4182 20.234 28.0813 20.234ZM28.0813 28.085C27.5829 28.085 27.0956 27.9315 26.6811 27.6439C26.2666 27.3564 25.9436 26.9476 25.7529 26.4694C25.5621 25.9913 25.5122 25.4651 25.6094 24.9574C25.7067 24.4498 25.9467 23.9835 26.2992 23.6175C26.6517 23.2515 27.1007 23.0022 27.5896 22.9013C28.0785 22.8003 28.5853 22.8521 29.0458 23.0502C29.5064 23.2483 29.9 23.5837 30.1769 24.014C30.4539 24.4444 30.6017 24.9504 30.6017 25.468C30.6017 26.162 30.3361 26.8277 29.8635 27.3185C29.3908 27.8092 28.7498 28.085 28.0813 28.085Z" fill="white"/>
</svg>
