<svg width="55" height="55" viewBox="0 0 55 55" fill="none" xmlns="http://www.w3.org/2000/svg">
<circle cx="27.5" cy="27.5" r="27.5" fill="#615AE4"/>
<path d="M36.7897 18H18.8452C17.8254 18 16.8474 18.3423 16.1262 18.9517C15.4051 19.5611 15 20.3876 15 21.2494V32.0806C15 32.9424 15.4051 33.7689 16.1262 34.3783C16.8474 34.9877 17.8254 35.33 18.8452 35.33H36.7897C37.8095 35.33 38.7875 34.9877 39.5086 34.3783C40.2298 33.7689 40.6349 32.9424 40.6349 32.0806V21.2494C40.6349 20.3876 40.2298 19.5611 39.5086 18.9517C38.7875 18.3423 37.8095 18 36.7897 18ZM36.2641 20.1662L28.7275 26.535C28.6083 26.6365 28.4666 26.7171 28.3104 26.7721C28.1542 26.8271 27.9867 26.8554 27.8174 26.8554C27.6482 26.8554 27.4807 26.8271 27.3245 26.7721C27.1683 26.7171 27.0266 26.6365 26.9074 26.535L19.3707 20.1662H36.2641ZM38.0714 32.0806C38.0714 32.3679 37.9364 32.6434 37.696 32.8465C37.4556 33.0496 37.1296 33.1637 36.7897 33.1637H18.8452C18.5053 33.1637 18.1793 33.0496 17.9389 32.8465C17.6985 32.6434 17.5635 32.3679 17.5635 32.0806V21.6935L25.1001 28.0622C25.8211 28.6707 26.7985 29.0125 27.8174 29.0125C28.8364 29.0125 29.8138 28.6707 30.5347 28.0622L38.0714 21.6935V32.0806Z" fill="white"/>
</svg>
