<svg width="55" height="55" viewBox="0 0 55 55" fill="none" xmlns="http://www.w3.org/2000/svg">
<circle cx="27.5" cy="27.5" r="27.5" fill="#615AE4"/>
<g clip-path="url(#clip0_966_186)">
<path d="M42.2407 21.757C43.4326 21.757 44.4023 20.7873 44.4023 19.5954C44.4023 18.4034 43.4326 17.4337 42.2407 17.4337C41.0488 17.4337 40.079 18.4034 40.079 19.5954C40.079 20.7873 41.0488 21.757 42.2407 21.757ZM42.2407 18.3634C42.92 18.3634 43.4727 18.916 43.4727 19.5954C43.4727 20.2747 42.92 20.8273 42.2407 20.8273C41.5614 20.8273 41.0087 20.2747 41.0087 19.5954C41.0087 18.916 41.5614 18.3634 42.2407 18.3634ZM13.7593 17.4337C12.5674 17.4337 11.5977 18.4034 11.5977 19.5954C11.5977 20.7874 12.5674 21.757 13.7593 21.757C14.9512 21.757 15.921 20.7873 15.921 19.5954C15.921 18.4034 14.9512 17.4337 13.7593 17.4337ZM13.7593 20.8273C13.08 20.8273 12.5273 20.2746 12.5273 19.5953C12.5273 18.916 13.08 18.3633 13.7593 18.3633C14.4386 18.3633 14.9913 18.916 14.9913 19.5953C14.9913 20.2746 14.4386 20.8273 13.7593 20.8273ZM13.7593 39.079C12.5674 39.079 11.5977 40.0488 11.5977 41.2407C11.5977 42.4326 12.5674 43.4023 13.7593 43.4023C14.9512 43.4023 15.921 42.4326 15.921 41.2407C15.921 40.0488 14.9512 39.079 13.7593 39.079ZM13.7593 42.4727C13.08 42.4727 12.5273 41.92 12.5273 41.2407C12.5273 40.5614 13.08 40.0087 13.7593 40.0087C14.4386 40.0087 14.9913 40.5614 14.9913 41.2407C14.9913 41.92 14.4386 42.4727 13.7593 42.4727ZM42.2407 39.079C41.0488 39.079 40.079 40.0488 40.079 41.2407C40.079 42.4326 41.0488 43.4023 42.2407 43.4023C43.4326 43.4023 44.4023 42.4326 44.4023 41.2407C44.4023 40.0488 43.4326 39.079 42.2407 39.079ZM42.2407 42.4727C41.5614 42.4727 41.0087 41.92 41.0087 41.2407C41.0087 40.5614 41.5614 40.0087 42.2407 40.0087C42.92 40.0087 43.4727 40.5614 43.4727 41.2407C43.4727 41.92 42.92 42.4727 42.2407 42.4727ZM38.6814 24.7105L38.9028 23.3338L31.3989 28.6004C32.8039 29.0024 33.5886 29.6429 33.5886 30.4181C33.5886 31.2533 32.6848 31.8625 31.3961 32.2337L38.9028 37.5023L38.6814 36.1255C38.6407 35.8721 38.8131 35.6335 39.0666 35.5928C39.3198 35.5519 39.5585 35.7245 39.5993 35.978L39.9954 38.4411C40.0361 38.6946 39.8637 38.9331 39.6102 38.9738L37.1471 39.3699C37.1221 39.3739 37.0972 39.3759 37.0727 39.3759C36.8485 39.3759 36.6511 39.2132 36.6144 38.9847C36.5736 38.7313 36.746 38.4927 36.9995 38.452L38.3323 38.2377L30.1591 32.5014C29.4721 32.6081 28.7349 32.6621 28 32.6621C27.2651 32.6621 26.5279 32.6081 25.841 32.5015L17.6678 38.2379L19.0006 38.4522C19.254 38.4929 19.4264 38.7315 19.3857 38.9849C19.349 39.2133 19.1516 39.3759 18.9274 39.376C18.9028 39.376 18.878 39.3741 18.853 39.37L16.3899 38.974C16.2681 38.9545 16.1592 38.8873 16.0869 38.7874C16.0147 38.6876 15.9851 38.5631 16.0047 38.4413L16.4008 35.9782C16.4415 35.7247 16.6804 35.5525 16.9335 35.593C17.1869 35.6338 17.3593 35.8723 17.3186 36.1257L17.0973 37.5025L24.6039 32.2339C23.3152 31.8627 22.4114 31.2534 22.4114 30.4183C22.4114 29.6431 23.1962 29.0026 24.6011 28.6006L17.0973 23.3338L17.3186 24.7105C17.3593 24.964 17.1869 25.2025 16.9335 25.2432C16.6803 25.2838 16.4415 25.1115 16.4008 24.8581L16.0047 22.3949C15.9851 22.2732 16.0147 22.1487 16.0869 22.0488C16.1592 21.9489 16.2681 21.8818 16.3899 21.8622L18.853 21.4662C19.1061 21.4254 19.345 21.5979 19.3857 21.8514C19.4264 22.1049 19.254 22.3434 19.0006 22.3841L17.6678 22.5984L25.9948 28.4427C25.9951 28.4429 25.9953 28.4431 25.9956 28.4434C26.0929 28.512 26.164 28.6178 26.1858 28.7444C26.2293 28.9974 26.0596 29.2378 25.8066 29.2813C24.1061 29.5739 23.3411 30.1222 23.3411 30.4181C23.3411 30.8641 24.9856 31.7323 28 31.7323C31.0144 31.7323 32.6589 30.8641 32.6589 30.4181C32.6589 30.1222 31.894 29.5739 30.1935 29.2813C29.9405 29.2378 29.7707 28.9974 29.8142 28.7444C29.8347 28.6255 29.8989 28.5254 29.9872 28.4567C29.9883 28.4558 29.9896 28.4549 29.9907 28.454C29.9958 28.4501 30.0006 28.4461 30.0058 28.4424L38.3323 22.5985L36.9995 22.3842C36.7461 22.3434 36.5736 22.1049 36.6144 21.8515C36.6551 21.598 36.894 21.4257 37.1471 21.4663L39.6102 21.8623C39.8636 21.9031 40.0361 22.1417 39.9954 22.3951L39.5993 24.8582C39.5586 25.1117 39.3199 25.2841 39.0666 25.2434C38.8131 25.2025 38.6407 24.964 38.6814 24.7105ZM27.603 30.309C27.6845 30.4582 27.8408 30.5509 28.0108 30.5509C28.1808 30.5509 28.3371 30.4582 28.4187 30.309C28.8544 29.5121 29.4525 28.5741 30.0858 27.5809C31.5558 25.2754 33.222 22.6623 34.0716 20.0493C34.5477 18.5849 34.71 17.3017 34.5677 16.1262C34.4032 14.768 33.8168 13.5762 32.8245 12.5839C31.5436 11.3031 29.8341 10.5977 28.0108 10.5977C26.1874 10.5977 24.4779 11.3031 23.197 12.5839C19.0956 16.6853 22.8015 22.5666 25.7791 27.2923C26.4571 28.3682 27.0974 29.3844 27.603 30.309ZM23.8544 13.2413C24.9597 12.1361 26.4357 11.5273 28.0108 11.5273C29.5858 11.5273 31.0618 12.136 32.1671 13.2413C33.7618 14.836 34.0956 16.9689 33.1874 19.7618C32.3744 22.2622 30.742 24.8224 29.3018 27.0811C28.8384 27.8076 28.3938 28.5051 28.0127 29.1469C27.5777 28.4028 27.0825 27.6168 26.5656 26.7965C25.1339 24.5244 23.5113 21.9491 22.7541 19.5349C21.9197 16.8747 22.2796 14.816 23.8544 13.2413ZM30.6617 17.0151C30.6617 15.5474 29.4677 14.3535 28.0001 14.3535C26.5324 14.3535 25.3385 15.5474 25.3385 17.0151C25.3385 18.4827 26.5324 19.6767 28.0001 19.6767C29.4677 19.6767 30.6617 18.4827 30.6617 17.0151ZM26.2682 17.0151C26.2682 16.0601 27.0451 15.2831 28.0001 15.2831C28.9551 15.2831 29.732 16.0601 29.732 17.0151C29.732 17.9701 28.9551 18.747 28.0001 18.747C27.0451 18.747 26.2682 17.9701 26.2682 17.0151Z" fill="white"/>
</g>
<defs>
<clipPath id="clip0_966_186">
<rect width="34" height="34" fill="white" transform="translate(11 10)"/>
</clipPath>
</defs>
</svg>
