<svg width="25" height="17" viewBox="0 0 25 17" fill="none" xmlns="http://www.w3.org/2000/svg">
<path d="M12.5 0.443359C5.60747 0.443359 0 6.02896 0 12.8945C0 13.299 0.32793 13.627 0.732422 13.627H5.17578C5.58027 13.627 5.9082 13.299 5.9082 12.8945C5.9082 9.30015 8.83188 6.30273 12.5 6.30273C13.9841 6.30273 15.355 6.79585 16.458 7.62661L10.9259 11.1557C10.0771 11.6972 9.57031 12.621 9.57031 13.627C9.57031 15.2424 10.8846 16.5566 12.5 16.5566C13.6347 16.5566 14.6776 15.8917 15.1568 14.8628L17.8591 9.06074C18.6346 10.1417 19.0918 11.4657 19.0918 12.8945C19.0918 13.299 19.4197 13.627 19.8242 13.627H24.2676C24.6721 13.627 25 13.299 25 12.8945C25 6.02896 19.3925 0.443359 12.5 0.443359ZM4.477 12.1621H1.48994C1.65527 9.67397 2.65605 7.40981 4.21528 5.64565L6.31147 7.74185C5.29277 8.96328 4.62847 10.4897 4.477 12.1621ZM11.7676 4.87153C10.0952 5.023 8.56875 5.6873 7.34731 6.70605L5.25547 4.61421C7.0229 3.07954 9.28438 2.0958 11.7676 1.93301V4.87153ZM13.829 14.2443C13.5892 14.7592 13.0675 15.0918 12.5 15.0918C11.6923 15.0918 11.0352 14.4347 11.0352 13.627C11.0352 13.1239 11.2888 12.6617 11.7137 12.3907L15.9513 9.68735L13.829 14.2443ZM17.6527 6.70605C16.4312 5.68735 14.9048 5.023 13.2324 4.87153V1.93281C15.7156 2.09561 17.9768 3.07979 19.7442 4.6145L17.6527 6.70605ZM20.523 12.1621C20.3715 10.4897 19.7072 8.96328 18.6885 7.74185L20.7848 5.64556C22.344 7.40981 23.3455 9.67397 23.5109 12.1621H20.523Z" fill="white"/>
</svg>
