<svg width="35" height="35" viewBox="0 0 35 35" fill="none" xmlns="http://www.w3.org/2000/svg">
<ellipse cx="17.3583" cy="17.5" rx="17.3583" ry="17.5" fill="#00AA63"/>
<path d="M18.2024 8C13.2306 8 9.20239 12.0282 9.20239 17C9.20239 21.9718 13.2306 26 18.2024 26C23.1742 26 27.2024 21.9718 27.2024 17C27.2024 12.0282 23.1742 8 18.2024 8ZM21.1056 13.5161C21.748 13.5161 22.2669 14.0351 22.2669 14.6774C22.2669 15.3198 21.748 15.8387 21.1056 15.8387C20.4633 15.8387 19.9443 15.3198 19.9443 14.6774C19.9443 14.0351 20.4633 13.5161 21.1056 13.5161ZM15.2992 13.5161C15.9415 13.5161 16.4605 14.0351 16.4605 14.6774C16.4605 15.3198 15.9415 15.8387 15.2992 15.8387C14.6568 15.8387 14.1379 15.3198 14.1379 14.6774C14.1379 14.0351 14.6568 13.5161 15.2992 13.5161ZM18.4927 23.3871H17.9121C15.2484 23.3871 13.0492 21.3911 12.7262 18.8145C12.6826 18.4698 12.9548 18.1613 13.3032 18.1613H23.1016C23.45 18.1613 23.7221 18.4661 23.6786 18.8145C23.3556 21.3911 21.1564 23.3871 18.4927 23.3871Z" fill="white"/>
</svg>
