<svg width="187" height="64" viewBox="0 0 187 64" fill="none" xmlns="http://www.w3.org/2000/svg">
<g filter="url(#filter0_d_379_829)">
<rect x="4" width="179" height="56" rx="5" fill="#1B1128"/>
<rect x="4.5" y="0.5" width="178" height="55" rx="4.5" stroke="#A6A6A6"/>
<path d="M145.787 41.9999H148.262V24.4977H145.787V41.9999ZM168.072 30.8027L165.236 38.3906H165.151L162.208 30.8027H159.543L163.958 41.4077L161.44 47.3073H164.02L170.824 30.8027H168.072ZM154.04 40.012C153.231 40.012 152.1 39.5838 152.1 38.5257C152.1 37.1748 153.508 36.6569 154.723 36.6569C155.81 36.6569 156.323 36.9042 156.983 37.2421C156.791 38.8636 155.469 40.012 154.04 40.012ZM154.34 30.4198C152.548 30.4198 150.693 31.2532 149.926 33.0995L152.121 34.0675C152.591 33.0995 153.464 32.7845 154.382 32.7845C155.662 32.7845 156.962 33.5944 156.983 35.036V35.2159C156.535 34.9457 155.575 34.5406 154.403 34.5406C152.035 34.5406 149.626 35.9137 149.626 38.4807C149.626 40.8225 151.567 42.3313 153.742 42.3313C155.404 42.3313 156.323 41.5432 156.897 40.6196H156.983V41.9715H159.373V35.2607C159.373 32.1534 157.174 30.4198 154.34 30.4198ZM139.049 32.9332H135.53V26.9341H139.049C140.899 26.9341 141.949 28.5507 141.949 29.9336C141.949 31.2899 140.899 32.9332 139.049 32.9332ZM138.985 24.4977H133.057V41.9999H135.53V35.3691H138.985C141.727 35.3691 144.423 33.2734 144.423 29.9336C144.423 26.5944 141.727 24.4977 138.985 24.4977ZM106.657 40.0153C104.948 40.0153 103.518 38.5037 103.518 36.4294C103.518 34.3311 104.948 32.7981 106.657 32.7981C108.345 32.7981 109.669 34.3311 109.669 36.4294C109.669 38.5037 108.345 40.0153 106.657 40.0153ZM109.498 31.7827H109.413C108.858 31.0837 107.789 30.4521 106.444 30.4521C103.624 30.4521 101.039 33.0689 101.039 36.4294C101.039 39.767 103.624 42.3608 106.444 42.3608C107.789 42.3608 108.858 41.7291 109.413 41.0079H109.498V41.8642C109.498 44.1431 108.345 45.3605 106.487 45.3605C104.97 45.3605 104.031 44.2104 103.646 43.2408L101.488 44.188C102.107 45.7662 103.752 47.7065 106.487 47.7065C109.392 47.7065 111.849 45.9019 111.849 41.5033V30.8131H109.498V31.7827ZM113.558 41.9999H116.035V24.4977H113.558V41.9999ZM119.688 36.226C119.624 33.9253 121.376 32.7528 122.636 32.7528C123.619 32.7528 124.451 33.2717 124.73 34.0156L119.688 36.226ZM127.378 34.2408C126.908 32.9108 125.477 30.4521 122.55 30.4521C119.645 30.4521 117.231 32.8655 117.231 36.4065C117.231 39.7446 119.624 42.3608 122.827 42.3608C125.412 42.3608 126.908 40.6923 127.528 39.7221L125.605 38.3686C124.964 39.3612 124.089 40.0153 122.827 40.0153C121.568 40.0153 120.67 39.4061 120.094 38.2107L127.634 34.9179L127.378 34.2408ZM67.3029 32.2791V34.8052H73.0276C72.8567 36.226 72.4081 37.2634 71.7245 37.9853C70.8911 38.8646 69.588 39.8348 67.3029 39.8348C63.7782 39.8348 61.0228 36.8352 61.0228 33.1137C61.0228 29.3922 63.7782 26.3921 67.3029 26.3921C69.2041 26.3921 70.5923 27.1817 71.6177 28.1967L73.3058 26.4145C71.8742 24.9713 69.9733 23.8661 67.3029 23.8661C62.4745 23.8661 58.416 28.0163 58.416 33.1137C58.416 38.2107 62.4745 42.3608 67.3029 42.3608C69.9086 42.3608 71.8742 41.4585 73.412 39.767C74.9927 38.098 75.4843 35.7524 75.4843 33.8575C75.4843 33.2717 75.4412 32.7304 75.3558 32.2791H67.3029ZM81.9927 40.0153C80.2834 40.0153 78.8094 38.5266 78.8094 36.4065C78.8094 34.2638 80.2834 32.7981 81.9927 32.7981C83.7013 32.7981 85.1753 34.2638 85.1753 36.4065C85.1753 38.5266 83.7013 40.0153 81.9927 40.0153ZM81.9927 30.4521C78.8731 30.4521 76.3315 32.9556 76.3315 36.4065C76.3315 39.8348 78.8731 42.3608 81.9927 42.3608C85.1111 42.3608 87.6532 39.8348 87.6532 36.4065C87.6532 32.9556 85.1111 30.4521 81.9927 30.4521ZM94.3408 40.0153C92.6327 40.0153 91.1582 38.5266 91.1582 36.4065C91.1582 34.2638 92.6327 32.7981 94.3408 32.7981C96.05 32.7981 97.5235 34.2638 97.5235 36.4065C97.5235 38.5266 96.05 40.0153 94.3408 40.0153ZM94.3408 30.4521C91.2223 30.4521 88.6808 32.9556 88.6808 36.4065C88.6808 39.8348 91.2223 42.3608 94.3408 42.3608C97.4604 42.3608 100.002 39.8348 100.002 36.4065C100.002 32.9556 97.4604 30.4521 94.3408 30.4521Z" fill="white"/>
<path d="M62.9734 18.5281C61.7846 18.5281 60.7621 18.0864 59.9377 17.2161C59.1129 16.3452 58.6952 15.2548 58.6952 13.9868C58.6952 12.7189 59.1131 11.6303 59.9377 10.7575C60.7621 9.88707 61.7846 9.44557 62.9734 9.44557C63.579 9.44557 64.1442 9.55601 64.6844 9.786C65.2248 10.016 65.6668 10.3353 66.015 10.7531L66.0971 10.8519L65.1697 11.8308L65.077 11.7104C64.8461 11.4109 64.5525 11.1782 64.1804 11.0091C63.8097 10.8404 63.4037 10.7624 62.9734 10.7624C62.1361 10.7624 61.4414 11.0627 60.8612 11.673C60.8611 11.6731 60.8608 11.6731 60.8607 11.6733C60.2937 12.2959 60.0087 13.054 60.0087 13.9868C60.0087 14.9204 60.2941 15.6786 60.8617 16.3015C61.4419 16.9115 62.1365 17.2134 62.9734 17.2134C63.7398 17.2134 64.3737 16.9875 64.8721 16.5402H64.8724C65.3363 16.1239 65.6148 15.5614 65.7133 14.8443H62.8408V13.5537H66.9548L66.9724 13.6718C67.0061 13.8987 67.0299 14.1177 67.0299 14.3281C67.0299 15.5323 66.6822 16.5153 66 17.2385C65.2298 18.1005 64.2171 18.5281 62.9734 18.5281L62.9734 18.5281ZM98.6962 18.5281C97.5056 18.5281 96.4951 18.0862 95.6813 17.2161C95.6812 17.216 95.6811 17.216 95.681 17.2158C95.6809 17.2157 95.6809 17.2157 95.6807 17.2156C94.8658 16.3548 94.4615 15.2641 94.4615 13.9868C94.4615 12.7095 94.8658 11.6188 95.6807 10.7581C95.6808 10.758 95.6809 10.7579 95.681 10.7578L95.6813 10.7575C96.4951 9.88725 97.5057 9.44554 98.6962 9.44554C99.8844 9.44554 100.895 9.88736 101.709 10.7706C102.524 11.6312 102.929 12.7198 102.929 13.9868C102.929 15.2641 102.524 16.3548 101.71 17.2155L101.709 17.2158C100.895 18.0865 99.8747 18.5281 98.6962 18.5281L98.6962 18.5281ZM68.2072 18.3399V9.63369H68.3397H73.1317V10.9506H69.4979V13.3415H72.7754V14.6321H69.4979V17.0253H73.1317V18.3399H68.2072ZM76.1456 18.3399V10.9506H73.9164V9.63369H79.6655V10.9506H79.5329H77.4363V18.3399H76.1456ZM83.3398 18.3399V9.63369H84.6305V9.77369V18.3399H83.3398ZM87.8795 18.3399V10.9506H85.6503V9.63369H91.3995V10.9506H91.2669H89.1702V18.3399H87.8795ZM104.074 18.3399V9.63369H105.53L109.234 15.8949L109.202 14.7062V9.63369H110.493V18.3399H109.216L105.333 11.7624L105.365 12.9502V12.9521V18.3399H104.074ZM98.6962 17.2134C99.5335 17.2134 100.217 16.9118 100.774 16.3026L100.775 16.3014L100.776 16.3006C101.341 15.7038 101.617 14.9355 101.617 13.9868C101.617 13.0404 101.341 12.2695 100.776 11.6729L100.775 11.6721L100.774 11.6713C100.217 11.0621 99.5337 10.7624 98.6962 10.7624C97.8573 10.7624 97.1739 11.0616 96.6063 11.6707L96.6058 11.6713C96.0511 12.2823 95.775 13.0407 95.775 13.9867C95.775 14.9351 96.051 15.6911 96.6058 16.3022L96.6063 16.3028C97.174 16.912 97.8575 17.2133 98.6962 17.2133V17.2134Z" fill="white"/>
<path d="M31.466 27.1924L17.3495 43.0124C17.35 43.0157 17.3511 43.0185 17.3516 43.0217C17.7845 44.7395 19.2705 46.0044 21.0341 46.0044C21.7391 46.0044 22.401 45.8031 22.9686 45.4499L23.0137 45.422L38.9036 35.7407L31.466 27.1924Z" fill="#EA4335"/>
<path d="M45.7476 24.4986L45.7341 24.4888L38.874 20.2897L31.1453 27.5513L38.9009 35.739L45.7248 31.5817C46.9212 30.8998 47.7333 29.5681 47.7333 28.0324C47.7333 26.5078 46.9321 25.1827 45.7476 24.4986Z" fill="#FCB632"/>
<path d="M17.3489 12.9868C17.2641 13.3172 17.2195 13.6632 17.2195 14.0226V41.9773C17.2195 42.336 17.2636 42.6832 17.3495 43.0125L31.9518 27.5972L17.3489 12.9868Z" fill="#4285F4"/>
<path d="M31.57 27.9998L38.8767 20.2872L23.0048 10.5709C22.4279 10.206 21.7546 9.99548 21.0341 9.99548C19.2705 9.99548 17.7825 11.2626 17.3495 12.9825C17.3489 12.9842 17.3489 12.9853 17.3489 12.9869L31.57 27.9998Z" fill="#34A853"/>
</g>
<defs>
<filter id="filter0_d_379_829" x="0" y="0" width="187" height="64" filterUnits="userSpaceOnUse" color-interpolation-filters="sRGB">
<feFlood flood-opacity="0" result="BackgroundImageFix"/>
<feColorMatrix in="SourceAlpha" type="matrix" values="0 0 0 0 0 0 0 0 0 0 0 0 0 0 0 0 0 0 127 0" result="hardAlpha"/>
<feOffset dy="4"/>
<feGaussianBlur stdDeviation="2"/>
<feComposite in2="hardAlpha" operator="out"/>
<feColorMatrix type="matrix" values="0 0 0 0 0 0 0 0 0 0 0 0 0 0 0 0 0 0 0.25 0"/>
<feBlend mode="normal" in2="BackgroundImageFix" result="effect1_dropShadow_379_829"/>
<feBlend mode="normal" in="SourceGraphic" in2="effect1_dropShadow_379_829" result="shape"/>
</filter>
</defs>
</svg>
