<svg width="35" height="35" viewBox="0 0 35 35" fill="none" xmlns="http://www.w3.org/2000/svg">
<circle cx="17.5" cy="17.5" r="17.5" fill="#E36E2C"/>
<g clip-path="url(#clip0_722_1080)">
<path d="M25.6216 21.5141L18.8332 10.0592C18.3902 9.31219 17.3091 9.31219 16.8666 10.0592L10.0783 21.5141C9.64625 22.2436 10.1718 23.1656 11.0195 23.1656H24.6804C25.528 23.1656 26.0536 22.2436 25.6216 21.5141ZM17.8499 21.525C17.2456 21.525 16.7562 21.0355 16.7562 20.4313C16.7562 19.827 17.2456 19.3375 17.8499 19.3375C18.4542 19.3375 18.9437 19.827 18.9437 20.4313C18.9437 21.0355 18.4542 21.525 17.8499 21.525ZM18.9437 15.7155C18.9437 16.3034 18.8491 16.8875 18.6631 17.4448L18.5696 17.7248C18.4663 18.0348 18.1764 18.2438 17.8499 18.2438C17.5234 18.2438 17.2336 18.0348 17.1302 17.7248L17.0367 17.4448C16.8508 16.8875 16.7562 16.3034 16.7562 15.7155V14.0804C16.7562 13.6615 17.0958 13.3219 17.5147 13.3219H18.1846C18.6041 13.3219 18.9437 13.6615 18.9437 14.0804V15.7155Z" fill="white"/>
</g>
<defs>
<clipPath id="clip0_722_1080">
<rect width="17.5" height="17.5" fill="white" transform="translate(9.09998 8.4)"/>
</clipPath>
</defs>
</svg>
