<svg width="55" height="55" viewBox="0 0 55 55" fill="none" xmlns="http://www.w3.org/2000/svg">
<circle cx="27.5" cy="27.5" r="27.5" fill="#615AE4"/>
<path d="M43 19.5V18.5H41V12H40V28.5C40 33.187 36.187 37 31.5 37H21V35H22.5V34H21V32H30.5C32.981 32 35 29.981 35 27.5V12H34V18.5H23.5C18.2615 18.5 14 22.7615 14 28V31H12V32H14V37H12V38H14V43H15V28C15 23.313 18.813 19.5 23.5 19.5H34V21.5H33.5V22.5H34V24.5H24.5C22.019 24.5 20 26.519 20 29V43H21V38H31.5C33.1545 38 34.7105 37.573 36.0665 36.826C36.024 37.0445 36 37.2695 36 37.5C36 38.5865 36.3895 39.6395 37.0965 40.4645L39.1205 42.8255C39.2155 42.9365 39.354 43 39.5 43C39.646 43 39.7845 42.9365 39.8795 42.8255L41.9035 40.4645C42.6105 39.6395 43 38.5865 43 37.5C43 35.57 41.43 34 39.5 34C39.406 34 39.3135 34.007 39.221 34.014C40.336 32.4575 41 30.5565 41 28.5V25.5H43V24.5H41V19.5H43ZM24.5 25.5H34V27.5C34 29.43 32.43 31 30.5 31H21V29C21 27.07 22.57 25.5 24.5 25.5ZM42 37.5C42 38.348 41.696 39.1695 41.1445 39.8135L39.5 41.7315L37.8555 39.8135C37.304 39.1695 37 38.348 37 37.5C37 36.1215 38.1215 35 39.5 35C40.8785 35 42 36.1215 42 37.5Z" fill="white"/>
<path d="M19.809 22.8931C19.2465 23.3141 18.7515 23.8156 18.3375 24.3836L19.1455 24.9726C19.5005 24.4851 19.9255 24.0546 20.408 23.6931L19.809 22.8931Z" fill="white"/>
<path d="M17 30.2729H18V32.2264H17V30.2729Z" fill="white"/>
<path d="M17.0025 28.306L18.002 28.3335C18.0185 27.7285 18.125 27.134 18.3185 26.566L17.3715 26.2435C17.146 26.9065 17.0215 27.601 17.0025 28.306Z" fill="white"/>
<path d="M17 34.1794H18V36.1329H17V34.1794Z" fill="white"/>
<path d="M17 38.0864H18V40.0399H17V38.0864Z" fill="white"/>
<path d="M29.5935 21.5H31.547V22.5H29.5935V21.5Z" fill="white"/>
<path d="M25.6865 21.5H27.64V22.5H25.6865V21.5Z" fill="white"/>
<path d="M23.713 21.506C23.0085 21.5345 22.3165 21.6675 21.656 21.902L21.9905 22.8445C22.5565 22.6435 23.1495 22.5295 23.753 22.505L23.713 21.506Z" fill="white"/>
<path d="M17 42H18V43H17V42Z" fill="white"/>
<path d="M37.4 30.8385L36.486 30.4325C36.236 30.995 35.9015 31.515 35.491 31.9785L36.2395 32.6415C36.718 32.102 37.1085 31.495 37.4 30.8385Z" fill="white"/>
<path d="M38 28V26.7145H37V28.0005C37 28.2195 36.9885 28.4405 36.9645 28.658L37.9585 28.767C37.9865 28.513 38 28.2545 38 28Z" fill="white"/>
<path d="M37 14.7145H38V16.7145H37V14.7145Z" fill="white"/>
<path d="M37 22.7145H38V24.7145H37V22.7145Z" fill="white"/>
<path d="M37 18.7145H38V20.7145H37V18.7145Z" fill="white"/>
<path d="M37 12H38V12.7145H37V12Z" fill="white"/>
<path d="M28.5 34H30.5V35H28.5V34Z" fill="white"/>
<path d="M32.6005 34.8161C33.301 34.6521 33.97 34.3816 34.5895 34.0111L34.0765 33.1526C33.546 33.4701 32.9725 33.7021 32.373 33.8421L32.6005 34.8161Z" fill="white"/>
<path d="M24.5 34H26.5V35H24.5V34Z" fill="white"/>
<path d="M15.1205 20.8255C15.2155 20.9365 15.354 21 15.5 21C15.646 21 15.7845 20.9365 15.8795 20.8255L17.9035 18.4645C18.6105 17.6395 19 16.5865 19 15.5C19 13.57 17.43 12 15.5 12C13.57 12 12 13.57 12 15.5C12 16.5865 12.3895 17.6395 13.0965 18.4645L15.1205 20.8255ZM15.5 13C16.8785 13 18 14.1215 18 15.5C18 16.348 17.696 17.1695 17.1445 17.8135L15.5 19.7315L13.8555 17.8135C13.304 17.1695 13 16.348 13 15.5C13 14.1215 14.1215 13 15.5 13Z" fill="white"/>
<path d="M15.5 17C16.327 17 17 16.327 17 15.5C17 14.673 16.327 14 15.5 14C14.673 14 14 14.673 14 15.5C14 16.327 14.673 17 15.5 17ZM15.5 15C15.7755 15 16 15.2245 16 15.5C16 15.7755 15.7755 16 15.5 16C15.2245 16 15 15.7755 15 15.5C15 15.2245 15.2245 15 15.5 15Z" fill="white"/>
<path d="M39.5 39C40.327 39 41 38.327 41 37.5C41 36.673 40.327 36 39.5 36C38.673 36 38 36.673 38 37.5C38 38.327 38.673 39 39.5 39ZM39.5 37C39.7755 37 40 37.2245 40 37.5C40 37.7755 39.7755 38 39.5 38C39.2245 38 39 37.7755 39 37.5C39 37.2245 39.2245 37 39.5 37Z" fill="white"/>
</svg>
