<svg width="36" height="35" viewBox="0 0 36 35" fill="none" xmlns="http://www.w3.org/2000/svg">
<ellipse cx="17.7631" cy="17.5" rx="17.3583" ry="17.5" fill="#FCB632"/>
<path d="M17.7024 9C13.008 9 9.20239 12.8056 9.20239 17.5C9.20239 22.1944 13.008 26 17.7024 26C22.3968 26 26.2024 22.1944 26.2024 17.5C26.2024 12.8056 22.3968 9 17.7024 9ZM24.8681 17.5C24.8681 18.4672 24.6786 19.4057 24.3048 20.2894C23.9439 21.1427 23.4273 21.909 22.7693 22.5669C22.1113 23.2249 21.345 23.7415 20.4917 24.1025C19.6081 24.4762 18.6696 24.6658 17.7024 24.6658C16.7352 24.6658 15.7967 24.4762 14.9131 24.1024C14.0597 23.7415 13.2934 23.2249 12.6355 22.5669C11.9775 21.9089 11.4609 21.1427 11.1 20.2893C10.7262 19.4057 10.5367 18.4672 10.5367 17.5C10.5367 16.5328 10.7262 15.5943 11.1 14.7106C11.4609 13.8573 11.9775 13.091 12.6355 12.4331C13.2934 11.7751 14.0597 11.2585 14.9131 10.8975C15.7967 10.5238 16.7352 10.3343 17.7024 10.3343C18.6696 10.3343 19.6081 10.5238 20.4917 10.8976C21.3451 11.2585 22.1114 11.7751 22.7693 12.4331C23.4273 13.091 23.9439 13.8573 24.3048 14.7107C24.6786 15.5944 24.8681 16.5328 24.8681 17.5Z" fill="white"/>
<path d="M17.7024 11.1395C16.0034 11.1395 14.4062 11.8011 13.2049 13.0025C12.0035 14.2038 11.3419 15.8011 11.3419 17.5C11.3419 19.199 12.0035 20.7962 13.2049 21.9976C14.4062 23.1989 16.0034 23.8605 17.7024 23.8605C19.4013 23.8605 20.9986 23.1989 22.1999 21.9976C23.4012 20.7962 24.0628 19.199 24.0628 17.5C24.0628 15.8011 23.4012 14.2038 22.1999 13.0025C20.9986 11.8011 19.4013 11.1395 17.7024 11.1395ZM19.6996 12.5189L19.5709 13.0775L19.4331 13.6756L18.5434 17.5374L18.4733 17.8414C18.4607 17.8946 18.4413 17.9512 18.4163 18.0024C18.2862 18.2684 18.0196 18.423 17.7421 18.423C17.6316 18.423 17.5193 18.3985 17.4134 18.3467C17.1043 18.1955 16.9458 17.86 17.0053 17.5373C17.0174 17.4717 17.0383 17.4066 17.0691 17.3437L18.9855 13.4236L19.2319 12.9197L19.468 12.4368C19.4718 12.429 19.4762 12.4222 19.4809 12.4158C19.5055 12.3821 19.5409 12.3669 19.5764 12.3669C19.6442 12.3669 19.7117 12.4213 19.7023 12.5029C19.7017 12.5081 19.7008 12.5135 19.6996 12.5189ZM12.2784 17.3605C12.2778 17.3316 12.2757 17.2995 12.2761 17.2639C12.2768 17.2284 12.2775 17.1895 12.2783 17.1475C12.2794 17.1055 12.2795 17.06 12.2815 17.0117C12.2849 16.9636 12.2885 16.9124 12.2923 16.8583C12.2942 16.8312 12.2961 16.8034 12.2981 16.7749C12.3009 16.7464 12.3049 16.7174 12.3084 16.6876C12.3159 16.628 12.3223 16.5653 12.3319 16.5003C12.3431 16.4355 12.3547 16.3681 12.3668 16.2981C12.372 16.2628 12.3814 16.228 12.389 16.1919C12.3971 16.1559 12.4053 16.1193 12.4137 16.0821C12.4844 15.7856 12.5918 15.4552 12.7517 15.1107C12.7609 15.0888 12.7716 15.0675 12.7825 15.0461C12.7933 15.0247 12.8041 15.0032 12.815 14.9815C12.837 14.9383 12.8585 14.8942 12.8817 14.8504C12.9061 14.8073 12.9307 14.7638 12.9556 14.7199C12.968 14.6979 12.9806 14.6758 12.9931 14.6536C13.0058 14.6314 13.0201 14.6102 13.0336 14.5883C13.0611 14.5448 13.0889 14.5008 13.1169 14.4566C13.1305 14.4341 13.1459 14.4128 13.161 14.3911C13.1762 14.3695 13.1914 14.3477 13.2067 14.3259C13.222 14.3041 13.2374 14.2821 13.2528 14.2601L13.2761 14.227L13.3009 14.1949C13.3341 14.1521 13.3676 14.1089 13.4013 14.0654L13.4267 14.0326C13.4353 14.0219 13.4445 14.0115 13.4534 14.0009C13.4715 13.9799 13.4895 13.9587 13.5077 13.9374C13.5258 13.9162 13.5441 13.8949 13.5624 13.8734L13.5899 13.8413C13.5993 13.8308 13.6092 13.8206 13.6188 13.8102C13.6577 13.7689 13.6968 13.7273 13.7362 13.6855L13.7659 13.6541L13.797 13.624C13.8178 13.6039 13.8386 13.5837 13.8595 13.5635C13.9418 13.4808 14.032 13.405 14.1216 13.326C14.167 13.2874 14.2147 13.2511 14.2617 13.2132C14.2854 13.1944 14.3091 13.1756 14.3328 13.1568C14.3574 13.139 14.382 13.1212 14.4067 13.1033C14.7995 12.8145 15.2509 12.5712 15.7401 12.3944C15.8017 12.3733 15.8635 12.3522 15.9253 12.3311C15.9875 12.3109 16.0508 12.2943 16.1139 12.2757L16.2089 12.2488L16.3051 12.2262L16.4017 12.2037C16.434 12.1964 16.4661 12.1879 16.4988 12.1827C16.564 12.1709 16.6293 12.1591 16.6947 12.1473C16.7111 12.1445 16.7275 12.1411 16.7439 12.1388L16.7934 12.1323L16.8925 12.1195L16.9918 12.1068C17.0249 12.1022 17.0582 12.1009 17.0915 12.0979L17.2916 12.0825C17.3161 12.0827 17.3017 12.0824 17.3087 12.0824L17.3144 12.0822L17.326 12.0819L17.3491 12.0811L17.3952 12.0797L17.4875 12.0768L17.5336 12.0753L17.5566 12.0746C17.5642 12.0743 17.5738 12.0748 17.5822 12.0748L17.6871 12.0772L17.7921 12.0799L17.8447 12.0813C17.8621 12.082 17.8784 12.0836 17.8953 12.0847C17.9624 12.0897 18.0295 12.0948 18.0965 12.0998C18.1302 12.1017 18.1634 12.1068 18.1968 12.1107L18.297 12.1233L18.3971 12.136L18.4965 12.1532C18.5626 12.1653 18.6292 12.1757 18.6948 12.1896C18.7604 12.2046 18.8258 12.2196 18.8911 12.2345C18.9439 12.2476 18.9963 12.2616 19.0486 12.2762L18.8099 12.7644L18.5739 13.2472C18.5264 13.2304 18.4789 13.2135 18.4312 13.1966C18.3796 13.1792 18.3269 13.1651 18.2745 13.149L18.1956 13.1255L18.1155 13.106L18.0352 13.0864C18.0083 13.08 17.9816 13.0724 17.9543 13.0679C17.8999 13.0575 17.8454 13.0471 17.7909 13.0366C17.7774 13.0341 17.7634 13.031 17.7502 13.029L17.711 13.0235L17.6325 13.0122L17.5536 13.0006C17.5467 12.9997 17.541 12.9984 17.5332 12.9978L17.5102 12.9959L17.4642 12.9922L17.3722 12.9846L17.3262 12.9808L17.3032 12.9789L17.2917 12.978L17.286 12.9775C17.2891 12.9774 17.2708 12.9771 17.2915 12.9772L17.1231 12.9711C17.095 12.9704 17.0667 12.968 17.0386 12.9688L16.9543 12.97L16.8697 12.9712L16.8274 12.9717C16.8133 12.972 16.7994 12.9734 16.7853 12.9742C16.729 12.9778 16.6728 12.9814 16.6166 12.985C16.5883 12.9861 16.5605 12.9904 16.5325 12.9934L16.4486 13.0032L16.3645 13.0128L16.2813 13.0265C16.2259 13.0363 16.1699 13.0441 16.1148 13.0552C16.0598 13.0673 16.0049 13.0793 15.9501 13.0913C15.513 13.1949 15.0939 13.3611 14.7159 13.5776C14.6921 13.591 14.6684 13.6043 14.6447 13.6176C14.6217 13.632 14.5987 13.6463 14.5758 13.6606C14.5302 13.6896 14.4836 13.7171 14.439 13.747C14.3512 13.8086 14.2618 13.8673 14.1794 13.9335C14.1584 13.9495 14.1374 13.9656 14.1166 13.9816L14.0852 14.0056L14.0552 14.0309C14.0152 14.0648 13.9754 14.0984 13.9358 14.1319C13.926 14.1403 13.9159 14.1485 13.9063 14.1571L13.878 14.1835C13.8591 14.2011 13.8403 14.2186 13.8215 14.2361C13.8027 14.2536 13.784 14.271 13.7653 14.2884C13.756 14.2971 13.7465 14.3056 13.7375 14.3146L13.7109 14.3418C13.6754 14.3782 13.6402 14.4143 13.6053 14.4501L13.579 14.477L13.5542 14.505C13.5377 14.5236 13.5213 14.5422 13.5049 14.5607C13.4885 14.5792 13.4721 14.5976 13.4559 14.616C13.4396 14.6344 13.423 14.6525 13.4081 14.6718C13.3776 14.7099 13.3472 14.7476 13.3172 14.7851C13.3023 14.8039 13.2866 14.8222 13.2725 14.8414C13.2585 14.8607 13.2446 14.8799 13.2307 14.899C13.2028 14.9373 13.1752 14.9753 13.1478 15.0129C13.1215 15.0512 13.0969 15.0902 13.0716 15.1283C13.059 15.1474 13.0465 15.1665 13.0341 15.1854C13.0215 15.2043 13.0092 15.2232 12.9982 15.2427C12.811 15.5492 12.6725 15.852 12.5719 16.1293C12.5598 16.1641 12.5479 16.1985 12.5362 16.2322C12.5249 16.2661 12.5118 16.2989 12.503 16.3323C12.4836 16.3987 12.4648 16.4627 12.4469 16.5242C12.4304 16.5862 12.4173 16.6463 12.4033 16.7036C12.3966 16.7323 12.3894 16.7603 12.3835 16.7878C12.3784 16.8154 12.3734 16.8424 12.3685 16.8686C12.3588 16.9212 12.3495 16.9711 12.3408 17.0179C12.3334 17.0649 12.3283 17.1092 12.3226 17.1504C12.317 17.1917 12.3119 17.2299 12.3072 17.2649C12.3028 17.3 12.3012 17.3323 12.2985 17.361C12.2891 17.476 12.284 17.5373 12.284 17.5373C12.284 17.5374 12.282 17.4758 12.2784 17.3605ZM22.3318 14.752C22.3463 14.7746 22.3607 14.7971 22.3736 14.8203C22.592 15.185 22.7527 15.5449 22.8686 15.8738C22.8826 15.9152 22.8963 15.9559 22.9098 15.9959C22.9229 16.0361 22.9375 16.0751 22.9479 16.1146C22.9702 16.1932 22.9916 16.2691 23.0122 16.342C23.031 16.4153 23.0462 16.4865 23.062 16.5542C23.0696 16.5882 23.0776 16.6213 23.0842 16.6538C23.0901 16.6864 23.0958 16.7183 23.1013 16.7492C23.1122 16.8114 23.1225 16.8702 23.1322 16.9256C23.1405 16.9811 23.1463 17.0334 23.1527 17.0821C23.1587 17.1308 23.1642 17.1759 23.1693 17.2172C23.1741 17.2586 23.1759 17.2962 23.1788 17.33C23.1886 17.4652 23.1938 17.5373 23.1938 17.5373H21.4043C21.4043 17.5373 21.4065 17.4865 21.4105 17.3914C21.4112 17.3676 21.4136 17.3408 21.4135 17.3115C21.4132 17.2822 21.4129 17.2503 21.4126 17.2157C21.4121 17.1811 21.4127 17.1437 21.4115 17.104C21.4092 17.0644 21.4067 17.0222 21.404 16.9776C21.4028 16.9553 21.4015 16.9323 21.4002 16.9088C21.3982 16.8853 21.3951 16.8615 21.3925 16.8369C21.3867 16.7879 21.3823 16.7361 21.3752 16.6825C21.3666 16.6291 21.3577 16.5734 21.3484 16.5158C21.3447 16.4866 21.337 16.4579 21.3311 16.4282C21.3248 16.3985 21.3184 16.3682 21.3119 16.3376C21.2565 16.0927 21.1714 15.8194 21.0427 15.5331C21.0353 15.5148 21.0266 15.4972 21.0177 15.4795C21.009 15.4617 21.0002 15.4438 20.9914 15.4258C20.9735 15.3899 20.9564 15.3531 20.9376 15.3167C20.9178 15.2808 20.8978 15.2446 20.8776 15.208C20.8676 15.1897 20.8575 15.1712 20.8473 15.1527C20.8371 15.1342 20.8253 15.1166 20.8143 15.0984C20.7919 15.062 20.7694 15.0253 20.7467 14.9884C20.7357 14.9695 20.7231 14.9518 20.7107 14.9337C20.6983 14.9157 20.6858 14.8975 20.6733 14.8793C20.6609 14.861 20.6483 14.8427 20.6357 14.8243L20.6169 14.7965L20.5965 14.7698C20.5693 14.7339 20.542 14.6977 20.5144 14.6613L20.4937 14.6338C20.4866 14.6248 20.479 14.6162 20.4717 14.6073C20.4569 14.5897 20.4421 14.572 20.4272 14.5542C20.4123 14.5364 20.3974 14.5184 20.3824 14.5005L20.36 14.4734C20.3522 14.4646 20.3441 14.4562 20.3362 14.4475C20.3043 14.4128 20.2721 14.3779 20.2398 14.3428L20.2155 14.3163L20.1899 14.2911C20.1728 14.2743 20.1556 14.2573 20.1384 14.2404C20.071 14.1706 19.9963 14.1073 19.9228 14.0404C19.8916 14.0132 19.8589 13.9874 19.8264 13.961L19.9764 13.3099L20.1177 12.6969C20.1985 12.7388 20.278 12.7825 20.3558 12.828C20.3839 12.8442 20.4119 12.8604 20.4398 12.8765C20.4671 12.8938 20.4942 12.911 20.5213 12.9282C20.5752 12.9631 20.63 12.9965 20.6826 13.0325C20.7866 13.1062 20.8915 13.1775 20.9888 13.2565C21.0135 13.2758 21.0381 13.2951 21.0627 13.3143L21.0995 13.3432L21.1349 13.3735C21.182 13.4141 21.2288 13.4544 21.2753 13.4945C21.2869 13.5047 21.2987 13.5145 21.31 13.5248L21.3434 13.5563C21.3655 13.5774 21.3877 13.5983 21.4097 13.6192C21.4318 13.6402 21.4537 13.6611 21.4757 13.6819C21.4865 13.6924 21.4977 13.7026 21.5083 13.7133L21.5396 13.7458C21.5812 13.7892 21.6225 13.8324 21.6635 13.8752L21.6942 13.9074L21.7233 13.9407C21.7427 13.963 21.762 13.9851 21.7812 14.0072C21.8004 14.0293 21.8196 14.0513 21.8386 14.0733C21.8577 14.0953 21.877 14.117 21.8945 14.1399C21.9303 14.1853 21.9658 14.2303 22.0011 14.2749C22.0185 14.2974 22.0366 14.3193 22.0531 14.3422C22.0696 14.3652 22.0859 14.388 22.1022 14.4108C22.1348 14.4564 22.167 14.5017 22.1989 14.5466C22.2297 14.5922 22.2587 14.6385 22.2881 14.6839C22.3027 14.7068 22.3173 14.7295 22.3318 14.752Z" fill="white"/>
</svg>
