<svg width="35" height="35" viewBox="0 0 35 35" fill="none" xmlns="http://www.w3.org/2000/svg">
<ellipse cx="17.5607" cy="17.5" rx="17.3583" ry="17.5" fill="#E36E2C"/>
<path d="M16.7024 9C12.008 9 8.20239 12.8056 8.20239 17.5C8.20239 22.1944 12.008 26 16.7024 26C21.3968 26 25.2024 22.1944 25.2024 17.5C25.2024 12.8056 21.3968 9 16.7024 9ZM23.8681 17.5C23.8681 18.4672 23.6786 19.4057 23.3048 20.2894C22.9439 21.1427 22.4273 21.909 21.7693 22.5669C21.1113 23.2249 20.345 23.7415 19.4917 24.1025C18.6081 24.4762 17.6696 24.6658 16.7024 24.6658C15.7352 24.6658 14.7967 24.4762 13.9131 24.1024C13.0597 23.7415 12.2934 23.2249 11.6355 22.5669C10.9775 21.9089 10.4609 21.1427 10.1 20.2893C9.72618 19.4057 9.53666 18.4672 9.53666 17.5C9.53666 16.5328 9.72618 15.5943 10.1 14.7106C10.4609 13.8573 10.9775 13.091 11.6355 12.4331C12.2934 11.7751 13.0597 11.2585 13.9131 10.8975C14.7967 10.5238 15.7352 10.3343 16.7024 10.3343C17.6696 10.3343 18.6081 10.5238 19.4917 10.8976C20.3451 11.2585 21.1114 11.7751 21.7693 12.4331C22.4273 13.091 22.9439 13.8573 23.3048 14.7107C23.6786 15.5944 23.8681 16.5328 23.8681 17.5Z" fill="white"/>
<path d="M16.7024 11.1395C15.0034 11.1395 13.4062 11.8011 12.2049 13.0025C11.0035 14.2038 10.3419 15.8011 10.3419 17.5C10.3419 19.199 11.0035 20.7962 12.2049 21.9976C13.4062 23.1989 15.0034 23.8605 16.7024 23.8605C18.4013 23.8605 19.9986 23.1989 21.1999 21.9976C22.4012 20.7962 23.0628 19.199 23.0628 17.5C23.0628 15.8011 22.4012 14.2038 21.1999 13.0025C19.9986 11.8011 18.4013 11.1395 16.7024 11.1395ZM18.6996 12.5189L18.5709 13.0775L18.4331 13.6756L17.5434 17.5374L17.4733 17.8414C17.4607 17.8946 17.4413 17.9512 17.4163 18.0024C17.2862 18.2684 17.0196 18.423 16.7421 18.423C16.6316 18.423 16.5193 18.3985 16.4134 18.3467C16.1043 18.1955 15.9458 17.86 16.0053 17.5373C16.0174 17.4717 16.0383 17.4066 16.0691 17.3437L17.9855 13.4236L18.2319 12.9197L18.468 12.4368C18.4718 12.429 18.4762 12.4222 18.4809 12.4158C18.5055 12.3821 18.5409 12.3669 18.5764 12.3669C18.6442 12.3669 18.7117 12.4213 18.7023 12.5029C18.7017 12.5081 18.7008 12.5135 18.6996 12.5189ZM11.2784 17.3605C11.2778 17.3316 11.2757 17.2995 11.2761 17.2639C11.2768 17.2284 11.2775 17.1895 11.2783 17.1475C11.2794 17.1055 11.2795 17.06 11.2815 17.0117C11.2849 16.9636 11.2885 16.9124 11.2923 16.8583C11.2942 16.8312 11.2961 16.8034 11.2981 16.7749C11.3009 16.7464 11.3049 16.7174 11.3084 16.6876C11.3159 16.628 11.3223 16.5653 11.3319 16.5003C11.3431 16.4355 11.3547 16.3681 11.3668 16.2981C11.372 16.2628 11.3814 16.228 11.389 16.1919C11.3971 16.1559 11.4053 16.1193 11.4137 16.0821C11.4844 15.7856 11.5918 15.4552 11.7517 15.1107C11.7609 15.0888 11.7716 15.0675 11.7825 15.0461C11.7933 15.0247 11.8041 15.0032 11.815 14.9815C11.837 14.9383 11.8585 14.8942 11.8817 14.8504C11.9061 14.8073 11.9307 14.7638 11.9556 14.7199C11.968 14.6979 11.9806 14.6758 11.9931 14.6536C12.0058 14.6314 12.0201 14.6102 12.0336 14.5883C12.0611 14.5448 12.0889 14.5008 12.1169 14.4566C12.1305 14.4341 12.1459 14.4128 12.161 14.3911C12.1762 14.3695 12.1914 14.3477 12.2067 14.3259C12.222 14.3041 12.2374 14.2821 12.2528 14.2601L12.2761 14.227L12.3009 14.1949C12.3341 14.1521 12.3676 14.1089 12.4013 14.0654L12.4267 14.0326C12.4353 14.0219 12.4445 14.0115 12.4534 14.0009C12.4715 13.9799 12.4895 13.9587 12.5077 13.9374C12.5258 13.9162 12.5441 13.8949 12.5624 13.8734L12.5899 13.8413C12.5993 13.8308 12.6092 13.8206 12.6188 13.8102C12.6577 13.7689 12.6968 13.7273 12.7362 13.6855L12.7659 13.6541L12.797 13.624C12.8178 13.6039 12.8386 13.5837 12.8595 13.5635C12.9418 13.4808 13.032 13.405 13.1216 13.326C13.167 13.2874 13.2147 13.2511 13.2617 13.2132C13.2854 13.1944 13.3091 13.1756 13.3328 13.1568C13.3574 13.139 13.382 13.1212 13.4067 13.1033C13.7995 12.8145 14.2509 12.5712 14.7401 12.3944C14.8017 12.3733 14.8635 12.3522 14.9253 12.3311C14.9875 12.3109 15.0508 12.2943 15.1139 12.2757L15.2089 12.2488L15.3051 12.2262L15.4017 12.2037C15.434 12.1964 15.4661 12.1879 15.4988 12.1827C15.564 12.1709 15.6293 12.1591 15.6947 12.1473C15.7111 12.1445 15.7275 12.1411 15.7439 12.1388L15.7934 12.1323L15.8925 12.1195L15.9918 12.1068C16.0249 12.1022 16.0582 12.1009 16.0915 12.0979L16.2916 12.0825C16.3161 12.0827 16.3017 12.0824 16.3087 12.0824L16.3144 12.0822L16.326 12.0819L16.3491 12.0811L16.3952 12.0797L16.4875 12.0768L16.5336 12.0753L16.5566 12.0746C16.5642 12.0743 16.5738 12.0748 16.5822 12.0748L16.6871 12.0772L16.7921 12.0799L16.8447 12.0813C16.8621 12.082 16.8784 12.0836 16.8953 12.0847C16.9624 12.0897 17.0295 12.0948 17.0965 12.0998C17.1302 12.1017 17.1634 12.1068 17.1968 12.1107L17.297 12.1233L17.3971 12.136L17.4965 12.1532C17.5626 12.1653 17.6292 12.1757 17.6948 12.1896C17.7604 12.2046 17.8258 12.2196 17.8911 12.2345C17.9439 12.2476 17.9963 12.2616 18.0486 12.2762L17.8099 12.7644L17.5739 13.2472C17.5264 13.2304 17.4789 13.2135 17.4312 13.1966C17.3796 13.1792 17.3269 13.1651 17.2745 13.149L17.1956 13.1255L17.1155 13.106L17.0352 13.0864C17.0083 13.08 16.9816 13.0724 16.9543 13.0679C16.8999 13.0575 16.8454 13.0471 16.7909 13.0366C16.7774 13.0341 16.7634 13.031 16.7502 13.029L16.711 13.0235L16.6325 13.0122L16.5536 13.0006C16.5467 12.9997 16.541 12.9984 16.5332 12.9978L16.5102 12.9959L16.4642 12.9922L16.3722 12.9846L16.3262 12.9808L16.3032 12.9789L16.2917 12.978L16.286 12.9775C16.2891 12.9774 16.2708 12.9771 16.2915 12.9772L16.1231 12.9711C16.095 12.9704 16.0667 12.968 16.0386 12.9688L15.9543 12.97L15.8697 12.9712L15.8274 12.9717C15.8133 12.972 15.7994 12.9734 15.7853 12.9742C15.729 12.9778 15.6728 12.9814 15.6166 12.985C15.5883 12.9861 15.5605 12.9904 15.5325 12.9934L15.4486 13.0032L15.3645 13.0128L15.2813 13.0265C15.2259 13.0363 15.1699 13.0441 15.1148 13.0552C15.0598 13.0673 15.0049 13.0793 14.9501 13.0913C14.513 13.1949 14.0939 13.3611 13.7159 13.5776C13.6921 13.591 13.6684 13.6043 13.6447 13.6176C13.6217 13.632 13.5987 13.6463 13.5758 13.6606C13.5302 13.6896 13.4836 13.7171 13.439 13.747C13.3512 13.8086 13.2618 13.8673 13.1794 13.9335C13.1584 13.9495 13.1374 13.9656 13.1166 13.9816L13.0852 14.0056L13.0552 14.0309C13.0152 14.0648 12.9754 14.0984 12.9358 14.1319C12.926 14.1403 12.9159 14.1485 12.9063 14.1571L12.878 14.1835C12.8591 14.2011 12.8403 14.2186 12.8215 14.2361C12.8027 14.2536 12.784 14.271 12.7653 14.2884C12.756 14.2971 12.7465 14.3056 12.7375 14.3146L12.7109 14.3418C12.6754 14.3782 12.6402 14.4143 12.6053 14.4501L12.579 14.477L12.5542 14.505C12.5377 14.5236 12.5213 14.5422 12.5049 14.5607C12.4885 14.5792 12.4721 14.5976 12.4559 14.616C12.4396 14.6344 12.423 14.6525 12.4081 14.6718C12.3776 14.7099 12.3472 14.7476 12.3172 14.7851C12.3023 14.8039 12.2866 14.8222 12.2725 14.8414C12.2585 14.8607 12.2446 14.8799 12.2307 14.899C12.2028 14.9373 12.1752 14.9753 12.1478 15.0129C12.1215 15.0512 12.0969 15.0902 12.0716 15.1283C12.059 15.1474 12.0465 15.1665 12.0341 15.1854C12.0215 15.2043 12.0092 15.2232 11.9982 15.2427C11.811 15.5492 11.6725 15.852 11.5719 16.1293C11.5598 16.1641 11.5479 16.1985 11.5362 16.2322C11.5249 16.2661 11.5118 16.2989 11.503 16.3323C11.4836 16.3987 11.4648 16.4627 11.4469 16.5242C11.4304 16.5862 11.4173 16.6463 11.4033 16.7036C11.3966 16.7323 11.3894 16.7603 11.3835 16.7878C11.3784 16.8154 11.3734 16.8424 11.3685 16.8686C11.3588 16.9212 11.3495 16.9711 11.3408 17.0179C11.3334 17.0649 11.3283 17.1092 11.3226 17.1504C11.317 17.1917 11.3119 17.2299 11.3072 17.2649C11.3028 17.3 11.3012 17.3323 11.2985 17.361C11.2891 17.476 11.284 17.5373 11.284 17.5373C11.284 17.5374 11.282 17.4758 11.2784 17.3605ZM21.3318 14.752C21.3463 14.7746 21.3607 14.7971 21.3736 14.8203C21.592 15.185 21.7527 15.5449 21.8686 15.8738C21.8826 15.9152 21.8963 15.9559 21.9098 15.9959C21.9229 16.0361 21.9375 16.0751 21.9479 16.1146C21.9702 16.1932 21.9916 16.2691 22.0122 16.342C22.031 16.4153 22.0462 16.4865 22.062 16.5542C22.0696 16.5882 22.0776 16.6213 22.0842 16.6538C22.0901 16.6864 22.0958 16.7183 22.1013 16.7492C22.1122 16.8114 22.1225 16.8702 22.1322 16.9256C22.1405 16.9811 22.1463 17.0334 22.1527 17.0821C22.1587 17.1308 22.1642 17.1759 22.1693 17.2172C22.1741 17.2586 22.1759 17.2962 22.1788 17.33C22.1886 17.4652 22.1938 17.5373 22.1938 17.5373H20.4043C20.4043 17.5373 20.4065 17.4865 20.4105 17.3914C20.4112 17.3676 20.4136 17.3408 20.4135 17.3115C20.4132 17.2822 20.4129 17.2503 20.4126 17.2157C20.4121 17.1811 20.4127 17.1437 20.4115 17.104C20.4092 17.0644 20.4067 17.0222 20.404 16.9776C20.4028 16.9553 20.4015 16.9323 20.4002 16.9088C20.3982 16.8853 20.3951 16.8615 20.3925 16.8369C20.3867 16.7879 20.3823 16.7361 20.3752 16.6825C20.3666 16.6291 20.3577 16.5734 20.3484 16.5158C20.3447 16.4866 20.337 16.4579 20.3311 16.4282C20.3248 16.3985 20.3184 16.3682 20.3119 16.3376C20.2565 16.0927 20.1714 15.8194 20.0427 15.5331C20.0353 15.5148 20.0266 15.4972 20.0177 15.4795C20.009 15.4617 20.0002 15.4438 19.9914 15.4258C19.9735 15.3899 19.9564 15.3531 19.9376 15.3167C19.9178 15.2808 19.8978 15.2446 19.8776 15.208C19.8676 15.1897 19.8575 15.1712 19.8473 15.1527C19.8371 15.1342 19.8253 15.1166 19.8143 15.0984C19.7919 15.062 19.7694 15.0253 19.7467 14.9884C19.7357 14.9695 19.7231 14.9518 19.7107 14.9337C19.6983 14.9157 19.6858 14.8975 19.6733 14.8793C19.6609 14.861 19.6483 14.8427 19.6357 14.8243L19.6169 14.7965L19.5965 14.7698C19.5693 14.7339 19.542 14.6977 19.5144 14.6613L19.4937 14.6338C19.4866 14.6248 19.479 14.6162 19.4717 14.6073C19.4569 14.5897 19.4421 14.572 19.4272 14.5542C19.4123 14.5364 19.3974 14.5184 19.3824 14.5005L19.36 14.4734C19.3522 14.4646 19.3441 14.4562 19.3362 14.4475C19.3043 14.4128 19.2721 14.3779 19.2398 14.3428L19.2155 14.3163L19.1899 14.2911C19.1728 14.2743 19.1556 14.2573 19.1384 14.2404C19.071 14.1706 18.9963 14.1073 18.9228 14.0404C18.8916 14.0132 18.8589 13.9874 18.8264 13.961L18.9764 13.3099L19.1177 12.6969C19.1985 12.7388 19.278 12.7825 19.3558 12.828C19.3839 12.8442 19.4119 12.8604 19.4398 12.8765C19.4671 12.8938 19.4942 12.911 19.5213 12.9282C19.5752 12.9631 19.63 12.9965 19.6826 13.0325C19.7866 13.1062 19.8915 13.1775 19.9888 13.2565C20.0135 13.2758 20.0381 13.2951 20.0627 13.3143L20.0995 13.3432L20.1349 13.3735C20.182 13.4141 20.2288 13.4544 20.2753 13.4945C20.2869 13.5047 20.2987 13.5145 20.31 13.5248L20.3434 13.5563C20.3655 13.5774 20.3877 13.5983 20.4097 13.6192C20.4318 13.6402 20.4537 13.6611 20.4757 13.6819C20.4865 13.6924 20.4977 13.7026 20.5083 13.7133L20.5396 13.7458C20.5812 13.7892 20.6225 13.8324 20.6635 13.8752L20.6942 13.9074L20.7233 13.9407C20.7427 13.963 20.762 13.9851 20.7812 14.0072C20.8004 14.0293 20.8196 14.0513 20.8386 14.0733C20.8577 14.0953 20.877 14.117 20.8945 14.1399C20.9303 14.1853 20.9658 14.2303 21.0011 14.2749C21.0185 14.2974 21.0366 14.3193 21.0531 14.3422C21.0696 14.3652 21.0859 14.388 21.1022 14.4108C21.1348 14.4564 21.167 14.5017 21.1989 14.5466C21.2297 14.5922 21.2587 14.6385 21.2881 14.6839C21.3027 14.7068 21.3173 14.7295 21.3318 14.752Z" fill="white"/>
</svg>
