<svg width="35" height="35" viewBox="0 0 35 35" fill="none" xmlns="http://www.w3.org/2000/svg">
<ellipse cx="17.5607" cy="17.5" rx="17.3583" ry="17.5" fill="#E36E2C"/>
<path d="M8.63642 12.6484C7.95082 14.2074 7.39462 15.5002 7.40242 15.5236C7.43382 15.6098 9.76842 18.2304 9.80762 18.2186C9.82722 18.2108 10.5832 17.4156 11.4802 16.4558L13.1136 14.7008L12.7884 14.2034C11.5506 12.3036 9.96802 9.89839 9.92882 9.85919C9.89782 9.82799 9.58042 10.5136 8.63642 12.6484Z" fill="white"/>
<path d="M21.4772 12.7502C21.1678 12.809 20.776 13.0322 19.9887 13.5886L19.2678 14.0978V14.6148C19.2678 15.124 19.2678 15.1318 19.162 15.2102C19.0444 15.3042 18.9348 15.2886 18.829 15.167C18.7742 15.1044 18.7584 15.0182 18.7584 14.7752V14.4618L18.6018 14.5872L18.4452 14.7126V15.3278C18.4452 15.8762 18.4375 15.9546 18.3749 16.0094C18.2299 16.1426 18.0027 16.0642 17.9557 15.8684C17.9439 15.8214 17.932 15.6294 17.9242 15.4414L17.9165 15.1006L17.7127 15.2182L17.505 15.3396V15.9938C17.505 16.597 17.4973 16.6558 17.4267 16.7224C17.3209 16.8164 17.1524 16.8086 17.0662 16.7028C17.0074 16.6284 16.9957 16.5382 16.9957 16.076V15.5394L16.7919 15.5982C16.6743 15.6296 16.4001 15.657 16.1729 15.657C15.7851 15.661 15.7067 15.6492 14.8567 15.418C13.8931 15.1594 13.6697 15.1282 13.5601 15.2456C13.2936 15.5238 10.2342 19.0336 10.2264 19.0728C10.2186 19.0962 10.5594 19.7622 10.9746 20.5456L11.7384 21.9714L13.1016 23.0564C13.8539 23.6518 14.4804 24.1414 14.4962 24.1414C14.5196 24.1454 16.4039 22.0966 16.4589 22.0026C16.4785 21.9712 16.3334 21.7714 16.0592 21.4542C15.5304 20.8432 15.5265 20.8236 15.8517 20.518C15.9731 20.4004 16.1298 20.2752 16.1925 20.2398C16.259 20.2046 16.7956 20.0948 17.395 19.997L18.4762 19.8168L20.8819 17.1768C22.2021 15.7274 23.3066 14.4974 23.334 14.4464C23.3614 14.3954 23.3928 14.2544 23.4046 14.129C23.4398 13.7804 23.3184 13.4984 22.9932 13.1732C22.7975 12.9774 22.6761 12.895 22.4997 12.8284C22.2292 12.7268 21.7788 12.6916 21.4772 12.7502Z" fill="white"/>
<path d="M25.0928 14.0038C24.9166 14.1408 19.7222 19.7974 19.6634 19.915C19.5538 20.1344 19.6242 20.2676 20.063 20.671C21.156 21.6816 21.2068 21.713 21.4694 21.5798C21.6496 21.4898 26.9104 15.7626 26.9732 15.5864C27.0554 15.3552 26.9966 15.269 26.3738 14.6932C26.0526 14.3916 25.7196 14.0978 25.6374 14.035C25.4492 13.898 25.2416 13.8824 25.0928 14.0038Z" fill="white"/>
<path d="M24.7402 18.8142C24.701 18.826 24.4072 19.1316 24.086 19.484C23.6512 19.962 23.5024 20.1578 23.4984 20.2322C23.4984 20.3184 23.6316 20.4398 24.3758 21.0236C25.2532 21.717 25.4138 21.807 25.4726 21.6542C25.504 21.5758 25.496 20.667 25.4648 19.8954C25.4334 19.2334 25.4374 19.2412 25.0888 18.9396C24.9008 18.775 24.8656 18.7632 24.7402 18.8142Z" fill="white"/>
</svg>
