<svg width="35" height="35" viewBox="0 0 35 35" fill="none" xmlns="http://www.w3.org/2000/svg">
<ellipse cx="17.5607" cy="17.5" rx="17.3583" ry="17.5" fill="#FCB632"/>
<path d="M8.63642 13.6484C7.95082 15.2074 7.39462 16.5002 7.40242 16.5236C7.43382 16.6098 9.76842 19.2304 9.80762 19.2186C9.82722 19.2108 10.5832 18.4156 11.4802 17.4558L13.1136 15.7008L12.7884 15.2034C11.5506 13.3036 9.96802 10.8984 9.92882 10.8592C9.89782 10.828 9.58042 11.5136 8.63642 13.6484Z" fill="white"/>
<path d="M21.4772 13.7502C21.1678 13.809 20.776 14.0322 19.9887 14.5886L19.2678 15.0978V15.6148C19.2678 16.124 19.2678 16.1318 19.162 16.2102C19.0444 16.3042 18.9348 16.2886 18.829 16.167C18.7742 16.1044 18.7584 16.0182 18.7584 15.7752V15.4618L18.6018 15.5872L18.4452 15.7126V16.3278C18.4452 16.8762 18.4375 16.9546 18.3749 17.0094C18.2299 17.1426 18.0027 17.0642 17.9557 16.8684C17.9439 16.8214 17.932 16.6294 17.9242 16.4414L17.9165 16.1006L17.7127 16.2182L17.505 16.3396V16.9938C17.505 17.597 17.4973 17.6558 17.4267 17.7224C17.3209 17.8164 17.1524 17.8086 17.0662 17.7028C17.0074 17.6284 16.9957 17.5382 16.9957 17.076V16.5394L16.7919 16.5982C16.6743 16.6296 16.4001 16.657 16.1729 16.657C15.7851 16.661 15.7067 16.6492 14.8567 16.418C13.8931 16.1594 13.6697 16.1282 13.5601 16.2456C13.2936 16.5238 10.2342 20.0336 10.2264 20.0728C10.2186 20.0962 10.5594 20.7622 10.9746 21.5456L11.7384 22.9714L13.1016 24.0564C13.8539 24.6518 14.4804 25.1414 14.4962 25.1414C14.5196 25.1454 16.4039 23.0966 16.4589 23.0026C16.4785 22.9712 16.3334 22.7714 16.0592 22.4542C15.5304 21.8432 15.5265 21.8236 15.8517 21.518C15.9731 21.4004 16.1298 21.2752 16.1925 21.2398C16.259 21.2046 16.7956 21.0948 17.395 20.997L18.4762 20.8168L20.8819 18.1768C22.2021 16.7274 23.3066 15.4974 23.334 15.4464C23.3614 15.3954 23.3928 15.2544 23.4046 15.129C23.4398 14.7804 23.3184 14.4984 22.9932 14.1732C22.7975 13.9774 22.6761 13.895 22.4997 13.8284C22.2292 13.7268 21.7788 13.6916 21.4772 13.7502Z" fill="white"/>
<path d="M25.0928 15.0038C24.9166 15.1408 19.7222 20.7974 19.6634 20.915C19.5538 21.1344 19.6242 21.2676 20.063 21.671C21.156 22.6816 21.2068 22.713 21.4694 22.5798C21.6496 22.4898 26.9104 16.7626 26.9732 16.5864C27.0554 16.3552 26.9966 16.269 26.3738 15.6932C26.0526 15.3916 25.7196 15.0978 25.6374 15.035C25.4492 14.898 25.2416 14.8824 25.0928 15.0038Z" fill="white"/>
<path d="M24.7402 19.8142C24.701 19.826 24.4072 20.1316 24.086 20.484C23.6512 20.962 23.5024 21.1578 23.4984 21.2322C23.4984 21.3184 23.6316 21.4398 24.3758 22.0236C25.2532 22.717 25.4138 22.807 25.4726 22.6542C25.504 22.5758 25.496 21.667 25.4648 20.8954C25.4334 20.2334 25.4374 20.2412 25.0888 19.9396C24.9008 19.775 24.8656 19.7632 24.7402 19.8142Z" fill="white"/>
</svg>
