<svg width="55" height="55" viewBox="0 0 55 55" fill="none" xmlns="http://www.w3.org/2000/svg">
<circle cx="27.5" cy="27.5" r="27.5" fill="#615AE4"/>
<g clip-path="url(#clip0_702_131)">
<path d="M31.5 40.0505V36.5C31.5 36.224 31.2765 36 31 36H30.3475C29.911 34.81 29.696 33.645 29.593 32.773C30.3885 32.532 31.097 32.096 31.7155 31.476C36.12 31.2415 40.5 28.8615 40.5 24C40.5 23.173 39.827 22.5 39 22.5H34.506C34.5105 22.2655 34.511 22.0655 34.5095 21.905C35.0855 21.6955 35.5 21.1475 35.5 20.5C35.5 19.673 34.827 19 34 19H22C21.173 19 20.5 19.673 20.5 20.5C20.5 21.1475 20.9145 21.6955 21.4905 21.905C21.489 22.0655 21.4895 22.2655 21.494 22.5H17C16.173 22.5 15.5 23.173 15.5 24C15.5 28.8615 19.88 31.2415 24.2845 31.476C24.903 32.096 25.6115 32.5325 26.407 32.773C26.304 33.6445 26.089 34.81 25.6525 36H25C24.7235 36 24.5 36.224 24.5 36.5V40.0505C23.3605 40.283 22.5 41.2925 22.5 42.5C22.5 42.776 22.7235 43 23 43H33C33.2765 43 33.5 42.776 33.5 42.5C33.5 41.293 32.6395 40.283 31.5 40.0505ZM39 23.5C39.276 23.5 39.5 23.7245 39.5 24C39.5 27.875 36.1805 29.93 32.583 30.393C32.8085 30.043 33.0075 29.6705 33.184 29.284C34.903 28.9475 37.7675 27.963 38.386 25.1055C38.4175 24.958 38.381 24.8035 38.2865 24.686C38.192 24.5685 38.0485 24.5 37.8975 24.5H34.3805C34.418 24.146 34.4455 23.8105 34.465 23.5H39ZM34.25 25.5H37.2205C36.574 27.0715 34.9255 27.8105 33.6255 28.1565C33.92 27.2715 34.1175 26.358 34.25 25.5ZM22 20H34C34.276 20 34.5 20.2245 34.5 20.5C34.5 20.7755 34.276 21 34 21H22C21.724 21 21.5 20.7755 21.5 20.5C21.5 20.2245 21.724 20 22 20ZM22.375 28.1565C21.075 27.8105 19.4265 27.071 18.78 25.5H21.7505C21.883 26.358 22.0805 27.2715 22.375 28.1565ZM16.5 24C16.5 23.7245 16.724 23.5 17 23.5H21.5355C21.555 23.8105 21.5825 24.146 21.62 24.5H18.103C17.9515 24.5 17.8085 24.5685 17.714 24.686C17.6195 24.8035 17.5825 24.958 17.6145 25.1055C18.233 27.9625 21.0975 28.9475 22.8165 29.284C22.9925 29.6705 23.192 30.043 23.4175 30.393C19.82 29.9295 16.5005 27.875 16.5005 24H16.5ZM22.492 22H33.5075C33.5075 23.5315 33.3225 28.356 31.0795 30.7025C30.2445 31.5755 29.237 32 28 32C26.763 32 25.7555 31.5755 24.9205 30.7025C22.6775 28.3565 22.492 23.532 22.4925 22H22.492ZM27.391 32.967C27.59 32.9875 27.792 33 28 33C28.208 33 28.41 32.9875 28.609 32.967C28.712 33.803 28.911 34.88 29.2865 36H26.714C27.0895 34.8795 27.2885 33.8025 27.3915 32.967H27.391ZM30.5 37V40H25.5V37H30.5ZM23.5855 42C23.792 41.418 24.348 41 25 41H31C31.652 41 32.208 41.418 32.4145 42H23.5855Z" fill="white"/>
<path d="M29.43 29.0596C29.503 29.0981 29.583 29.1171 29.6625 29.1171C29.766 29.1171 29.869 29.0851 29.9565 29.0216C30.1105 28.9096 30.1875 28.7201 30.155 28.5326L29.882 26.9401L31.0385 25.8126C31.1745 25.6796 31.2235 25.4811 31.165 25.3001C31.106 25.1191 30.9495 24.9871 30.761 24.9596L29.1625 24.7276L28.4475 23.2791C28.2795 22.9376 27.719 22.9376 27.551 23.2791L26.836 24.7276L25.2375 24.9596C25.049 24.9871 24.893 25.1191 24.8335 25.3001C24.775 25.4811 24.8235 25.6796 24.96 25.8126L26.1165 26.9401L25.8435 28.5326C25.8115 28.7201 25.8885 28.9096 26.042 29.0216C26.197 29.1336 26.4015 29.1481 26.5685 29.0596L27.9985 28.3081L29.4285 29.0596H29.43ZM27.0015 27.7031L27.1475 26.8501C27.1755 26.6881 27.1215 26.5226 27.004 26.4076L26.3845 25.8036L27.241 25.6791C27.404 25.6556 27.5445 25.5531 27.6175 25.4056L28.0005 24.6301L28.3835 25.4056C28.4565 25.5531 28.597 25.6556 28.76 25.6791L29.6165 25.8036L28.997 26.4076C28.8795 26.5221 28.8255 26.6881 28.8535 26.8501L28.9995 27.7031L28.2335 27.3001C28.1605 27.2616 28.081 27.2426 28.001 27.2426C27.921 27.2426 27.8415 27.2616 27.7685 27.3001L27.0025 27.7031H27.0015Z" fill="white"/>
<path d="M26.5 38H29.5V39H26.5V38Z" fill="white"/>
<path d="M28 15C28.2765 15 28.5 14.776 28.5 14.5V11.5C28.5 11.224 28.2765 11 28 11C27.7235 11 27.5 11.224 27.5 11.5V14.5C27.5 14.776 27.7235 15 28 15Z" fill="white"/>
<path d="M23.52 16.1917C23.5995 16.3842 23.786 16.5007 23.982 16.5007C24.046 16.5007 24.111 16.4882 24.1735 16.4622C24.4285 16.3567 24.5495 16.0642 24.444 15.8087L23.296 13.0372C23.1905 12.7822 22.897 12.6622 22.6425 12.7667C22.3875 12.8722 22.2665 13.1647 22.372 13.4202L23.52 16.1917Z" fill="white"/>
<path d="M18.1465 16.9751C18.244 17.0726 18.372 17.1216 18.5 17.1216C18.628 17.1216 18.756 17.0726 18.8535 16.9751C19.049 16.7796 19.049 16.4636 18.8535 16.2681L16.7325 14.1466C16.537 13.9511 16.221 13.9511 16.0255 14.1466C15.83 14.3421 15.83 14.6581 16.0255 14.8536L18.1465 16.9751Z" fill="white"/>
<path d="M13.3085 19.9621L16.08 21.1101C16.1425 21.1361 16.2075 21.1486 16.2715 21.1486C16.4675 21.1486 16.654 21.0321 16.7335 20.8396C16.839 20.5846 16.718 20.2921 16.463 20.1861L13.6915 19.0381C13.437 18.9326 13.1435 19.0536 13.038 19.3086C12.9325 19.5636 13.0535 19.8561 13.3085 19.9621Z" fill="white"/>
<path d="M37.5 17.1216C37.628 17.1216 37.756 17.0726 37.8535 16.9751L39.9745 14.8536C40.17 14.6581 40.17 14.3421 39.9745 14.1466C39.779 13.9511 39.463 13.9511 39.2675 14.1466L37.1465 16.2681C36.951 16.4636 36.951 16.7796 37.1465 16.9751C37.244 17.0726 37.372 17.1216 37.5 17.1216Z" fill="white"/>
<path d="M39.2665 20.8395C39.346 21.032 39.5325 21.1485 39.7285 21.1485C39.7925 21.1485 39.8575 21.136 39.92 21.11L42.6915 19.962C42.9465 19.8565 43.0675 19.564 42.962 19.3085C42.8565 19.053 42.563 18.933 42.3085 19.038L39.537 20.186C39.282 20.2915 39.161 20.584 39.2665 20.8395Z" fill="white"/>
<path d="M14.5 26.5H12.5C12.2235 26.5 12 26.724 12 27C12 27.276 12.2235 27.5 12.5 27.5H14.5C14.7765 27.5 15 27.276 15 27C15 26.724 14.7765 26.5 14.5 26.5Z" fill="white"/>
<path d="M18.761 30.8263C18.6555 30.5708 18.3615 30.4513 18.1075 30.5558L15.336 31.7038C15.081 31.8093 14.96 32.1018 15.0655 32.3573C15.145 32.5498 15.3315 32.6663 15.5275 32.6663C15.5915 32.6663 15.6565 32.6538 15.719 32.6278L18.4905 31.4798C18.7455 31.3743 18.8665 31.0818 18.761 30.8263Z" fill="white"/>
<path d="M20.2215 34.0709L18.1465 36.1464C17.951 36.3419 17.951 36.6579 18.1465 36.8534C18.244 36.9509 18.372 36.9999 18.5 36.9999C18.628 36.9999 18.756 36.9509 18.8535 36.8534L20.9285 34.7779C21.124 34.5824 21.124 34.2664 20.9285 34.0709C20.733 33.8754 20.417 33.8754 20.2215 34.0709Z" fill="white"/>
<path d="M35.7785 34.0709C35.583 33.8754 35.267 33.8754 35.0715 34.0709C34.876 34.2664 34.876 34.5824 35.0715 34.7779L37.1465 36.8534C37.244 36.9509 37.372 36.9999 37.5 36.9999C37.628 36.9999 37.756 36.9509 37.8535 36.8534C38.049 36.6579 38.049 36.3419 37.8535 36.1464L35.7785 34.0709Z" fill="white"/>
<path d="M40.6635 31.7047L37.892 30.5567C37.638 30.4522 37.344 30.5722 37.2385 30.8272C37.133 31.0822 37.254 31.3747 37.509 31.4807L40.2805 32.6287C40.343 32.6547 40.408 32.6672 40.472 32.6672C40.668 32.6672 40.8545 32.5507 40.934 32.3582C41.0395 32.1032 40.9185 31.8107 40.6635 31.7047Z" fill="white"/>
<path d="M43.5 26.5H41.5C41.2235 26.5 41 26.724 41 27C41 27.276 41.2235 27.5 41.5 27.5H43.5C43.7765 27.5 44 27.276 44 27C44 26.724 43.7765 26.5 43.5 26.5Z" fill="white"/>
<path d="M31.8265 16.4622C31.889 16.4882 31.954 16.5007 32.018 16.5007C32.214 16.5007 32.4005 16.3842 32.48 16.1917L33.628 13.4202C33.7335 13.1652 33.6125 12.8727 33.3575 12.7667C33.104 12.6622 32.8095 12.7822 32.704 13.0372L31.556 15.8087C31.4505 16.0637 31.5715 16.3562 31.8265 16.4622Z" fill="white"/>
</g>
<defs>
<clipPath id="clip0_702_131">
<rect width="32" height="32" fill="white" transform="translate(12 11)"/>
</clipPath>
</defs>
</svg>
