<svg width="35" height="35" viewBox="0 0 35 35" fill="none" xmlns="http://www.w3.org/2000/svg">
<ellipse cx="17.5607" cy="17.5" rx="17.3583" ry="17.5" fill="#00AA63"/>
<path d="M8.86145 8C9.09666 8.12858 9.32518 8.26206 9.55297 8.39885C9.85176 8.59608 10.1459 8.79583 10.421 9.01414C11.3245 9.73118 12.0702 10.5595 12.6694 11.4553C13.2873 12.3791 13.756 13.3637 14.1211 14.3681C14.5012 15.4138 14.7661 16.4863 14.9512 17.5644C15.1369 18.6467 15.2417 19.7376 15.2836 20.8292C15.3221 21.8333 15.3077 22.8387 15.243 23.8419C15.2143 24.2872 15.1756 24.7322 15.1247 25.1763C15.1023 25.3719 15.0774 25.5675 15.0493 25.7627C15.0349 25.8616 15.0199 25.9603 15.0034 26.0589C14.9889 26.1449 14.9816 26.2364 14.9512 26.3198L18.9867 26.3009C18.9905 26.0006 18.9866 25.7004 18.9703 25.4004L20.4506 25.3995C20.4573 25.3995 20.4802 25.7852 20.482 25.8108C20.4928 25.9718 20.5012 26.1328 20.5077 26.2938L24.5432 26.2749C24.4562 25.6298 24.305 24.9885 24.1487 24.3521C23.9158 23.404 23.6414 22.4622 23.3292 21.5287C22.9904 20.5161 22.6067 19.5128 22.1721 18.5237C21.7205 17.4956 21.2144 16.4818 20.6407 15.493C20.0735 14.5154 19.4426 13.5596 18.7277 12.6452C18.0268 11.7487 17.2477 10.8892 16.3722 10.0955C15.5152 9.31868 14.564 8.606 13.5106 8.00004L8.86145 8ZM18.5776 21.3692C18.5304 21.0951 18.4353 20.755 18.4353 20.755L19.7055 20.7539C19.7303 20.8628 19.7551 20.9717 19.7798 21.0806C19.9887 21.9985 20.1334 22.9223 20.2831 23.847L18.8845 23.8458C18.8082 23.0179 18.7105 22.1926 18.5776 21.3692C18.6219 21.6437 18.5304 21.0951 18.5776 21.3692ZM17.3627 16.5739C17.3348 16.4965 17.2318 16.2816 17.2318 16.2816L18.2459 16.2208C18.321 16.3986 18.394 16.5769 18.4653 16.7557C18.8019 17.5991 19.0801 18.4559 19.3324 19.3175L18.1692 19.3206C18.0633 18.8753 17.9468 18.432 17.8201 17.9902C17.6838 17.5157 17.5375 17.0404 17.3627 16.5739C17.3916 16.651 17.3347 16.4964 17.3627 16.5739ZM15.2226 12.2629C15.2095 12.2441 15.0657 12.0152 15.0657 12.0152L15.8285 11.9495C15.995 12.1679 16.1518 12.3912 16.3046 12.6158C16.6228 13.0835 16.9183 13.5613 17.1885 14.0479C17.3503 14.3394 17.5034 14.6333 17.673 14.9222L16.6964 14.9201C16.6956 14.9184 16.6948 14.9167 16.694 14.915C16.4887 14.4658 16.2677 14.0222 16.0286 13.5837C15.7844 13.1359 15.5209 12.6898 15.2226 12.2629C15.2358 12.2817 15.2096 12.2441 15.2226 12.2629ZM11.752 8.6937C11.732 8.67919 11.2542 8.37797 11.2542 8.37797L12.0201 8.38423C12.0932 8.42689 12.1609 8.47637 12.2307 8.52234C12.3232 8.58324 12.4169 8.64337 12.5062 8.70731C12.6914 8.8399 12.8753 8.97272 13.0541 9.11075C13.5051 9.45885 13.9299 9.8302 14.3227 10.2205C14.5358 10.4323 14.741 10.6491 14.9475 10.865L14.1533 10.8641C14.1463 10.8562 14.1393 10.8484 14.1323 10.8406C13.791 10.4588 13.4399 10.0825 13.0492 9.73145C12.8303 9.53477 12.6082 9.34057 12.3725 9.15645C12.1699 8.9982 11.9621 8.84562 11.752 8.6937C11.7719 8.70817 11.732 8.67923 11.752 8.6937Z" fill="white"/>
<g clip-path="url(#clip0_737_1783)">
<rect x="17.9802" y="17.8141" width="2.19048" height="3.92567" fill="white"/>
<path fill-rule="evenodd" clip-rule="evenodd" d="M16.6494 18.1316C16.7622 18.4275 16.854 18.7667 16.939 19.1305C16.7271 19.1818 16.5717 19.2375 16.4531 19.3362C16.3863 19.3918 16.3444 19.4463 16.3321 19.5279C16.325 19.5872 16.3507 19.6227 16.3953 19.6263C16.4709 19.6328 16.7431 19.5396 16.8282 19.5022C16.8645 19.4863 16.8938 19.4694 16.9044 19.4528C16.9108 19.4428 16.9153 19.4315 16.9177 19.4187C16.9279 19.3636 16.8937 19.3114 16.928 19.2544C16.9363 19.2407 16.9474 19.2315 16.9608 19.225C17.1409 20.0152 17.2948 20.9118 17.561 21.7318C17.7025 22.2794 17.8086 22.6272 18.5501 22.8073C19.2738 22.9831 20.4494 22.6911 20.9149 22.1294C21.3195 21.6412 21.2178 21.3777 21.0913 20.888C20.9459 19.9804 20.6716 19.1863 20.4351 18.3971C20.4466 18.3981 20.4578 18.4014 20.4688 18.408C20.5268 18.4429 20.522 18.5045 20.5578 18.5486C20.5662 18.5588 20.5756 18.5668 20.5861 18.5727C20.6036 18.5826 20.6377 18.5844 20.6775 18.5821C20.7709 18.5768 21.0568 18.5366 21.1205 18.4968C21.1581 18.4735 21.1636 18.4306 21.1284 18.3814C21.0779 18.3148 21.0144 18.2855 20.9283 18.2665C20.7774 18.2332 20.6151 18.2529 20.4067 18.3016C20.3104 17.9765 20.2221 17.6515 20.1528 17.319C19.7242 15.2635 16.0116 16.4573 16.6494 18.1316ZM17.4263 16.7287C17.0231 16.9673 16.7617 17.2707 16.7266 17.6664C16.9995 17.3895 17.3234 16.9917 17.4263 16.7287ZM18.7862 16.3476C19.2585 16.3769 19.6373 16.5273 19.8606 16.8613C19.4848 16.7394 19.005 16.5337 18.7862 16.3476ZM17.9994 21.5226L18.0508 21.187C18.9069 21.0943 19.7669 20.8802 20.4288 20.6165L20.6203 20.8761C19.7874 21.463 19.0705 21.6765 17.9994 21.5226ZM20.7428 20.4097C20.722 19.9579 20.5347 19.2998 20.3192 18.8956C20.2796 19.543 20.4116 19.8714 20.7428 20.4097ZM17.4957 19.6422L17.1826 19.0848C17.6944 18.1926 19.2946 17.8633 20.1613 18.3728L20.1159 19.0158C19.1818 19.0466 18.3133 19.2698 17.4957 19.6422ZM17.6596 21.1467C17.4582 20.7381 17.3036 20.0722 17.2973 19.6179C17.6471 20.1722 17.6904 20.5219 17.6596 21.1467Z" fill="#00AA63" stroke="#00AA63" stroke-width="0.1" stroke-miterlimit="22.926"/>
</g>
<defs>
<clipPath id="clip0_737_1783">
<rect width="4.95874" height="6.6774" fill="white" transform="matrix(0.9726 -0.232486 0.250047 0.968234 15.6365 16.8879)"/>
</clipPath>
</defs>
</svg>
