<svg width="423" height="337" viewBox="0 0 423 337" fill="none" xmlns="http://www.w3.org/2000/svg">
<path d="M335 67H421" stroke="black" stroke-dasharray="2 2"/>
<path d="M74.5667 167.862L84.5667 173.635V162.088L74.5667 167.862ZM161.574 167.862V168.862H162.066L162.366 168.472L161.574 167.862ZM175.367 149.927L176.183 149.349L175.399 148.245L174.575 149.318L175.367 149.927ZM83.5667 168.862H161.574V166.862H83.5667V168.862ZM162.366 168.472L176.16 150.537L174.575 149.318L160.781 167.252L162.366 168.472ZM174.552 150.506L187.285 168.441L188.915 167.283L176.183 149.349L174.552 150.506Z" fill="#AFABAB"/>
<path d="M288.533 167.862L278.533 162.088V173.635L288.533 167.862ZM203.2 167.862V166.862H202.741L202.442 167.209L203.2 167.862ZM189.671 183.554L188.889 184.177L189.64 185.122L190.429 184.207L189.671 183.554ZM279.533 166.862H203.2V168.862H279.533V166.862ZM202.442 167.209L188.914 182.901L190.429 184.207L203.957 168.515L202.442 167.209ZM190.454 182.932L177.966 167.239L176.401 168.485L188.889 184.177L190.454 182.932Z" fill="#AFABAB"/>
<path d="M127.067 331.996C150.591 337.548 175.019 337.692 198.603 332.417C222.187 327.142 244.343 316.579 263.487 301.484C282.63 286.389 298.287 267.135 309.336 245.101C320.385 223.067 326.553 198.797 327.399 174.029C328.246 149.261 323.749 124.607 314.23 101.832C304.712 79.057 290.408 58.7242 272.342 42.289C254.276 25.8538 232.894 13.7226 209.728 6.76385C186.562 -0.194892 162.184 -1.80914 138.34 2.03667L143.094 33.116C162.477 29.9898 182.294 31.302 201.125 36.9587C219.956 42.6153 237.337 52.4766 252.023 65.8365C266.708 79.1965 278.336 95.7247 286.073 114.238C293.811 132.752 297.466 152.792 296.778 172.926C296.09 193.06 291.076 212.788 282.095 230.7C273.113 248.611 260.386 264.262 244.825 276.532C229.263 288.803 211.252 297.389 192.081 301.677C172.91 305.965 153.053 305.849 133.931 301.335L127.067 331.996Z" fill="#FCB632"/>
<path d="M334.865 65.9429L304.484 109.272L283.129 60.5918L334.865 65.9429Z" fill="#FCB632"/>
<path d="M357.645 175.109L311.368 199.456L313.971 146.133L357.645 175.109Z" fill="#FCB632"/>
<path d="M317.711 288.441L265.798 285.396L294.323 240.756L317.711 288.441Z" fill="#FCB632"/>
<path d="M223.625 97.8057C223.625 114.566 210.396 128.13 194.104 128.13C177.813 128.13 164.583 114.566 164.583 97.8057C164.583 81.0452 177.813 67.481 194.104 67.481C210.396 67.481 223.625 81.0452 223.625 97.8057Z" stroke="#AFABAB"/>
<path d="M223.625 235.676C223.625 252.437 210.396 266.001 194.104 266.001C177.813 266.001 164.583 252.437 164.583 235.676C164.583 218.916 177.813 205.352 194.104 205.352C210.396 205.352 223.625 218.916 223.625 235.676Z" stroke="#AFABAB"/>
<path fill-rule="evenodd" clip-rule="evenodd" d="M198.295 226.139C199.29 224.955 199.96 223.306 199.777 221.665C198.343 221.721 196.608 222.605 195.58 223.788C194.657 224.837 193.852 226.514 194.068 228.123C195.667 228.245 197.3 227.324 198.295 226.139ZM201.881 236.552C201.921 240.793 205.662 242.204 205.703 242.222C205.673 242.322 205.106 244.232 203.733 246.208C202.545 247.915 201.312 249.614 199.371 249.651C197.464 249.686 196.85 248.538 194.668 248.538C192.488 248.538 191.807 249.614 190.002 249.685C188.128 249.754 186.7 247.839 185.503 246.138C183.055 242.659 181.186 236.307 183.697 232.02C184.945 229.891 187.173 228.541 189.593 228.508C191.433 228.473 193.17 229.726 194.294 229.726C195.419 229.726 197.53 228.219 199.749 228.441C200.678 228.479 203.286 228.809 204.959 231.22C204.824 231.303 201.848 233.007 201.881 236.552Z" fill="black"/>
<path fill-rule="evenodd" clip-rule="evenodd" d="M197.36 89.3994C196.91 89.3994 196.546 89.0353 196.546 88.5855C196.546 88.1357 196.91 87.7733 197.36 87.7733C197.811 87.7733 198.175 88.1357 198.175 88.5855C198.175 89.0353 197.811 89.3994 197.36 89.3994ZM190.848 89.3994C190.398 89.3994 190.033 89.0353 190.033 88.5855C190.033 88.1357 190.398 87.7733 190.848 87.7733C191.298 87.7733 191.662 88.1357 191.662 88.5855C191.662 89.0353 191.298 89.3994 190.848 89.3994ZM197.842 86.1405L198.145 85.6825L198.449 85.231L199.125 84.2161C199.209 84.0909 199.174 83.9228 199.049 83.8404C198.925 83.7564 198.755 83.791 198.674 83.9162L197.642 85.46L197.332 85.9246C196.351 85.5441 195.258 85.3315 194.104 85.3315C192.952 85.3315 191.857 85.5441 190.876 85.9246L190.568 85.46L190.263 85.0036L189.537 83.9162C189.453 83.791 189.285 83.758 189.16 83.8404C189.036 83.9228 189.001 84.0909 189.084 84.2161L189.76 85.231L190.063 85.6825L190.368 86.1405C188.065 87.2131 186.507 89.2446 186.507 91.5694H201.702C201.702 89.2446 200.143 87.2131 197.842 86.1405ZM186.624 92.6535H186.507V104.586C186.507 105.533 187.277 106.304 188.226 106.304H189.466C189.423 106.447 189.4 106.597 189.4 106.755V110.191C189.4 111.089 190.131 111.817 191.029 111.817C191.928 111.817 192.658 111.089 192.658 110.191V106.755C192.658 106.597 192.634 106.447 192.592 106.304H195.616C195.575 106.447 195.552 106.597 195.552 106.755V110.191C195.552 111.089 196.28 111.817 197.179 111.817C198.079 111.817 198.81 111.089 198.81 110.191V106.755C198.81 106.597 198.785 106.447 198.742 106.304H199.984C200.933 106.304 201.702 105.533 201.702 104.586V92.6535H186.624ZM183.793 92.6535C182.893 92.6535 182.164 93.3817 182.164 94.2797V101.241C182.164 102.139 182.893 102.867 183.793 102.867C184.692 102.867 185.42 102.139 185.42 101.241V94.2797C185.42 93.3817 184.692 92.6535 183.793 92.6535ZM204.417 92.6535C203.517 92.6535 202.788 93.3817 202.788 94.2797V101.241C202.788 102.139 203.517 102.867 204.417 102.867C205.316 102.867 206.044 102.139 206.044 101.241V94.2797C206.044 93.3817 205.316 92.6535 204.417 92.6535Z" fill="black"/>
<path d="M45.6391 172.771C45.6668 172.623 45.6656 172.471 45.6356 172.323C45.6056 172.175 45.5474 172.035 45.4644 171.911C45.3813 171.786 45.2751 171.68 45.1518 171.598C45.0285 171.516 44.8906 171.46 44.7461 171.433C44.6016 171.406 44.4533 171.409 44.3098 171.442C44.1664 171.474 44.0306 171.535 43.9103 171.622C43.79 171.708 43.6876 171.818 43.6091 171.946C43.5305 172.073 43.4774 172.215 43.4527 172.364C42.2504 179.173 36.3014 186.088 27.2542 186.15C26.9674 186.148 26.6903 186.256 26.4781 186.454C26.2658 186.652 26.1341 186.925 26.1092 187.219C26.0995 187.374 26.1211 187.53 26.1724 187.677C26.2238 187.824 26.3039 187.958 26.4078 188.072C26.5117 188.185 26.6372 188.276 26.7765 188.338C26.9159 188.4 27.0661 188.432 27.2179 188.432H27.223C31.8935 188.41 36.2047 186.824 39.5759 183.713C43.8504 179.767 45.2014 175.249 45.6391 172.771Z" fill="black"/>
<path d="M66.5489 161.751C65.2257 160.648 63.6881 159.847 62.0391 159.403L62.0262 159.383C62.5569 156.474 62.0204 153.467 60.5199 150.941C59.0195 148.414 56.6613 146.548 53.9001 145.701C51.2178 144.885 48.3398 145.08 45.7853 146.251L45.7636 146.245C43.382 142.717 39.9311 140.096 35.9482 138.791C31.9653 137.486 27.6739 137.571 23.7424 139.031C19.8109 140.491 16.4599 143.244 14.2113 146.863C11.9627 150.482 10.9426 154.763 11.31 159.039L11.2933 159.059C8.22909 159.283 5.48458 160.492 3.46476 162.533C1.23041 164.79 0 167.895 0 171.276C0.0051337 174.093 0.949565 176.824 2.67618 179.013C4.19056 180.925 6.42741 183.153 10.3139 183.42C10.3648 183.423 10.3802 183.424 24.7915 183.46C28.6435 183.456 32.3366 181.883 35.0604 179.086C37.7843 176.289 39.3165 172.497 39.3209 168.542V164.727C39.3209 164.722 39.3229 164.717 39.3263 164.714C39.3297 164.71 39.3343 164.708 39.3391 164.708H42.1746C42.4925 164.714 42.8002 164.593 43.0329 164.37C43.236 164.171 43.365 163.906 43.3978 163.62C43.4306 163.334 43.365 163.045 43.2124 162.804L36.5523 152.269C36.4435 152.097 36.2943 151.955 36.1184 151.857C35.9425 151.759 35.7454 151.708 35.5453 151.708C35.3451 151.708 35.148 151.759 34.9721 151.857C34.7962 151.955 34.6471 152.097 34.5384 152.27L27.8783 162.804C27.7261 163.046 27.6608 163.334 27.6937 163.62C27.7266 163.906 27.8556 164.171 28.0585 164.369C28.291 164.592 28.5986 164.714 28.9165 164.708H32.5549C32.8432 164.712 33.1223 164.604 33.3361 164.406C33.5499 164.207 33.6825 163.933 33.7072 163.638C33.7166 163.482 33.6949 163.327 33.6434 163.18C33.5919 163.034 33.5118 162.9 33.4079 162.786C33.304 162.673 33.1786 162.582 33.0394 162.52C32.9002 162.458 32.7501 162.427 32.5984 162.427H30.7991C30.7959 162.426 30.7927 162.426 30.79 162.424C30.7872 162.422 30.7849 162.42 30.7834 162.417C30.7818 162.414 30.7811 162.411 30.7811 162.407C30.7812 162.404 30.7822 162.401 30.7839 162.398L35.5302 154.891C35.5318 154.888 35.534 154.886 35.5367 154.885C35.5394 154.883 35.5423 154.882 35.5453 154.882C35.5484 154.882 35.5513 154.883 35.554 154.885C35.5567 154.886 35.5589 154.888 35.5605 154.891L40.3068 162.398C40.3085 162.401 40.3095 162.404 40.3096 162.407C40.3096 162.411 40.3089 162.414 40.3073 162.417C40.3058 162.42 40.3035 162.422 40.3007 162.424C40.298 162.426 40.2948 162.426 40.2916 162.427H38.2094C38.0635 162.427 37.9191 162.456 37.7843 162.513C37.6495 162.571 37.527 162.655 37.4239 162.761C37.3207 162.867 37.2389 162.992 37.183 163.131C37.1272 163.269 37.0985 163.417 37.0985 163.567C37.0985 163.573 37.0985 163.579 37.0993 163.585C37.1001 163.591 37.0985 163.597 37.0985 163.602V168.542C37.0948 171.892 35.7973 175.104 33.4906 177.473C31.1838 179.841 28.0562 181.174 24.7937 181.179C20.0194 181.167 11.0332 181.144 10.4316 181.141H10.4303C7.43538 180.924 5.7012 179.217 4.40025 177.575C2.99496 175.792 2.22628 173.569 2.22202 171.276C2.22202 168.512 3.21669 165.984 5.0228 164.16C6.92149 162.242 9.52255 161.254 12.5447 161.306L12.6774 161.308C12.8231 161.31 12.9675 161.28 13.1006 161.219C13.2336 161.158 13.3521 161.068 13.4477 160.955C13.5433 160.842 13.6137 160.709 13.6539 160.566C13.6942 160.422 13.7034 160.271 13.6808 160.123L13.6602 159.988C13.0608 156.067 13.8029 152.053 15.7604 148.63C17.7179 145.206 20.7698 142.585 24.3971 141.211C28.0245 139.837 32.0033 139.796 35.6569 141.094C39.3105 142.393 42.4132 144.951 44.4375 148.333L44.6221 148.641C44.7229 148.81 44.8834 148.932 45.0698 148.981C45.2562 149.031 45.4541 149.004 45.6219 148.907L45.9293 148.73C47.0351 148.093 48.2539 147.691 49.5137 147.546C50.7735 147.402 52.0487 147.518 53.2641 147.888C54.4975 148.262 55.6427 148.893 56.6286 149.742C57.6145 150.59 58.4201 151.637 58.9953 152.818C60.0806 155.069 60.2879 157.66 59.5749 160.063L59.5708 160.077C59.5301 160.217 59.5191 160.365 59.5387 160.51C59.5582 160.655 59.6077 160.794 59.684 160.918C59.7602 161.042 59.8614 161.147 59.9807 161.228C60.1 161.308 60.2346 161.361 60.3756 161.383L60.3901 161.385C61.7575 161.592 63.0677 162.089 64.2367 162.846C65.3932 163.604 66.3807 164.604 67.1345 165.781C67.8884 166.958 68.3916 168.285 68.6112 169.676C68.8308 171.066 68.7619 172.488 68.4089 173.85C68.0559 175.211 67.4268 176.48 66.5628 177.574C64.9104 179.66 63.2558 181.065 60.5573 181.142C60.2385 181.142 53.7486 181.143 48.3498 181.144C48.0595 181.144 47.7812 181.262 47.5757 181.473C47.3703 181.683 47.2547 181.969 47.2541 182.267V182.3C47.2538 182.448 47.2819 182.594 47.3369 182.731C47.3919 182.868 47.4726 182.992 47.5744 183.097C47.6762 183.202 47.7972 183.285 47.9303 183.342C48.0635 183.398 48.2062 183.428 48.3503 183.428C53.9321 183.428 60.5908 183.423 60.6018 183.423C64.3756 183.321 66.6038 181.137 68.2863 179.014C70.282 176.487 71.2198 173.25 70.8941 170.014C70.5684 166.777 69.0057 163.806 66.5489 161.751Z" fill="black"/>
<path d="M23.0941 186.15H20.7971C20.65 186.147 20.5038 186.173 20.3669 186.228C20.2299 186.284 20.105 186.366 19.9994 186.471C19.8937 186.576 19.8095 186.702 19.7515 186.841C19.6934 186.979 19.6628 187.129 19.6614 187.28C19.66 187.431 19.6878 187.58 19.7432 187.72C19.7986 187.86 19.8805 187.987 19.9842 188.094C20.0878 188.202 20.2112 188.287 20.3471 188.344C20.4829 188.402 20.6286 188.432 20.7757 188.431H23.0727C23.2198 188.435 23.366 188.408 23.5029 188.353C23.6399 188.298 23.7648 188.215 23.8704 188.11C23.976 188.005 24.0603 187.88 24.1183 187.741C24.1763 187.602 24.2069 187.453 24.2083 187.302C24.2098 187.151 24.182 187.001 24.1266 186.861C24.0711 186.721 23.9892 186.594 23.8856 186.487C23.7819 186.38 23.6586 186.295 23.5227 186.237C23.3868 186.179 23.2411 186.149 23.0941 186.15Z" fill="black"/>
<path d="M317 287H421" stroke="black" stroke-dasharray="2 2"/>
<path d="M359 175H423" stroke="black" stroke-dasharray="2 2"/>
</svg>
