<svg width="55" height="55" viewBox="0 0 55 55" fill="none" xmlns="http://www.w3.org/2000/svg">
<circle cx="27.5" cy="27.5" r="27.5" fill="#615AE4"/>
<g clip-path="url(#clip0_966_222)">
<path d="M9.73369 36.9193C9.83797 36.9901 9.93798 37.0603 10.0355 37.1285C10.7401 37.622 11.4066 38.0877 12.5161 38.0948C12.7512 38.999 13.2797 39.7996 14.0188 40.3711C14.7578 40.9426 15.6656 41.2527 16.5999 41.2528C17.5341 41.2529 18.442 40.9429 19.1811 40.3716C19.9203 39.8002 20.4489 38.9997 20.6842 38.0955H34.3166C34.5519 38.9996 35.0805 39.8001 35.8195 40.3715C36.5586 40.9429 37.4664 41.2529 38.4006 41.2529C39.3348 41.2529 40.2426 40.9429 40.9817 40.3715C41.7207 39.8001 42.2493 38.9996 42.4846 38.0955H45.0961C45.601 38.095 46.085 37.8941 46.442 37.5371C46.799 37.1801 46.9998 36.6961 47.0004 36.1912V33.0807C47.0052 32.6942 46.8988 32.3144 46.6939 31.9866C46.4889 31.6587 46.1941 31.3968 45.8444 31.2318C42.5364 29.6203 39.0865 29.6029 35.7459 29.6029H35.6981C35.6772 29.5843 35.655 29.5672 35.6318 29.5515L29.9269 25.7317C29.2905 25.2969 28.5362 25.0677 27.7655 25.0749H22.4311C21.2547 25.0635 20.0893 25.3026 19.0124 25.7762L13.7042 28.0494C13.4623 28.1554 13.2057 28.2238 12.9431 28.2524L9.73255 28.6273L8.76562 28.3717C8.67539 28.3478 8.58089 28.345 8.48939 28.3635C8.3979 28.3819 8.31186 28.4211 8.23792 28.4781C8.16398 28.535 8.10411 28.6082 8.06293 28.692C8.02174 28.7757 8.00035 28.8678 8.0004 28.9611V33.6442C7.99109 34.2917 8.14499 34.9312 8.44792 35.5035C8.75084 36.0759 9.19303 36.5628 9.73369 36.9193ZM16.6002 40.0332C16.0066 40.0332 15.4264 39.8572 14.9328 39.5274C14.4393 39.1976 14.0546 38.7289 13.8275 38.1805C13.6003 37.6321 13.5409 37.0287 13.6567 36.4465C13.7725 35.8643 14.0583 35.3296 14.4781 34.9099C14.8978 34.4901 15.4325 34.2043 16.0147 34.0885C16.5969 33.9727 17.2003 34.0321 17.7487 34.2593C18.2971 34.4864 18.7658 34.8711 19.0956 35.3646C19.4254 35.8582 19.6014 36.4384 19.6014 37.032C19.6005 37.8277 19.284 38.5905 18.7214 39.1532C18.1587 39.7158 17.3959 40.0323 16.6002 40.0332ZM38.4006 40.0332C37.807 40.0332 37.2268 39.8572 36.7332 39.5274C36.2397 39.1976 35.855 38.7289 35.6279 38.1805C35.4007 37.6321 35.3413 37.0287 35.4571 36.4465C35.5729 35.8643 35.8587 35.3296 36.2785 34.9099C36.6982 34.4901 37.2329 34.2043 37.8151 34.0885C38.3973 33.9727 39.0007 34.0321 39.5491 34.2593C40.0975 34.4864 40.5662 34.8711 40.896 35.3646C41.2258 35.8582 41.4018 36.4384 41.4018 37.032C41.4009 37.8277 41.0844 38.5905 40.5217 39.1532C39.9591 39.7158 39.1963 40.0323 38.4006 40.0332ZM29.2489 26.7444L33.5186 29.6033L23.9628 29.6055V26.2937H27.7655C28.295 26.2843 28.8141 26.442 29.2489 26.7444ZM19.4922 26.8967C20.418 26.4896 21.4198 26.2841 22.4311 26.2939H22.7441V29.6061L19.2636 29.6068H19.263C18.9536 29.6133 18.6464 29.5537 18.3618 29.4321C18.0772 29.3104 17.8218 29.1296 17.6126 28.9015L16.7983 28.0502L19.4922 26.8967ZM9.53267 29.8354C9.60651 29.855 9.68335 29.8604 9.75921 29.8516L13.0846 29.4631C13.4637 29.4211 13.8344 29.3223 14.184 29.17L15.6018 28.5628L16.7321 29.7441C17.0562 30.0896 17.4485 30.364 17.8842 30.5502C18.3198 30.7364 18.7893 30.8302 19.263 30.8257H19.2639L35.6353 30.822C39.024 30.8209 42.2189 30.8216 45.3107 32.3278C45.4539 32.394 45.5747 32.5005 45.6584 32.6343C45.742 32.7681 45.7849 32.9234 45.7817 33.0811V33.4808H45.1764C45.0148 33.4808 44.8598 33.545 44.7455 33.6593C44.6312 33.7736 44.567 33.9286 44.567 34.0902C44.567 34.2518 44.6312 34.4068 44.7455 34.5211C44.8598 34.6353 45.0148 34.6995 45.1764 34.6995H45.7817V36.1912C45.7815 36.373 45.7092 36.5472 45.5806 36.6758C45.4521 36.8043 45.2779 36.8766 45.0961 36.8768H42.6166C42.5778 35.7845 42.1166 34.75 41.3302 33.991C40.5437 33.2321 39.4935 32.8079 38.4005 32.8079C37.3076 32.8079 36.2573 33.2321 35.4709 33.991C34.6845 34.75 34.2233 35.7845 34.1844 36.8768H20.8162C20.7762 35.7858 20.3149 34.7529 19.5291 33.995C18.7434 33.2371 17.6945 32.8132 16.6028 32.8126C15.5111 32.8119 14.4617 33.2344 13.675 33.9914C12.8884 34.7483 12.4258 35.7807 12.3844 36.8716C11.738 36.8321 11.3296 36.5469 10.7347 36.1302C10.6327 36.0588 10.5282 35.9855 10.4192 35.9115C10.0449 35.6647 9.73872 35.3277 9.52899 34.9314C9.31927 34.5352 9.21271 34.0925 9.21915 33.6442V32.414H9.77932C9.94093 32.414 10.0959 32.3498 10.2102 32.2355C10.3245 32.1212 10.3887 31.9662 10.3887 31.8046C10.3887 31.643 10.3245 31.488 10.2102 31.3737C10.0959 31.2595 9.94093 31.1953 9.77932 31.1953H9.21915V29.7526L9.53267 29.8354ZM29.4557 18.1852C29.3419 18.0705 29.2782 17.9153 29.2788 17.7537C29.2794 17.5921 29.3441 17.4373 29.4588 17.3234C30.5985 16.1859 31.9516 15.2845 33.4404 14.671C34.9292 14.0575 36.5245 13.7438 38.1348 13.7481H38.1418C39.7534 13.7448 41.3498 14.0598 42.8393 14.6752C44.3287 15.2906 45.682 16.1941 46.8213 17.334C46.879 17.3902 46.925 17.4573 46.9566 17.5314C46.9882 17.6055 47.0048 17.6852 47.0055 17.7658C47.0061 17.8464 46.9907 17.9263 46.9603 18.0009C46.9298 18.0755 46.8848 18.1433 46.828 18.2004C46.7711 18.2575 46.7035 18.3028 46.6291 18.3336C46.5546 18.3644 46.4748 18.3801 46.3942 18.3799C46.3136 18.3796 46.2338 18.3634 46.1596 18.3321C46.0853 18.3008 46.018 18.2551 45.9615 18.1977C41.651 13.9074 34.6333 13.9033 30.3179 18.1882C30.2611 18.2447 30.1937 18.2894 30.1196 18.3197C30.0456 18.3501 29.9662 18.3656 29.8862 18.3653C29.8061 18.3651 29.7269 18.349 29.653 18.3181C29.5792 18.2872 29.5121 18.242 29.4557 18.1852ZM43.5741 20.5855C40.5797 17.6108 35.7035 17.6067 32.7044 20.5763C32.6476 20.6329 32.5802 20.6778 32.506 20.7083C32.4318 20.7389 32.3524 20.7544 32.2722 20.7542C32.192 20.7539 32.1126 20.7379 32.0386 20.7069C31.9646 20.6759 31.8975 20.6306 31.8411 20.5736C31.7846 20.5166 31.74 20.449 31.7097 20.3748C31.6795 20.3005 31.6642 20.221 31.6647 20.1407C31.6652 20.0605 31.6816 19.9812 31.7129 19.9074C31.7441 19.8335 31.7897 19.7665 31.8468 19.7103C32.6737 18.8875 33.6546 18.2356 34.7334 17.7919C35.8123 17.3482 36.9679 17.1214 38.1345 17.1244H38.1416C39.3096 17.1223 40.4665 17.3505 41.5461 17.796C42.6258 18.2416 43.6069 18.8957 44.4334 19.721C44.4912 19.7771 44.5372 19.8442 44.5689 19.9183C44.6006 19.9924 44.6172 20.072 44.6179 20.1526C44.6186 20.2331 44.6033 20.3131 44.5729 20.3877C44.5426 20.4623 44.4977 20.5301 44.4409 20.5873C44.3841 20.6445 44.3165 20.6898 44.2421 20.7207C44.1677 20.7516 44.0879 20.7674 44.0073 20.7672C43.9267 20.767 43.847 20.7509 43.7727 20.7197C43.6984 20.6885 43.6311 20.6429 43.5745 20.5855H43.5741ZM41.1877 22.974C40.3742 22.1757 39.2804 21.7279 38.1407 21.7262C37.001 21.7246 35.906 22.1693 35.0902 22.9652C34.975 23.0785 34.8195 23.1414 34.6579 23.1401C34.4963 23.1387 34.3418 23.0732 34.2285 22.958C34.1152 22.8428 34.0522 22.6872 34.0536 22.5256C34.0549 22.364 34.1204 22.2095 34.2357 22.0962C35.2737 21.0707 36.6752 20.4971 38.1344 20.5007H38.142C39.6042 20.499 41.0075 21.0767 42.0447 22.1074C42.1019 22.1636 42.1474 22.2306 42.1786 22.3044C42.2098 22.3782 42.2261 22.4575 42.2267 22.5376C42.2272 22.6178 42.212 22.6973 42.1817 22.7715C42.1515 22.8457 42.107 22.9133 42.0506 22.9703C41.9942 23.0273 41.9272 23.0726 41.8533 23.1036C41.7794 23.1346 41.7001 23.1508 41.6199 23.1511C41.5398 23.1515 41.4603 23.136 41.3862 23.1056C41.312 23.0752 41.2446 23.0305 41.1877 22.974H41.1877ZM36.5895 24.517C36.284 24.8225 36.0759 25.2119 35.9916 25.6357C35.9073 26.0596 35.9505 26.4989 36.1159 26.8981C36.2813 27.2974 36.5613 27.6386 36.9207 27.8787C37.28 28.1188 37.7024 28.247 38.1346 28.247C38.5667 28.247 38.9892 28.1188 39.3485 27.8787C39.7078 27.6386 39.9879 27.2974 40.1532 26.8981C40.3186 26.4989 40.3619 26.0596 40.2776 25.6357C40.1933 25.2119 39.9852 24.8225 39.6796 24.517C39.2695 24.1078 38.7139 23.878 38.1346 23.878C37.5553 23.878 36.9996 24.1078 36.5895 24.517ZM38.8178 25.3788C38.9763 25.5369 39.075 25.7451 39.0971 25.9678C39.1193 26.1906 39.0635 26.4141 38.9393 26.6004C38.8151 26.7866 38.6301 26.924 38.4159 26.9891C38.2018 27.0542 37.9716 27.0431 37.7648 26.9575C37.5579 26.8719 37.3871 26.7173 37.2815 26.5199C37.1759 26.3225 37.142 26.0946 37.1857 25.8751C37.2293 25.6555 37.3477 25.4579 37.5207 25.3158C37.6937 25.1738 37.9107 25.0962 38.1345 25.0962C38.3907 25.0962 38.6364 25.1978 38.8178 25.3788Z" fill="white"/>
</g>
<defs>
<clipPath id="clip0_966_222">
<rect width="39" height="39" fill="white" transform="translate(8 8)"/>
</clipPath>
</defs>
</svg>
