<svg width="35" height="35" viewBox="0 0 35 35" fill="none" xmlns="http://www.w3.org/2000/svg">
<circle cx="17.5" cy="17.5" r="17.5" fill="#646464"/>
<g clip-path="url(#clip0_722_1087)">
<path d="M18.18 21.8885H16.4582C16.1827 21.8885 15.9761 21.6865 15.9761 21.4173V20.9125C15.9761 19.499 16.9059 18.2202 18.2833 17.749C18.6966 17.6144 19.0754 17.3788 19.3853 17.0423C21.1071 15.0231 19.5231 12.6 17.4569 12.5327C16.6993 12.499 15.9761 12.7683 15.4251 13.2731C14.9774 13.6769 14.702 14.1817 14.6331 14.7538C14.5986 14.9558 14.392 15.124 14.1165 15.124H12.3947C12.0848 15.124 11.8437 14.8885 11.8782 14.5856C12.0159 13.3067 12.6013 12.1625 13.5311 11.2538C14.6331 10.2442 16.045 9.70577 17.5602 9.73942C20.4184 9.84038 22.7601 12.1288 22.8634 14.9221C22.9667 17.2779 21.4859 19.3981 19.2476 20.2058C18.9376 20.3404 18.731 20.576 18.731 20.8788V21.3837C18.731 21.6865 18.4555 21.8885 18.18 21.8885Z" fill="white"/>
<path d="M18.731 25.4221C18.731 25.6913 18.4899 25.9269 18.2144 25.9269H16.4926C16.2171 25.9269 15.9761 25.6913 15.9761 25.4221V23.7394C15.9761 23.4702 16.2171 23.2346 16.4926 23.2346H18.2144C18.4899 23.2346 18.731 23.4702 18.731 23.7394V25.4221Z" fill="white"/>
</g>
<defs>
<clipPath id="clip0_722_1087">
<rect width="17.907" height="17.5" fill="white" transform="translate(8.40002 9.1)"/>
</clipPath>
</defs>
</svg>
