<svg width="29" height="29" viewBox="0 0 29 29" fill="none" xmlns="http://www.w3.org/2000/svg">
<path d="M12.3669 8.17416L17.3105 13.1822C17.4198 13.2907 17.5065 13.4198 17.5656 13.562C17.6248 13.7042 17.6552 13.8567 17.6551 14.0107C17.655 14.1647 17.6244 14.3172 17.5651 14.4593C17.5058 14.6015 17.4189 14.7304 17.3095 14.8388L12.3598 19.7825C12.2513 19.8918 12.1222 19.9785 11.98 20.0376C11.8378 20.0968 11.6853 20.1272 11.5313 20.1271C11.3773 20.127 11.2248 20.0964 11.0827 20.0371C10.9405 19.9778 10.8115 19.8909 10.7031 19.7815C10.486 19.5628 10.3642 19.267 10.3644 18.9588C10.3646 18.6506 10.4867 18.3549 10.7041 18.1365L14.8367 14.009L10.7092 9.87648C10.4938 9.65905 10.3724 9.36567 10.3713 9.05961C10.3705 8.90607 10.4 8.75388 10.4582 8.61177C10.5163 8.46966 10.602 8.34043 10.7102 8.23148C10.8148 8.11829 10.9408 8.02696 11.0809 7.96275C11.2211 7.89854 11.3725 7.86274 11.5266 7.85741C11.6806 7.85208 11.8342 7.87733 11.9784 7.93169C12.1226 7.98606 12.2547 8.06847 12.3669 8.17416Z" fill="black"/>
</svg>
