<svg width="25" height="25" viewBox="0 0 25 25" fill="none" xmlns="http://www.w3.org/2000/svg">
<g clip-path="url(#clip0_725_1423)">
<path d="M15.2344 22.6957V19.9219C15.2344 19.7063 15.0598 19.5312 14.8438 19.5312H14.334C13.993 18.6016 13.825 17.6914 13.7445 17.0102C14.366 16.8219 14.9195 16.4812 15.4027 15.9969C18.8438 15.8137 22.2656 13.9543 22.2656 10.1562C22.2656 9.51016 21.7398 8.98438 21.0938 8.98438H17.5828C17.5863 8.80117 17.5867 8.64492 17.5855 8.51953C18.0355 8.35586 18.3594 7.92773 18.3594 7.42188C18.3594 6.77578 17.8336 6.25 17.1875 6.25H7.8125C7.16641 6.25 6.64062 6.77578 6.64062 7.42188C6.64062 7.92773 6.96445 8.35586 7.41445 8.51953C7.41328 8.64492 7.41367 8.80117 7.41719 8.98438H3.90625C3.26016 8.98438 2.73438 9.51016 2.73438 10.1562C2.73438 13.9543 6.15625 15.8137 9.59727 15.9969C10.0805 16.4812 10.634 16.8223 11.2555 17.0102C11.175 17.691 11.007 18.6016 10.666 19.5312H10.1562C9.94023 19.5312 9.76562 19.7063 9.76562 19.9219V22.6957C8.87539 22.8773 8.20312 23.666 8.20312 24.6094C8.20312 24.825 8.37773 25 8.59375 25H16.4062C16.6223 25 16.7969 24.825 16.7969 24.6094C16.7969 23.6664 16.1246 22.8773 15.2344 22.6957ZM21.0938 9.76562C21.3094 9.76562 21.4844 9.94102 21.4844 10.1562C21.4844 13.1836 18.891 14.7891 16.0805 15.1508C16.2566 14.8773 16.4121 14.5863 16.55 14.2844C17.893 14.0215 20.1309 13.2523 20.6141 11.0199C20.6387 10.9047 20.6102 10.784 20.5363 10.6922C20.4625 10.6004 20.3504 10.5469 20.2324 10.5469H17.4848C17.5141 10.2703 17.5355 10.0082 17.5508 9.76562H21.0938ZM17.3828 11.3281H19.7035C19.1984 12.5559 17.9105 13.1332 16.8949 13.4035C17.125 12.7121 17.2793 11.9984 17.3828 11.3281ZM7.8125 7.03125H17.1875C17.4031 7.03125 17.5781 7.20664 17.5781 7.42188C17.5781 7.63711 17.4031 7.8125 17.1875 7.8125H7.8125C7.59688 7.8125 7.42188 7.63711 7.42188 7.42188C7.42188 7.20664 7.59688 7.03125 7.8125 7.03125ZM8.10547 13.4035C7.08984 13.1332 5.80195 12.5555 5.29688 11.3281H7.61758C7.72109 11.9984 7.87539 12.7121 8.10547 13.4035ZM3.51562 10.1562C3.51562 9.94102 3.69063 9.76562 3.90625 9.76562H7.44961C7.46484 10.0082 7.48633 10.2703 7.51562 10.5469H4.76797C4.64961 10.5469 4.53789 10.6004 4.46406 10.6922C4.39023 10.784 4.36133 10.9047 4.38633 11.0199C4.86953 13.252 7.10742 14.0215 8.45039 14.2844C8.58789 14.5863 8.74375 14.8773 8.91992 15.1508C6.10937 14.7887 3.51602 13.1836 3.51602 10.1562H3.51562ZM8.19687 8.59375H16.8027C16.8027 9.79023 16.6582 13.5594 14.9059 15.3926C14.2535 16.0746 13.4664 16.4062 12.5 16.4062C11.5336 16.4062 10.7465 16.0746 10.0941 15.3926C8.3418 13.5598 8.19688 9.79062 8.19727 8.59375H8.19687ZM12.0242 17.1617C12.1797 17.1777 12.3375 17.1875 12.5 17.1875C12.6625 17.1875 12.8203 17.1777 12.9758 17.1617C13.0562 17.8148 13.2117 18.6562 13.5051 19.5312H11.4953C11.7887 18.6559 11.9441 17.8145 12.0246 17.1617H12.0242ZM14.4531 20.3125V22.6562H10.5469V20.3125H14.4531ZM9.05117 24.2188C9.2125 23.7641 9.64687 23.4375 10.1562 23.4375H14.8438C15.3531 23.4375 15.7875 23.7641 15.9488 24.2188H9.05117Z" fill="white"/>
<path d="M13.6172 14.109C13.6742 14.1391 13.7367 14.1539 13.7989 14.1539C13.8797 14.1539 13.9602 14.1289 14.0285 14.0793C14.1489 13.9918 14.209 13.8438 14.1836 13.6973L13.9703 12.4531L14.8739 11.5723C14.9801 11.4684 15.0184 11.3133 14.9727 11.1719C14.9266 11.0305 14.8043 10.9274 14.6571 10.9059L13.4082 10.7246L12.8496 9.59298C12.7184 9.32618 12.2805 9.32618 12.1492 9.59298L11.5906 10.7246L10.3418 10.9059C10.1946 10.9274 10.0727 11.0305 10.0262 11.1719C9.98049 11.3133 10.0184 11.4684 10.125 11.5723L11.0285 12.4531L10.8153 13.6973C10.7903 13.8438 10.8504 13.9918 10.9703 14.0793C11.0914 14.1668 11.2512 14.1781 11.3817 14.109L12.4989 13.5219L13.616 14.109H13.6172ZM11.7199 13.0492L11.834 12.3828C11.8559 12.2563 11.8137 12.127 11.7219 12.0371L11.2379 11.5652L11.9071 11.468C12.0344 11.4496 12.1442 11.3695 12.2012 11.2543L12.5004 10.6484L12.7996 11.2543C12.8567 11.3695 12.9664 11.4496 13.0938 11.468L13.7629 11.5652L13.2789 12.0371C13.1871 12.1266 13.1449 12.2563 13.1668 12.3828L13.2809 13.0492L12.6824 12.7344C12.6254 12.7043 12.5633 12.6895 12.5008 12.6895C12.4383 12.6895 12.3762 12.7043 12.3192 12.7344L11.7207 13.0492H11.7199Z" fill="white"/>
<path d="M11.3281 21.0938H13.6719V21.875H11.3281V21.0938Z" fill="white"/>
<path d="M12.5 3.125C12.716 3.125 12.8906 2.95 12.8906 2.73438V0.390625C12.8906 0.175 12.716 0 12.5 0C12.284 0 12.1094 0.175 12.1094 0.390625V2.73438C12.1094 2.95 12.284 3.125 12.5 3.125Z" fill="white"/>
<path d="M9.00002 4.05585C9.06213 4.20624 9.20783 4.29725 9.36096 4.29725C9.41096 4.29725 9.46174 4.28749 9.51056 4.26718C9.70978 4.18475 9.80431 3.95624 9.72189 3.75663L8.82502 1.5914C8.7426 1.39218 8.5133 1.29843 8.31447 1.38007C8.11525 1.46249 8.02072 1.691 8.10314 1.89061L9.00002 4.05585Z" fill="white"/>
<path d="M4.80198 4.66797C4.87815 4.74415 4.97815 4.78243 5.07815 4.78243C5.17815 4.78243 5.27815 4.74415 5.35432 4.66797C5.50706 4.51524 5.50706 4.26837 5.35432 4.11563L3.69729 2.45821C3.54456 2.30547 3.29768 2.30547 3.14495 2.45821C2.99221 2.61094 2.99221 2.85782 3.14495 3.01055L4.80198 4.66797Z" fill="white"/>
<path d="M1.0223 7.00159L3.18753 7.89847C3.23636 7.91878 3.28714 7.92855 3.33714 7.92855C3.49026 7.92855 3.63597 7.83753 3.69808 7.68714C3.7805 7.48792 3.68597 7.2594 3.48675 7.17659L1.32151 6.27972C1.12269 6.1973 0.893389 6.29183 0.810967 6.49105C0.728545 6.69026 0.823076 6.91878 1.0223 7.00159Z" fill="white"/>
<path d="M19.9219 4.78243C20.0219 4.78243 20.1219 4.74415 20.198 4.66797L21.8551 3.01055C22.0078 2.85782 22.0078 2.61094 21.8551 2.45821C21.7023 2.30547 21.4554 2.30547 21.3027 2.45821L19.6457 4.11563C19.4929 4.26837 19.4929 4.51524 19.6457 4.66797C19.7219 4.74415 19.8219 4.78243 19.9219 4.78243Z" fill="white"/>
<path d="M21.3019 7.68709C21.364 7.83748 21.5097 7.9285 21.6629 7.9285C21.7129 7.9285 21.7637 7.91873 21.8125 7.89842L23.9777 7.00154C24.1769 6.91912 24.2715 6.69061 24.189 6.491C24.1066 6.29139 23.8773 6.19764 23.6785 6.27967L21.5133 7.17654C21.314 7.25896 21.2195 7.48748 21.3019 7.68709Z" fill="white"/>
<path d="M1.95312 12.1094H0.390625C0.174609 12.1094 0 12.2844 0 12.5C0 12.7156 0.174609 12.8906 0.390625 12.8906H1.95312C2.16914 12.8906 2.34375 12.7156 2.34375 12.5C2.34375 12.2844 2.16914 12.1094 1.95312 12.1094Z" fill="white"/>
<path d="M5.28206 15.4894C5.19964 15.2898 4.96995 15.1965 4.77151 15.2781L2.60628 16.175C2.40706 16.2574 2.31253 16.4859 2.39495 16.6855C2.45706 16.8359 2.60276 16.9269 2.75589 16.9269C2.80589 16.9269 2.85667 16.9172 2.9055 16.8969L5.07073 16C5.26995 15.9176 5.36448 15.689 5.28206 15.4894Z" fill="white"/>
<path d="M6.42302 18.0242L4.80193 19.6457C4.64919 19.7984 4.64919 20.0453 4.80193 20.198C4.8781 20.2742 4.9781 20.3125 5.0781 20.3125C5.1781 20.3125 5.2781 20.2742 5.35427 20.198L6.97537 18.5766C7.1281 18.4238 7.1281 18.177 6.97537 18.0242C6.82263 17.8715 6.57576 17.8715 6.42302 18.0242Z" fill="white"/>
<path d="M18.5769 18.0242C18.4242 17.8715 18.1773 17.8715 18.0246 18.0242C17.8719 18.177 17.8719 18.4238 18.0246 18.5766L19.6457 20.198C19.7218 20.2742 19.8219 20.3125 19.9218 20.3125C20.0219 20.3125 20.1219 20.2742 20.198 20.198C20.3508 20.0453 20.3508 19.7984 20.198 19.6457L18.5769 18.0242Z" fill="white"/>
<path d="M22.3934 16.1754L20.2281 15.2785C20.0297 15.1969 19.8 15.2906 19.7176 15.4899C19.6352 15.6891 19.7297 15.9176 19.9289 16.0004L22.0941 16.8973C22.143 16.9176 22.1938 16.9274 22.2438 16.9274C22.3969 16.9274 22.5426 16.8363 22.6047 16.686C22.6871 16.4867 22.5926 16.2582 22.3934 16.1754Z" fill="white"/>
<path d="M24.6094 12.1094H23.0469C22.8309 12.1094 22.6562 12.2844 22.6562 12.5C22.6562 12.7156 22.8309 12.8906 23.0469 12.8906H24.6094C24.8254 12.8906 25 12.7156 25 12.5C25 12.2844 24.8254 12.1094 24.6094 12.1094Z" fill="white"/>
<path d="M15.4895 4.26718C15.5383 4.28749 15.5891 4.29725 15.6391 4.29725C15.7922 4.29725 15.9379 4.20624 16 4.05585L16.8969 1.89061C16.9793 1.6914 16.8848 1.46288 16.6856 1.38007C16.4875 1.29843 16.2574 1.39218 16.175 1.5914L15.2781 3.75663C15.1957 3.95585 15.2902 4.18436 15.4895 4.26718Z" fill="white"/>
</g>
<defs>
<clipPath id="clip0_725_1423">
<rect width="25" height="25" fill="white"/>
</clipPath>
</defs>
</svg>
