<svg width="120" height="120" viewBox="0 0 120 120" fill="none" xmlns="http://www.w3.org/2000/svg">
<g clip-path="url(#clip0_4989_1127)">
<path d="M64.198 113.4C95.0163 113.4 119.999 89.089 119.999 59.0999C119.999 29.1109 95.0163 4.80005 64.198 4.80005C33.3797 4.80005 8.39648 29.1109 8.39648 59.0999C8.39648 89.089 33.3797 113.4 64.198 113.4Z" fill="#FFFF01"/>
<path d="M55.8015 117C86.6198 117 111.603 92.6888 111.603 62.6998C111.603 32.7108 86.6198 8.3999 55.8015 8.3999C24.9832 8.3999 0 32.7108 0 62.6998C0 92.6888 24.9832 117 55.8015 117Z" fill="#FFFF01"/>
<path d="M59.9988 120C90.8171 120 115.8 95.6888 115.8 65.6998C115.8 35.7108 90.8171 11.3999 59.9988 11.3999C29.1804 11.3999 4.19727 35.7108 4.19727 65.6998C4.19727 95.6888 29.1804 120 59.9988 120Z" fill="#FFFF01"/>
<path d="M113.4 57.2999C113.4 87.2889 88.4167 111.6 57.5984 111.6C26.7801 111.6 1.79688 87.2889 1.79688 57.2999C1.79688 27.3109 26.7801 3 57.5984 3C88.4167 3 113.4 27.3109 113.4 57.2999Z" fill="#FFFF01"/>
<path d="M4.0877 41.6665C23.6566 39.134 72.274 35.371 117.167 41.4489C119.239 45.501 119.757 52.7998 119.757 55.7998C79.6987 59.1764 72.2879 99.0924 73.439 118.508C62.3884 121.21 50.9924 119.634 46.6757 118.508C47.3664 70.5596 16.4311 56.6439 0.603315 55.7998C0.245931 51.0596 2.7149 44.6998 4.0877 41.6665Z" fill="black"/>
<path d="M110.104 28.1997L10.3418 28.3332C15.4408 19.19 32.4376 0.726702 59.6325 0.0188438C86.8274 -0.689014 104.722 18.4667 110.104 28.1997Z" fill="black"/>
<path d="M81.7484 115.799C79.7343 101.534 85.4382 72.3561 117.893 68.9995C118.181 79.0694 110.06 102.373 81.7484 115.799Z" fill="black"/>
<path d="M60.4888 81.0476C70.2858 81.0476 78.252 73.3228 78.252 63.7644C78.252 54.206 70.2858 46.4812 60.4888 46.4812C50.6918 46.4812 42.7256 54.206 42.7256 63.7644C42.7256 73.3228 50.6918 81.0476 60.4888 81.0476Z" fill="#FFFF01" stroke="#FFFF01"/>
<path d="M34.5979 114.114C36.6117 99.8483 32.5266 70.4777 0.076387 67.1211C-0.21129 77.191 6.29027 100.687 34.5979 114.114Z" fill="black"/>
<path d="M81.6166 115.8C80.3153 101.107 86.2424 71.0567 119.154 68.3999C118.053 79.6712 108.763 104.931 81.6166 115.8Z" fill="black" stroke="black" stroke-width="0.1"/>
</g>
<defs>
<clipPath id="clip0_4989_1127">
<rect width="120" height="120" fill="white"/>
</clipPath>
</defs>
</svg>
